%TF.GenerationSoftware,KiCad,Pcbnew,8.0.6*%
%TF.CreationDate,2025-05-18T16:47:16+02:00*%
%TF.ProjectId,BendeRadio,42656e64-6552-4616-9469-6f2e6b696361,1.0.0*%
%TF.SameCoordinates,Original*%
%TF.FileFunction,AssemblyDrawing,Top*%
%FSLAX46Y46*%
G04 Gerber Fmt 4.6, Leading zero omitted, Abs format (unit mm)*
G04 Created by KiCad (PCBNEW 8.0.6) date 2025-05-18 16:47:16*
%MOMM*%
%LPD*%
G01*
G04 APERTURE LIST*
%ADD10C,0.150000*%
%ADD11C,0.120000*%
%ADD12C,0.135000*%
%ADD13C,0.100000*%
G04 APERTURE END LIST*
D10*
X84081904Y-104066133D02*
X84034285Y-104113752D01*
X84034285Y-104113752D02*
X83939047Y-104161371D01*
X83939047Y-104161371D02*
X83748571Y-104066133D01*
X83748571Y-104066133D02*
X83653333Y-104113752D01*
X83653333Y-104113752D02*
X83605714Y-104161371D01*
X84153333Y-100398990D02*
X84486666Y-100398990D01*
X84486666Y-99875180D02*
X84486666Y-100875180D01*
X84486666Y-100875180D02*
X84010476Y-100875180D01*
X83677142Y-100779942D02*
X83629523Y-100827561D01*
X83629523Y-100827561D02*
X83534285Y-100875180D01*
X83534285Y-100875180D02*
X83296190Y-100875180D01*
X83296190Y-100875180D02*
X83200952Y-100827561D01*
X83200952Y-100827561D02*
X83153333Y-100779942D01*
X83153333Y-100779942D02*
X83105714Y-100684704D01*
X83105714Y-100684704D02*
X83105714Y-100589466D01*
X83105714Y-100589466D02*
X83153333Y-100446609D01*
X83153333Y-100446609D02*
X83724761Y-99875180D01*
X83724761Y-99875180D02*
X83105714Y-99875180D01*
X92584819Y-101672619D02*
X92584819Y-102244047D01*
X92584819Y-101958333D02*
X91584819Y-101958333D01*
X91584819Y-101958333D02*
X91727676Y-102053571D01*
X91727676Y-102053571D02*
X91822914Y-102148809D01*
X91822914Y-102148809D02*
X91870533Y-102244047D01*
X91584819Y-101053571D02*
X91584819Y-100958333D01*
X91584819Y-100958333D02*
X91632438Y-100863095D01*
X91632438Y-100863095D02*
X91680057Y-100815476D01*
X91680057Y-100815476D02*
X91775295Y-100767857D01*
X91775295Y-100767857D02*
X91965771Y-100720238D01*
X91965771Y-100720238D02*
X92203866Y-100720238D01*
X92203866Y-100720238D02*
X92394342Y-100767857D01*
X92394342Y-100767857D02*
X92489580Y-100815476D01*
X92489580Y-100815476D02*
X92537200Y-100863095D01*
X92537200Y-100863095D02*
X92584819Y-100958333D01*
X92584819Y-100958333D02*
X92584819Y-101053571D01*
X92584819Y-101053571D02*
X92537200Y-101148809D01*
X92537200Y-101148809D02*
X92489580Y-101196428D01*
X92489580Y-101196428D02*
X92394342Y-101244047D01*
X92394342Y-101244047D02*
X92203866Y-101291666D01*
X92203866Y-101291666D02*
X91965771Y-101291666D01*
X91965771Y-101291666D02*
X91775295Y-101244047D01*
X91775295Y-101244047D02*
X91680057Y-101196428D01*
X91680057Y-101196428D02*
X91632438Y-101148809D01*
X91632438Y-101148809D02*
X91584819Y-101053571D01*
X91584819Y-100101190D02*
X91584819Y-100005952D01*
X91584819Y-100005952D02*
X91632438Y-99910714D01*
X91632438Y-99910714D02*
X91680057Y-99863095D01*
X91680057Y-99863095D02*
X91775295Y-99815476D01*
X91775295Y-99815476D02*
X91965771Y-99767857D01*
X91965771Y-99767857D02*
X92203866Y-99767857D01*
X92203866Y-99767857D02*
X92394342Y-99815476D01*
X92394342Y-99815476D02*
X92489580Y-99863095D01*
X92489580Y-99863095D02*
X92537200Y-99910714D01*
X92537200Y-99910714D02*
X92584819Y-100005952D01*
X92584819Y-100005952D02*
X92584819Y-100101190D01*
X92584819Y-100101190D02*
X92537200Y-100196428D01*
X92537200Y-100196428D02*
X92489580Y-100244047D01*
X92489580Y-100244047D02*
X92394342Y-100291666D01*
X92394342Y-100291666D02*
X92203866Y-100339285D01*
X92203866Y-100339285D02*
X91965771Y-100339285D01*
X91965771Y-100339285D02*
X91775295Y-100291666D01*
X91775295Y-100291666D02*
X91680057Y-100244047D01*
X91680057Y-100244047D02*
X91632438Y-100196428D01*
X91632438Y-100196428D02*
X91584819Y-100101190D01*
X91918152Y-99339285D02*
X92584819Y-99339285D01*
X92013390Y-99339285D02*
X91965771Y-99291666D01*
X91965771Y-99291666D02*
X91918152Y-99196428D01*
X91918152Y-99196428D02*
X91918152Y-99053571D01*
X91918152Y-99053571D02*
X91965771Y-98958333D01*
X91965771Y-98958333D02*
X92061009Y-98910714D01*
X92061009Y-98910714D02*
X92584819Y-98910714D01*
X92061009Y-98101190D02*
X92061009Y-98434523D01*
X92584819Y-98434523D02*
X91584819Y-98434523D01*
X91584819Y-98434523D02*
X91584819Y-97958333D01*
D11*
X94267664Y-100258332D02*
X94305760Y-100296428D01*
X94305760Y-100296428D02*
X94343855Y-100410713D01*
X94343855Y-100410713D02*
X94343855Y-100486904D01*
X94343855Y-100486904D02*
X94305760Y-100601190D01*
X94305760Y-100601190D02*
X94229569Y-100677380D01*
X94229569Y-100677380D02*
X94153379Y-100715475D01*
X94153379Y-100715475D02*
X94000998Y-100753571D01*
X94000998Y-100753571D02*
X93886712Y-100753571D01*
X93886712Y-100753571D02*
X93734331Y-100715475D01*
X93734331Y-100715475D02*
X93658140Y-100677380D01*
X93658140Y-100677380D02*
X93581950Y-100601190D01*
X93581950Y-100601190D02*
X93543855Y-100486904D01*
X93543855Y-100486904D02*
X93543855Y-100410713D01*
X93543855Y-100410713D02*
X93581950Y-100296428D01*
X93581950Y-100296428D02*
X93620045Y-100258332D01*
X93543855Y-99572618D02*
X93543855Y-99724999D01*
X93543855Y-99724999D02*
X93581950Y-99801190D01*
X93581950Y-99801190D02*
X93620045Y-99839285D01*
X93620045Y-99839285D02*
X93734331Y-99915475D01*
X93734331Y-99915475D02*
X93886712Y-99953571D01*
X93886712Y-99953571D02*
X94191474Y-99953571D01*
X94191474Y-99953571D02*
X94267664Y-99915475D01*
X94267664Y-99915475D02*
X94305760Y-99877380D01*
X94305760Y-99877380D02*
X94343855Y-99801190D01*
X94343855Y-99801190D02*
X94343855Y-99648809D01*
X94343855Y-99648809D02*
X94305760Y-99572618D01*
X94305760Y-99572618D02*
X94267664Y-99534523D01*
X94267664Y-99534523D02*
X94191474Y-99496428D01*
X94191474Y-99496428D02*
X94000998Y-99496428D01*
X94000998Y-99496428D02*
X93924807Y-99534523D01*
X93924807Y-99534523D02*
X93886712Y-99572618D01*
X93886712Y-99572618D02*
X93848617Y-99648809D01*
X93848617Y-99648809D02*
X93848617Y-99801190D01*
X93848617Y-99801190D02*
X93886712Y-99877380D01*
X93886712Y-99877380D02*
X93924807Y-99915475D01*
X93924807Y-99915475D02*
X94000998Y-99953571D01*
D10*
X98782380Y-65804819D02*
X98210952Y-65804819D01*
X98496666Y-65804819D02*
X98496666Y-64804819D01*
X98496666Y-64804819D02*
X98401428Y-64947676D01*
X98401428Y-64947676D02*
X98306190Y-65042914D01*
X98306190Y-65042914D02*
X98210952Y-65090533D01*
X99401428Y-64804819D02*
X99496666Y-64804819D01*
X99496666Y-64804819D02*
X99591904Y-64852438D01*
X99591904Y-64852438D02*
X99639523Y-64900057D01*
X99639523Y-64900057D02*
X99687142Y-64995295D01*
X99687142Y-64995295D02*
X99734761Y-65185771D01*
X99734761Y-65185771D02*
X99734761Y-65423866D01*
X99734761Y-65423866D02*
X99687142Y-65614342D01*
X99687142Y-65614342D02*
X99639523Y-65709580D01*
X99639523Y-65709580D02*
X99591904Y-65757200D01*
X99591904Y-65757200D02*
X99496666Y-65804819D01*
X99496666Y-65804819D02*
X99401428Y-65804819D01*
X99401428Y-65804819D02*
X99306190Y-65757200D01*
X99306190Y-65757200D02*
X99258571Y-65709580D01*
X99258571Y-65709580D02*
X99210952Y-65614342D01*
X99210952Y-65614342D02*
X99163333Y-65423866D01*
X99163333Y-65423866D02*
X99163333Y-65185771D01*
X99163333Y-65185771D02*
X99210952Y-64995295D01*
X99210952Y-64995295D02*
X99258571Y-64900057D01*
X99258571Y-64900057D02*
X99306190Y-64852438D01*
X99306190Y-64852438D02*
X99401428Y-64804819D01*
X100353809Y-64804819D02*
X100449047Y-64804819D01*
X100449047Y-64804819D02*
X100544285Y-64852438D01*
X100544285Y-64852438D02*
X100591904Y-64900057D01*
X100591904Y-64900057D02*
X100639523Y-64995295D01*
X100639523Y-64995295D02*
X100687142Y-65185771D01*
X100687142Y-65185771D02*
X100687142Y-65423866D01*
X100687142Y-65423866D02*
X100639523Y-65614342D01*
X100639523Y-65614342D02*
X100591904Y-65709580D01*
X100591904Y-65709580D02*
X100544285Y-65757200D01*
X100544285Y-65757200D02*
X100449047Y-65804819D01*
X100449047Y-65804819D02*
X100353809Y-65804819D01*
X100353809Y-65804819D02*
X100258571Y-65757200D01*
X100258571Y-65757200D02*
X100210952Y-65709580D01*
X100210952Y-65709580D02*
X100163333Y-65614342D01*
X100163333Y-65614342D02*
X100115714Y-65423866D01*
X100115714Y-65423866D02*
X100115714Y-65185771D01*
X100115714Y-65185771D02*
X100163333Y-64995295D01*
X100163333Y-64995295D02*
X100210952Y-64900057D01*
X100210952Y-64900057D02*
X100258571Y-64852438D01*
X100258571Y-64852438D02*
X100353809Y-64804819D01*
X101115714Y-65138152D02*
X101115714Y-65804819D01*
X101115714Y-65233390D02*
X101163333Y-65185771D01*
X101163333Y-65185771D02*
X101258571Y-65138152D01*
X101258571Y-65138152D02*
X101401428Y-65138152D01*
X101401428Y-65138152D02*
X101496666Y-65185771D01*
X101496666Y-65185771D02*
X101544285Y-65281009D01*
X101544285Y-65281009D02*
X101544285Y-65804819D01*
X102353809Y-65281009D02*
X102020476Y-65281009D01*
X102020476Y-65804819D02*
X102020476Y-64804819D01*
X102020476Y-64804819D02*
X102496666Y-64804819D01*
D11*
X99815714Y-63787664D02*
X99777618Y-63825760D01*
X99777618Y-63825760D02*
X99663333Y-63863855D01*
X99663333Y-63863855D02*
X99587142Y-63863855D01*
X99587142Y-63863855D02*
X99472856Y-63825760D01*
X99472856Y-63825760D02*
X99396666Y-63749569D01*
X99396666Y-63749569D02*
X99358571Y-63673379D01*
X99358571Y-63673379D02*
X99320475Y-63520998D01*
X99320475Y-63520998D02*
X99320475Y-63406712D01*
X99320475Y-63406712D02*
X99358571Y-63254331D01*
X99358571Y-63254331D02*
X99396666Y-63178140D01*
X99396666Y-63178140D02*
X99472856Y-63101950D01*
X99472856Y-63101950D02*
X99587142Y-63063855D01*
X99587142Y-63063855D02*
X99663333Y-63063855D01*
X99663333Y-63063855D02*
X99777618Y-63101950D01*
X99777618Y-63101950D02*
X99815714Y-63140045D01*
X100577618Y-63863855D02*
X100120475Y-63863855D01*
X100349047Y-63863855D02*
X100349047Y-63063855D01*
X100349047Y-63063855D02*
X100272856Y-63178140D01*
X100272856Y-63178140D02*
X100196666Y-63254331D01*
X100196666Y-63254331D02*
X100120475Y-63292426D01*
X101339523Y-63863855D02*
X100882380Y-63863855D01*
X101110952Y-63863855D02*
X101110952Y-63063855D01*
X101110952Y-63063855D02*
X101034761Y-63178140D01*
X101034761Y-63178140D02*
X100958571Y-63254331D01*
X100958571Y-63254331D02*
X100882380Y-63292426D01*
D10*
X87296666Y-51524819D02*
X87296666Y-52239104D01*
X87296666Y-52239104D02*
X87249047Y-52381961D01*
X87249047Y-52381961D02*
X87153809Y-52477200D01*
X87153809Y-52477200D02*
X87010952Y-52524819D01*
X87010952Y-52524819D02*
X86915714Y-52524819D01*
X88296666Y-52524819D02*
X87725238Y-52524819D01*
X88010952Y-52524819D02*
X88010952Y-51524819D01*
X88010952Y-51524819D02*
X87915714Y-51667676D01*
X87915714Y-51667676D02*
X87820476Y-51762914D01*
X87820476Y-51762914D02*
X87725238Y-51810533D01*
X66996666Y-64454819D02*
X66996666Y-65169104D01*
X66996666Y-65169104D02*
X66949047Y-65311961D01*
X66949047Y-65311961D02*
X66853809Y-65407200D01*
X66853809Y-65407200D02*
X66710952Y-65454819D01*
X66710952Y-65454819D02*
X66615714Y-65454819D01*
X67425238Y-64550057D02*
X67472857Y-64502438D01*
X67472857Y-64502438D02*
X67568095Y-64454819D01*
X67568095Y-64454819D02*
X67806190Y-64454819D01*
X67806190Y-64454819D02*
X67901428Y-64502438D01*
X67901428Y-64502438D02*
X67949047Y-64550057D01*
X67949047Y-64550057D02*
X67996666Y-64645295D01*
X67996666Y-64645295D02*
X67996666Y-64740533D01*
X67996666Y-64740533D02*
X67949047Y-64883390D01*
X67949047Y-64883390D02*
X67377619Y-65454819D01*
X67377619Y-65454819D02*
X67996666Y-65454819D01*
X83694819Y-95322619D02*
X83694819Y-95894047D01*
X83694819Y-95608333D02*
X82694819Y-95608333D01*
X82694819Y-95608333D02*
X82837676Y-95703571D01*
X82837676Y-95703571D02*
X82932914Y-95798809D01*
X82932914Y-95798809D02*
X82980533Y-95894047D01*
X82694819Y-94703571D02*
X82694819Y-94608333D01*
X82694819Y-94608333D02*
X82742438Y-94513095D01*
X82742438Y-94513095D02*
X82790057Y-94465476D01*
X82790057Y-94465476D02*
X82885295Y-94417857D01*
X82885295Y-94417857D02*
X83075771Y-94370238D01*
X83075771Y-94370238D02*
X83313866Y-94370238D01*
X83313866Y-94370238D02*
X83504342Y-94417857D01*
X83504342Y-94417857D02*
X83599580Y-94465476D01*
X83599580Y-94465476D02*
X83647200Y-94513095D01*
X83647200Y-94513095D02*
X83694819Y-94608333D01*
X83694819Y-94608333D02*
X83694819Y-94703571D01*
X83694819Y-94703571D02*
X83647200Y-94798809D01*
X83647200Y-94798809D02*
X83599580Y-94846428D01*
X83599580Y-94846428D02*
X83504342Y-94894047D01*
X83504342Y-94894047D02*
X83313866Y-94941666D01*
X83313866Y-94941666D02*
X83075771Y-94941666D01*
X83075771Y-94941666D02*
X82885295Y-94894047D01*
X82885295Y-94894047D02*
X82790057Y-94846428D01*
X82790057Y-94846428D02*
X82742438Y-94798809D01*
X82742438Y-94798809D02*
X82694819Y-94703571D01*
X82694819Y-93751190D02*
X82694819Y-93655952D01*
X82694819Y-93655952D02*
X82742438Y-93560714D01*
X82742438Y-93560714D02*
X82790057Y-93513095D01*
X82790057Y-93513095D02*
X82885295Y-93465476D01*
X82885295Y-93465476D02*
X83075771Y-93417857D01*
X83075771Y-93417857D02*
X83313866Y-93417857D01*
X83313866Y-93417857D02*
X83504342Y-93465476D01*
X83504342Y-93465476D02*
X83599580Y-93513095D01*
X83599580Y-93513095D02*
X83647200Y-93560714D01*
X83647200Y-93560714D02*
X83694819Y-93655952D01*
X83694819Y-93655952D02*
X83694819Y-93751190D01*
X83694819Y-93751190D02*
X83647200Y-93846428D01*
X83647200Y-93846428D02*
X83599580Y-93894047D01*
X83599580Y-93894047D02*
X83504342Y-93941666D01*
X83504342Y-93941666D02*
X83313866Y-93989285D01*
X83313866Y-93989285D02*
X83075771Y-93989285D01*
X83075771Y-93989285D02*
X82885295Y-93941666D01*
X82885295Y-93941666D02*
X82790057Y-93894047D01*
X82790057Y-93894047D02*
X82742438Y-93846428D01*
X82742438Y-93846428D02*
X82694819Y-93751190D01*
X83028152Y-92989285D02*
X83694819Y-92989285D01*
X83123390Y-92989285D02*
X83075771Y-92941666D01*
X83075771Y-92941666D02*
X83028152Y-92846428D01*
X83028152Y-92846428D02*
X83028152Y-92703571D01*
X83028152Y-92703571D02*
X83075771Y-92608333D01*
X83075771Y-92608333D02*
X83171009Y-92560714D01*
X83171009Y-92560714D02*
X83694819Y-92560714D01*
X83171009Y-91751190D02*
X83171009Y-92084523D01*
X83694819Y-92084523D02*
X82694819Y-92084523D01*
X82694819Y-92084523D02*
X82694819Y-91608333D01*
D11*
X85377664Y-93908332D02*
X85415760Y-93946428D01*
X85415760Y-93946428D02*
X85453855Y-94060713D01*
X85453855Y-94060713D02*
X85453855Y-94136904D01*
X85453855Y-94136904D02*
X85415760Y-94251190D01*
X85415760Y-94251190D02*
X85339569Y-94327380D01*
X85339569Y-94327380D02*
X85263379Y-94365475D01*
X85263379Y-94365475D02*
X85110998Y-94403571D01*
X85110998Y-94403571D02*
X84996712Y-94403571D01*
X84996712Y-94403571D02*
X84844331Y-94365475D01*
X84844331Y-94365475D02*
X84768140Y-94327380D01*
X84768140Y-94327380D02*
X84691950Y-94251190D01*
X84691950Y-94251190D02*
X84653855Y-94136904D01*
X84653855Y-94136904D02*
X84653855Y-94060713D01*
X84653855Y-94060713D02*
X84691950Y-93946428D01*
X84691950Y-93946428D02*
X84730045Y-93908332D01*
X84920521Y-93222618D02*
X85453855Y-93222618D01*
X84615760Y-93413094D02*
X85187188Y-93603571D01*
X85187188Y-93603571D02*
X85187188Y-93108332D01*
D10*
X96113214Y-79914819D02*
X95541786Y-79914819D01*
X95827500Y-79914819D02*
X95827500Y-78914819D01*
X95827500Y-78914819D02*
X95732262Y-79057676D01*
X95732262Y-79057676D02*
X95637024Y-79152914D01*
X95637024Y-79152914D02*
X95541786Y-79200533D01*
X96541786Y-79914819D02*
X96541786Y-78914819D01*
X97113214Y-79914819D02*
X96684643Y-79343390D01*
X97113214Y-78914819D02*
X96541786Y-79486247D01*
D11*
X96194167Y-81643855D02*
X95927500Y-81262902D01*
X95737024Y-81643855D02*
X95737024Y-80843855D01*
X95737024Y-80843855D02*
X96041786Y-80843855D01*
X96041786Y-80843855D02*
X96117976Y-80881950D01*
X96117976Y-80881950D02*
X96156071Y-80920045D01*
X96156071Y-80920045D02*
X96194167Y-80996236D01*
X96194167Y-80996236D02*
X96194167Y-81110521D01*
X96194167Y-81110521D02*
X96156071Y-81186712D01*
X96156071Y-81186712D02*
X96117976Y-81224807D01*
X96117976Y-81224807D02*
X96041786Y-81262902D01*
X96041786Y-81262902D02*
X95737024Y-81262902D01*
X96460833Y-80843855D02*
X96956071Y-80843855D01*
X96956071Y-80843855D02*
X96689405Y-81148617D01*
X96689405Y-81148617D02*
X96803690Y-81148617D01*
X96803690Y-81148617D02*
X96879881Y-81186712D01*
X96879881Y-81186712D02*
X96917976Y-81224807D01*
X96917976Y-81224807D02*
X96956071Y-81300998D01*
X96956071Y-81300998D02*
X96956071Y-81491474D01*
X96956071Y-81491474D02*
X96917976Y-81567664D01*
X96917976Y-81567664D02*
X96879881Y-81605760D01*
X96879881Y-81605760D02*
X96803690Y-81643855D01*
X96803690Y-81643855D02*
X96575119Y-81643855D01*
X96575119Y-81643855D02*
X96498928Y-81605760D01*
X96498928Y-81605760D02*
X96460833Y-81567664D01*
D10*
X72898095Y-85814819D02*
X72898095Y-86624342D01*
X72898095Y-86624342D02*
X72945714Y-86719580D01*
X72945714Y-86719580D02*
X72993333Y-86767200D01*
X72993333Y-86767200D02*
X73088571Y-86814819D01*
X73088571Y-86814819D02*
X73279047Y-86814819D01*
X73279047Y-86814819D02*
X73374285Y-86767200D01*
X73374285Y-86767200D02*
X73421904Y-86719580D01*
X73421904Y-86719580D02*
X73469523Y-86624342D01*
X73469523Y-86624342D02*
X73469523Y-85814819D01*
X73850476Y-85814819D02*
X74469523Y-85814819D01*
X74469523Y-85814819D02*
X74136190Y-86195771D01*
X74136190Y-86195771D02*
X74279047Y-86195771D01*
X74279047Y-86195771D02*
X74374285Y-86243390D01*
X74374285Y-86243390D02*
X74421904Y-86291009D01*
X74421904Y-86291009D02*
X74469523Y-86386247D01*
X74469523Y-86386247D02*
X74469523Y-86624342D01*
X74469523Y-86624342D02*
X74421904Y-86719580D01*
X74421904Y-86719580D02*
X74374285Y-86767200D01*
X74374285Y-86767200D02*
X74279047Y-86814819D01*
X74279047Y-86814819D02*
X73993333Y-86814819D01*
X73993333Y-86814819D02*
X73898095Y-86767200D01*
X73898095Y-86767200D02*
X73850476Y-86719580D01*
X79696666Y-64454819D02*
X79696666Y-65169104D01*
X79696666Y-65169104D02*
X79649047Y-65311961D01*
X79649047Y-65311961D02*
X79553809Y-65407200D01*
X79553809Y-65407200D02*
X79410952Y-65454819D01*
X79410952Y-65454819D02*
X79315714Y-65454819D01*
X80077619Y-64454819D02*
X80696666Y-64454819D01*
X80696666Y-64454819D02*
X80363333Y-64835771D01*
X80363333Y-64835771D02*
X80506190Y-64835771D01*
X80506190Y-64835771D02*
X80601428Y-64883390D01*
X80601428Y-64883390D02*
X80649047Y-64931009D01*
X80649047Y-64931009D02*
X80696666Y-65026247D01*
X80696666Y-65026247D02*
X80696666Y-65264342D01*
X80696666Y-65264342D02*
X80649047Y-65359580D01*
X80649047Y-65359580D02*
X80601428Y-65407200D01*
X80601428Y-65407200D02*
X80506190Y-65454819D01*
X80506190Y-65454819D02*
X80220476Y-65454819D01*
X80220476Y-65454819D02*
X80125238Y-65407200D01*
X80125238Y-65407200D02*
X80077619Y-65359580D01*
X100094819Y-76001428D02*
X100094819Y-76572856D01*
X100094819Y-76287142D02*
X99094819Y-76287142D01*
X99094819Y-76287142D02*
X99237676Y-76382380D01*
X99237676Y-76382380D02*
X99332914Y-76477618D01*
X99332914Y-76477618D02*
X99380533Y-76572856D01*
X99094819Y-75382380D02*
X99094819Y-75287142D01*
X99094819Y-75287142D02*
X99142438Y-75191904D01*
X99142438Y-75191904D02*
X99190057Y-75144285D01*
X99190057Y-75144285D02*
X99285295Y-75096666D01*
X99285295Y-75096666D02*
X99475771Y-75049047D01*
X99475771Y-75049047D02*
X99713866Y-75049047D01*
X99713866Y-75049047D02*
X99904342Y-75096666D01*
X99904342Y-75096666D02*
X99999580Y-75144285D01*
X99999580Y-75144285D02*
X100047200Y-75191904D01*
X100047200Y-75191904D02*
X100094819Y-75287142D01*
X100094819Y-75287142D02*
X100094819Y-75382380D01*
X100094819Y-75382380D02*
X100047200Y-75477618D01*
X100047200Y-75477618D02*
X99999580Y-75525237D01*
X99999580Y-75525237D02*
X99904342Y-75572856D01*
X99904342Y-75572856D02*
X99713866Y-75620475D01*
X99713866Y-75620475D02*
X99475771Y-75620475D01*
X99475771Y-75620475D02*
X99285295Y-75572856D01*
X99285295Y-75572856D02*
X99190057Y-75525237D01*
X99190057Y-75525237D02*
X99142438Y-75477618D01*
X99142438Y-75477618D02*
X99094819Y-75382380D01*
X99428152Y-74620475D02*
X100094819Y-74620475D01*
X99523390Y-74620475D02*
X99475771Y-74572856D01*
X99475771Y-74572856D02*
X99428152Y-74477618D01*
X99428152Y-74477618D02*
X99428152Y-74334761D01*
X99428152Y-74334761D02*
X99475771Y-74239523D01*
X99475771Y-74239523D02*
X99571009Y-74191904D01*
X99571009Y-74191904D02*
X100094819Y-74191904D01*
X99571009Y-73382380D02*
X99571009Y-73715713D01*
X100094819Y-73715713D02*
X99094819Y-73715713D01*
X99094819Y-73715713D02*
X99094819Y-73239523D01*
D11*
X98077664Y-75444285D02*
X98115760Y-75482381D01*
X98115760Y-75482381D02*
X98153855Y-75596666D01*
X98153855Y-75596666D02*
X98153855Y-75672857D01*
X98153855Y-75672857D02*
X98115760Y-75787143D01*
X98115760Y-75787143D02*
X98039569Y-75863333D01*
X98039569Y-75863333D02*
X97963379Y-75901428D01*
X97963379Y-75901428D02*
X97810998Y-75939524D01*
X97810998Y-75939524D02*
X97696712Y-75939524D01*
X97696712Y-75939524D02*
X97544331Y-75901428D01*
X97544331Y-75901428D02*
X97468140Y-75863333D01*
X97468140Y-75863333D02*
X97391950Y-75787143D01*
X97391950Y-75787143D02*
X97353855Y-75672857D01*
X97353855Y-75672857D02*
X97353855Y-75596666D01*
X97353855Y-75596666D02*
X97391950Y-75482381D01*
X97391950Y-75482381D02*
X97430045Y-75444285D01*
X98153855Y-74682381D02*
X98153855Y-75139524D01*
X98153855Y-74910952D02*
X97353855Y-74910952D01*
X97353855Y-74910952D02*
X97468140Y-74987143D01*
X97468140Y-74987143D02*
X97544331Y-75063333D01*
X97544331Y-75063333D02*
X97582426Y-75139524D01*
X97430045Y-74377619D02*
X97391950Y-74339523D01*
X97391950Y-74339523D02*
X97353855Y-74263333D01*
X97353855Y-74263333D02*
X97353855Y-74072857D01*
X97353855Y-74072857D02*
X97391950Y-73996666D01*
X97391950Y-73996666D02*
X97430045Y-73958571D01*
X97430045Y-73958571D02*
X97506236Y-73920476D01*
X97506236Y-73920476D02*
X97582426Y-73920476D01*
X97582426Y-73920476D02*
X97696712Y-73958571D01*
X97696712Y-73958571D02*
X98153855Y-74415714D01*
X98153855Y-74415714D02*
X98153855Y-73920476D01*
D10*
X95670952Y-57970057D02*
X95718571Y-57922438D01*
X95718571Y-57922438D02*
X95813809Y-57874819D01*
X95813809Y-57874819D02*
X96051904Y-57874819D01*
X96051904Y-57874819D02*
X96147142Y-57922438D01*
X96147142Y-57922438D02*
X96194761Y-57970057D01*
X96194761Y-57970057D02*
X96242380Y-58065295D01*
X96242380Y-58065295D02*
X96242380Y-58160533D01*
X96242380Y-58160533D02*
X96194761Y-58303390D01*
X96194761Y-58303390D02*
X95623333Y-58874819D01*
X95623333Y-58874819D02*
X96242380Y-58874819D01*
X96623333Y-57970057D02*
X96670952Y-57922438D01*
X96670952Y-57922438D02*
X96766190Y-57874819D01*
X96766190Y-57874819D02*
X97004285Y-57874819D01*
X97004285Y-57874819D02*
X97099523Y-57922438D01*
X97099523Y-57922438D02*
X97147142Y-57970057D01*
X97147142Y-57970057D02*
X97194761Y-58065295D01*
X97194761Y-58065295D02*
X97194761Y-58160533D01*
X97194761Y-58160533D02*
X97147142Y-58303390D01*
X97147142Y-58303390D02*
X96575714Y-58874819D01*
X96575714Y-58874819D02*
X97194761Y-58874819D01*
X97813809Y-57874819D02*
X97909047Y-57874819D01*
X97909047Y-57874819D02*
X98004285Y-57922438D01*
X98004285Y-57922438D02*
X98051904Y-57970057D01*
X98051904Y-57970057D02*
X98099523Y-58065295D01*
X98099523Y-58065295D02*
X98147142Y-58255771D01*
X98147142Y-58255771D02*
X98147142Y-58493866D01*
X98147142Y-58493866D02*
X98099523Y-58684342D01*
X98099523Y-58684342D02*
X98051904Y-58779580D01*
X98051904Y-58779580D02*
X98004285Y-58827200D01*
X98004285Y-58827200D02*
X97909047Y-58874819D01*
X97909047Y-58874819D02*
X97813809Y-58874819D01*
X97813809Y-58874819D02*
X97718571Y-58827200D01*
X97718571Y-58827200D02*
X97670952Y-58779580D01*
X97670952Y-58779580D02*
X97623333Y-58684342D01*
X97623333Y-58684342D02*
X97575714Y-58493866D01*
X97575714Y-58493866D02*
X97575714Y-58255771D01*
X97575714Y-58255771D02*
X97623333Y-58065295D01*
X97623333Y-58065295D02*
X97670952Y-57970057D01*
X97670952Y-57970057D02*
X97718571Y-57922438D01*
X97718571Y-57922438D02*
X97813809Y-57874819D01*
X99004285Y-58208152D02*
X99004285Y-58874819D01*
X98575714Y-58208152D02*
X98575714Y-58731961D01*
X98575714Y-58731961D02*
X98623333Y-58827200D01*
X98623333Y-58827200D02*
X98718571Y-58874819D01*
X98718571Y-58874819D02*
X98861428Y-58874819D01*
X98861428Y-58874819D02*
X98956666Y-58827200D01*
X98956666Y-58827200D02*
X99004285Y-58779580D01*
X99813809Y-58351009D02*
X99480476Y-58351009D01*
X99480476Y-58874819D02*
X99480476Y-57874819D01*
X99480476Y-57874819D02*
X99956666Y-57874819D01*
X98149580Y-52756666D02*
X98197200Y-52804285D01*
X98197200Y-52804285D02*
X98244819Y-52947142D01*
X98244819Y-52947142D02*
X98244819Y-53042380D01*
X98244819Y-53042380D02*
X98197200Y-53185237D01*
X98197200Y-53185237D02*
X98101961Y-53280475D01*
X98101961Y-53280475D02*
X98006723Y-53328094D01*
X98006723Y-53328094D02*
X97816247Y-53375713D01*
X97816247Y-53375713D02*
X97673390Y-53375713D01*
X97673390Y-53375713D02*
X97482914Y-53328094D01*
X97482914Y-53328094D02*
X97387676Y-53280475D01*
X97387676Y-53280475D02*
X97292438Y-53185237D01*
X97292438Y-53185237D02*
X97244819Y-53042380D01*
X97244819Y-53042380D02*
X97244819Y-52947142D01*
X97244819Y-52947142D02*
X97292438Y-52804285D01*
X97292438Y-52804285D02*
X97340057Y-52756666D01*
X97244819Y-52423332D02*
X97244819Y-51756666D01*
X97244819Y-51756666D02*
X98244819Y-52185237D01*
X67098152Y-100226666D02*
X67764819Y-100226666D01*
X66717200Y-100464761D02*
X67431485Y-100702856D01*
X67431485Y-100702856D02*
X67431485Y-100083809D01*
X66764819Y-99798094D02*
X66764819Y-99131428D01*
X66764819Y-99131428D02*
X67764819Y-99559999D01*
X67098152Y-98321904D02*
X67764819Y-98321904D01*
X67098152Y-98750475D02*
X67621961Y-98750475D01*
X67621961Y-98750475D02*
X67717200Y-98702856D01*
X67717200Y-98702856D02*
X67764819Y-98607618D01*
X67764819Y-98607618D02*
X67764819Y-98464761D01*
X67764819Y-98464761D02*
X67717200Y-98369523D01*
X67717200Y-98369523D02*
X67669580Y-98321904D01*
X67241009Y-97512380D02*
X67241009Y-97845713D01*
X67764819Y-97845713D02*
X66764819Y-97845713D01*
X66764819Y-97845713D02*
X66764819Y-97369523D01*
X72749580Y-100516666D02*
X72797200Y-100564285D01*
X72797200Y-100564285D02*
X72844819Y-100707142D01*
X72844819Y-100707142D02*
X72844819Y-100802380D01*
X72844819Y-100802380D02*
X72797200Y-100945237D01*
X72797200Y-100945237D02*
X72701961Y-101040475D01*
X72701961Y-101040475D02*
X72606723Y-101088094D01*
X72606723Y-101088094D02*
X72416247Y-101135713D01*
X72416247Y-101135713D02*
X72273390Y-101135713D01*
X72273390Y-101135713D02*
X72082914Y-101088094D01*
X72082914Y-101088094D02*
X71987676Y-101040475D01*
X71987676Y-101040475D02*
X71892438Y-100945237D01*
X71892438Y-100945237D02*
X71844819Y-100802380D01*
X71844819Y-100802380D02*
X71844819Y-100707142D01*
X71844819Y-100707142D02*
X71892438Y-100564285D01*
X71892438Y-100564285D02*
X71940057Y-100516666D01*
X71844819Y-99611904D02*
X71844819Y-100088094D01*
X71844819Y-100088094D02*
X72321009Y-100135713D01*
X72321009Y-100135713D02*
X72273390Y-100088094D01*
X72273390Y-100088094D02*
X72225771Y-99992856D01*
X72225771Y-99992856D02*
X72225771Y-99754761D01*
X72225771Y-99754761D02*
X72273390Y-99659523D01*
X72273390Y-99659523D02*
X72321009Y-99611904D01*
X72321009Y-99611904D02*
X72416247Y-99564285D01*
X72416247Y-99564285D02*
X72654342Y-99564285D01*
X72654342Y-99564285D02*
X72749580Y-99611904D01*
X72749580Y-99611904D02*
X72797200Y-99659523D01*
X72797200Y-99659523D02*
X72844819Y-99754761D01*
X72844819Y-99754761D02*
X72844819Y-99992856D01*
X72844819Y-99992856D02*
X72797200Y-100088094D01*
X72797200Y-100088094D02*
X72749580Y-100135713D01*
X111466666Y-51754819D02*
X111466666Y-52469104D01*
X111466666Y-52469104D02*
X111419047Y-52611961D01*
X111419047Y-52611961D02*
X111323809Y-52707200D01*
X111323809Y-52707200D02*
X111180952Y-52754819D01*
X111180952Y-52754819D02*
X111085714Y-52754819D01*
X112371428Y-52088152D02*
X112371428Y-52754819D01*
X112133333Y-51707200D02*
X111895238Y-52421485D01*
X111895238Y-52421485D02*
X112514285Y-52421485D01*
X87034761Y-74154819D02*
X86463333Y-74154819D01*
X86749047Y-74154819D02*
X86749047Y-73154819D01*
X86749047Y-73154819D02*
X86653809Y-73297676D01*
X86653809Y-73297676D02*
X86558571Y-73392914D01*
X86558571Y-73392914D02*
X86463333Y-73440533D01*
X87891904Y-73488152D02*
X87891904Y-74154819D01*
X87463333Y-73488152D02*
X87463333Y-74011961D01*
X87463333Y-74011961D02*
X87510952Y-74107200D01*
X87510952Y-74107200D02*
X87606190Y-74154819D01*
X87606190Y-74154819D02*
X87749047Y-74154819D01*
X87749047Y-74154819D02*
X87844285Y-74107200D01*
X87844285Y-74107200D02*
X87891904Y-74059580D01*
X88701428Y-73631009D02*
X88368095Y-73631009D01*
X88368095Y-74154819D02*
X88368095Y-73154819D01*
X88368095Y-73154819D02*
X88844285Y-73154819D01*
X87503333Y-76559580D02*
X87455714Y-76607200D01*
X87455714Y-76607200D02*
X87312857Y-76654819D01*
X87312857Y-76654819D02*
X87217619Y-76654819D01*
X87217619Y-76654819D02*
X87074762Y-76607200D01*
X87074762Y-76607200D02*
X86979524Y-76511961D01*
X86979524Y-76511961D02*
X86931905Y-76416723D01*
X86931905Y-76416723D02*
X86884286Y-76226247D01*
X86884286Y-76226247D02*
X86884286Y-76083390D01*
X86884286Y-76083390D02*
X86931905Y-75892914D01*
X86931905Y-75892914D02*
X86979524Y-75797676D01*
X86979524Y-75797676D02*
X87074762Y-75702438D01*
X87074762Y-75702438D02*
X87217619Y-75654819D01*
X87217619Y-75654819D02*
X87312857Y-75654819D01*
X87312857Y-75654819D02*
X87455714Y-75702438D01*
X87455714Y-75702438D02*
X87503333Y-75750057D01*
X88455714Y-76654819D02*
X87884286Y-76654819D01*
X88170000Y-76654819D02*
X88170000Y-75654819D01*
X88170000Y-75654819D02*
X88074762Y-75797676D01*
X88074762Y-75797676D02*
X87979524Y-75892914D01*
X87979524Y-75892914D02*
X87884286Y-75940533D01*
X95176133Y-64508095D02*
X95223752Y-64555714D01*
X95223752Y-64555714D02*
X95271371Y-64650952D01*
X95271371Y-64650952D02*
X95176133Y-64841428D01*
X95176133Y-64841428D02*
X95223752Y-64936666D01*
X95223752Y-64936666D02*
X95271371Y-64984285D01*
X91508990Y-64436666D02*
X91508990Y-64103333D01*
X90985180Y-64103333D02*
X91985180Y-64103333D01*
X91985180Y-64103333D02*
X91985180Y-64579523D01*
X91985180Y-64865238D02*
X91985180Y-65484285D01*
X91985180Y-65484285D02*
X91604228Y-65150952D01*
X91604228Y-65150952D02*
X91604228Y-65293809D01*
X91604228Y-65293809D02*
X91556609Y-65389047D01*
X91556609Y-65389047D02*
X91508990Y-65436666D01*
X91508990Y-65436666D02*
X91413752Y-65484285D01*
X91413752Y-65484285D02*
X91175657Y-65484285D01*
X91175657Y-65484285D02*
X91080419Y-65436666D01*
X91080419Y-65436666D02*
X91032800Y-65389047D01*
X91032800Y-65389047D02*
X90985180Y-65293809D01*
X90985180Y-65293809D02*
X90985180Y-65008095D01*
X90985180Y-65008095D02*
X91032800Y-64912857D01*
X91032800Y-64912857D02*
X91080419Y-64865238D01*
X116923333Y-113408152D02*
X116923333Y-114074819D01*
X116685238Y-113027200D02*
X116447143Y-113741485D01*
X116447143Y-113741485D02*
X117066190Y-113741485D01*
X117351905Y-113074819D02*
X118018571Y-113074819D01*
X118018571Y-113074819D02*
X117590000Y-114074819D01*
X118828095Y-113408152D02*
X118828095Y-114074819D01*
X118399524Y-113408152D02*
X118399524Y-113931961D01*
X118399524Y-113931961D02*
X118447143Y-114027200D01*
X118447143Y-114027200D02*
X118542381Y-114074819D01*
X118542381Y-114074819D02*
X118685238Y-114074819D01*
X118685238Y-114074819D02*
X118780476Y-114027200D01*
X118780476Y-114027200D02*
X118828095Y-113979580D01*
X119637619Y-113551009D02*
X119304286Y-113551009D01*
X119304286Y-114074819D02*
X119304286Y-113074819D01*
X119304286Y-113074819D02*
X119780476Y-113074819D01*
X117923333Y-109579580D02*
X117875714Y-109627200D01*
X117875714Y-109627200D02*
X117732857Y-109674819D01*
X117732857Y-109674819D02*
X117637619Y-109674819D01*
X117637619Y-109674819D02*
X117494762Y-109627200D01*
X117494762Y-109627200D02*
X117399524Y-109531961D01*
X117399524Y-109531961D02*
X117351905Y-109436723D01*
X117351905Y-109436723D02*
X117304286Y-109246247D01*
X117304286Y-109246247D02*
X117304286Y-109103390D01*
X117304286Y-109103390D02*
X117351905Y-108912914D01*
X117351905Y-108912914D02*
X117399524Y-108817676D01*
X117399524Y-108817676D02*
X117494762Y-108722438D01*
X117494762Y-108722438D02*
X117637619Y-108674819D01*
X117637619Y-108674819D02*
X117732857Y-108674819D01*
X117732857Y-108674819D02*
X117875714Y-108722438D01*
X117875714Y-108722438D02*
X117923333Y-108770057D01*
X118399524Y-109674819D02*
X118590000Y-109674819D01*
X118590000Y-109674819D02*
X118685238Y-109627200D01*
X118685238Y-109627200D02*
X118732857Y-109579580D01*
X118732857Y-109579580D02*
X118828095Y-109436723D01*
X118828095Y-109436723D02*
X118875714Y-109246247D01*
X118875714Y-109246247D02*
X118875714Y-108865295D01*
X118875714Y-108865295D02*
X118828095Y-108770057D01*
X118828095Y-108770057D02*
X118780476Y-108722438D01*
X118780476Y-108722438D02*
X118685238Y-108674819D01*
X118685238Y-108674819D02*
X118494762Y-108674819D01*
X118494762Y-108674819D02*
X118399524Y-108722438D01*
X118399524Y-108722438D02*
X118351905Y-108770057D01*
X118351905Y-108770057D02*
X118304286Y-108865295D01*
X118304286Y-108865295D02*
X118304286Y-109103390D01*
X118304286Y-109103390D02*
X118351905Y-109198628D01*
X118351905Y-109198628D02*
X118399524Y-109246247D01*
X118399524Y-109246247D02*
X118494762Y-109293866D01*
X118494762Y-109293866D02*
X118685238Y-109293866D01*
X118685238Y-109293866D02*
X118780476Y-109246247D01*
X118780476Y-109246247D02*
X118828095Y-109198628D01*
X118828095Y-109198628D02*
X118875714Y-109103390D01*
X75750057Y-71969047D02*
X75702438Y-71921428D01*
X75702438Y-71921428D02*
X75654819Y-71826190D01*
X75654819Y-71826190D02*
X75654819Y-71588095D01*
X75654819Y-71588095D02*
X75702438Y-71492857D01*
X75702438Y-71492857D02*
X75750057Y-71445238D01*
X75750057Y-71445238D02*
X75845295Y-71397619D01*
X75845295Y-71397619D02*
X75940533Y-71397619D01*
X75940533Y-71397619D02*
X76083390Y-71445238D01*
X76083390Y-71445238D02*
X76654819Y-72016666D01*
X76654819Y-72016666D02*
X76654819Y-71397619D01*
X75750057Y-71016666D02*
X75702438Y-70969047D01*
X75702438Y-70969047D02*
X75654819Y-70873809D01*
X75654819Y-70873809D02*
X75654819Y-70635714D01*
X75654819Y-70635714D02*
X75702438Y-70540476D01*
X75702438Y-70540476D02*
X75750057Y-70492857D01*
X75750057Y-70492857D02*
X75845295Y-70445238D01*
X75845295Y-70445238D02*
X75940533Y-70445238D01*
X75940533Y-70445238D02*
X76083390Y-70492857D01*
X76083390Y-70492857D02*
X76654819Y-71064285D01*
X76654819Y-71064285D02*
X76654819Y-70445238D01*
X75988152Y-69254761D02*
X76654819Y-69254761D01*
X76083390Y-69254761D02*
X76035771Y-69207142D01*
X76035771Y-69207142D02*
X75988152Y-69111904D01*
X75988152Y-69111904D02*
X75988152Y-68969047D01*
X75988152Y-68969047D02*
X76035771Y-68873809D01*
X76035771Y-68873809D02*
X76131009Y-68826190D01*
X76131009Y-68826190D02*
X76654819Y-68826190D01*
X76654819Y-68349999D02*
X75654819Y-68349999D01*
X76131009Y-68349999D02*
X76131009Y-67778571D01*
X76654819Y-67778571D02*
X75654819Y-67778571D01*
X76654819Y-73826666D02*
X76654819Y-74302856D01*
X76654819Y-74302856D02*
X75654819Y-74302856D01*
X75750057Y-73540951D02*
X75702438Y-73493332D01*
X75702438Y-73493332D02*
X75654819Y-73398094D01*
X75654819Y-73398094D02*
X75654819Y-73159999D01*
X75654819Y-73159999D02*
X75702438Y-73064761D01*
X75702438Y-73064761D02*
X75750057Y-73017142D01*
X75750057Y-73017142D02*
X75845295Y-72969523D01*
X75845295Y-72969523D02*
X75940533Y-72969523D01*
X75940533Y-72969523D02*
X76083390Y-73017142D01*
X76083390Y-73017142D02*
X76654819Y-73588570D01*
X76654819Y-73588570D02*
X76654819Y-72969523D01*
X117348095Y-67399819D02*
X117348095Y-68209342D01*
X117348095Y-68209342D02*
X117395714Y-68304580D01*
X117395714Y-68304580D02*
X117443333Y-68352200D01*
X117443333Y-68352200D02*
X117538571Y-68399819D01*
X117538571Y-68399819D02*
X117729047Y-68399819D01*
X117729047Y-68399819D02*
X117824285Y-68352200D01*
X117824285Y-68352200D02*
X117871904Y-68304580D01*
X117871904Y-68304580D02*
X117919523Y-68209342D01*
X117919523Y-68209342D02*
X117919523Y-67399819D01*
X118919523Y-68399819D02*
X118348095Y-68399819D01*
X118633809Y-68399819D02*
X118633809Y-67399819D01*
X118633809Y-67399819D02*
X118538571Y-67542676D01*
X118538571Y-67542676D02*
X118443333Y-67637914D01*
X118443333Y-67637914D02*
X118348095Y-67685533D01*
X131534819Y-96218333D02*
X132249104Y-96218333D01*
X132249104Y-96218333D02*
X132391961Y-96265952D01*
X132391961Y-96265952D02*
X132487200Y-96361190D01*
X132487200Y-96361190D02*
X132534819Y-96504047D01*
X132534819Y-96504047D02*
X132534819Y-96599285D01*
X131534819Y-95265952D02*
X131534819Y-95742142D01*
X131534819Y-95742142D02*
X132011009Y-95789761D01*
X132011009Y-95789761D02*
X131963390Y-95742142D01*
X131963390Y-95742142D02*
X131915771Y-95646904D01*
X131915771Y-95646904D02*
X131915771Y-95408809D01*
X131915771Y-95408809D02*
X131963390Y-95313571D01*
X131963390Y-95313571D02*
X132011009Y-95265952D01*
X132011009Y-95265952D02*
X132106247Y-95218333D01*
X132106247Y-95218333D02*
X132344342Y-95218333D01*
X132344342Y-95218333D02*
X132439580Y-95265952D01*
X132439580Y-95265952D02*
X132487200Y-95313571D01*
X132487200Y-95313571D02*
X132534819Y-95408809D01*
X132534819Y-95408809D02*
X132534819Y-95646904D01*
X132534819Y-95646904D02*
X132487200Y-95742142D01*
X132487200Y-95742142D02*
X132439580Y-95789761D01*
X134074819Y-109553333D02*
X134789104Y-109553333D01*
X134789104Y-109553333D02*
X134931961Y-109600952D01*
X134931961Y-109600952D02*
X135027200Y-109696190D01*
X135027200Y-109696190D02*
X135074819Y-109839047D01*
X135074819Y-109839047D02*
X135074819Y-109934285D01*
X134074819Y-108648571D02*
X134074819Y-108839047D01*
X134074819Y-108839047D02*
X134122438Y-108934285D01*
X134122438Y-108934285D02*
X134170057Y-108981904D01*
X134170057Y-108981904D02*
X134312914Y-109077142D01*
X134312914Y-109077142D02*
X134503390Y-109124761D01*
X134503390Y-109124761D02*
X134884342Y-109124761D01*
X134884342Y-109124761D02*
X134979580Y-109077142D01*
X134979580Y-109077142D02*
X135027200Y-109029523D01*
X135027200Y-109029523D02*
X135074819Y-108934285D01*
X135074819Y-108934285D02*
X135074819Y-108743809D01*
X135074819Y-108743809D02*
X135027200Y-108648571D01*
X135027200Y-108648571D02*
X134979580Y-108600952D01*
X134979580Y-108600952D02*
X134884342Y-108553333D01*
X134884342Y-108553333D02*
X134646247Y-108553333D01*
X134646247Y-108553333D02*
X134551009Y-108600952D01*
X134551009Y-108600952D02*
X134503390Y-108648571D01*
X134503390Y-108648571D02*
X134455771Y-108743809D01*
X134455771Y-108743809D02*
X134455771Y-108934285D01*
X134455771Y-108934285D02*
X134503390Y-109029523D01*
X134503390Y-109029523D02*
X134551009Y-109077142D01*
X134551009Y-109077142D02*
X134646247Y-109124761D01*
X96464523Y-67214819D02*
X95893095Y-67214819D01*
X96178809Y-67214819D02*
X96178809Y-66214819D01*
X96178809Y-66214819D02*
X96083571Y-66357676D01*
X96083571Y-66357676D02*
X95988333Y-66452914D01*
X95988333Y-66452914D02*
X95893095Y-66500533D01*
X97083571Y-66214819D02*
X97178809Y-66214819D01*
X97178809Y-66214819D02*
X97274047Y-66262438D01*
X97274047Y-66262438D02*
X97321666Y-66310057D01*
X97321666Y-66310057D02*
X97369285Y-66405295D01*
X97369285Y-66405295D02*
X97416904Y-66595771D01*
X97416904Y-66595771D02*
X97416904Y-66833866D01*
X97416904Y-66833866D02*
X97369285Y-67024342D01*
X97369285Y-67024342D02*
X97321666Y-67119580D01*
X97321666Y-67119580D02*
X97274047Y-67167200D01*
X97274047Y-67167200D02*
X97178809Y-67214819D01*
X97178809Y-67214819D02*
X97083571Y-67214819D01*
X97083571Y-67214819D02*
X96988333Y-67167200D01*
X96988333Y-67167200D02*
X96940714Y-67119580D01*
X96940714Y-67119580D02*
X96893095Y-67024342D01*
X96893095Y-67024342D02*
X96845476Y-66833866D01*
X96845476Y-66833866D02*
X96845476Y-66595771D01*
X96845476Y-66595771D02*
X96893095Y-66405295D01*
X96893095Y-66405295D02*
X96940714Y-66310057D01*
X96940714Y-66310057D02*
X96988333Y-66262438D01*
X96988333Y-66262438D02*
X97083571Y-66214819D01*
X97845476Y-67214819D02*
X97845476Y-66214819D01*
X98416904Y-67214819D02*
X97988333Y-66643390D01*
X98416904Y-66214819D02*
X97845476Y-66786247D01*
D11*
X97021667Y-68943855D02*
X96755000Y-68562902D01*
X96564524Y-68943855D02*
X96564524Y-68143855D01*
X96564524Y-68143855D02*
X96869286Y-68143855D01*
X96869286Y-68143855D02*
X96945476Y-68181950D01*
X96945476Y-68181950D02*
X96983571Y-68220045D01*
X96983571Y-68220045D02*
X97021667Y-68296236D01*
X97021667Y-68296236D02*
X97021667Y-68410521D01*
X97021667Y-68410521D02*
X96983571Y-68486712D01*
X96983571Y-68486712D02*
X96945476Y-68524807D01*
X96945476Y-68524807D02*
X96869286Y-68562902D01*
X96869286Y-68562902D02*
X96564524Y-68562902D01*
X97326428Y-68220045D02*
X97364524Y-68181950D01*
X97364524Y-68181950D02*
X97440714Y-68143855D01*
X97440714Y-68143855D02*
X97631190Y-68143855D01*
X97631190Y-68143855D02*
X97707381Y-68181950D01*
X97707381Y-68181950D02*
X97745476Y-68220045D01*
X97745476Y-68220045D02*
X97783571Y-68296236D01*
X97783571Y-68296236D02*
X97783571Y-68372426D01*
X97783571Y-68372426D02*
X97745476Y-68486712D01*
X97745476Y-68486712D02*
X97288333Y-68943855D01*
X97288333Y-68943855D02*
X97783571Y-68943855D01*
D10*
X76708095Y-108039819D02*
X76708095Y-108849342D01*
X76708095Y-108849342D02*
X76755714Y-108944580D01*
X76755714Y-108944580D02*
X76803333Y-108992200D01*
X76803333Y-108992200D02*
X76898571Y-109039819D01*
X76898571Y-109039819D02*
X77089047Y-109039819D01*
X77089047Y-109039819D02*
X77184285Y-108992200D01*
X77184285Y-108992200D02*
X77231904Y-108944580D01*
X77231904Y-108944580D02*
X77279523Y-108849342D01*
X77279523Y-108849342D02*
X77279523Y-108039819D01*
X78184285Y-108373152D02*
X78184285Y-109039819D01*
X77946190Y-107992200D02*
X77708095Y-108706485D01*
X77708095Y-108706485D02*
X78327142Y-108706485D01*
X121104819Y-58902619D02*
X121104819Y-59474047D01*
X121104819Y-59188333D02*
X120104819Y-59188333D01*
X120104819Y-59188333D02*
X120247676Y-59283571D01*
X120247676Y-59283571D02*
X120342914Y-59378809D01*
X120342914Y-59378809D02*
X120390533Y-59474047D01*
X120104819Y-58283571D02*
X120104819Y-58188333D01*
X120104819Y-58188333D02*
X120152438Y-58093095D01*
X120152438Y-58093095D02*
X120200057Y-58045476D01*
X120200057Y-58045476D02*
X120295295Y-57997857D01*
X120295295Y-57997857D02*
X120485771Y-57950238D01*
X120485771Y-57950238D02*
X120723866Y-57950238D01*
X120723866Y-57950238D02*
X120914342Y-57997857D01*
X120914342Y-57997857D02*
X121009580Y-58045476D01*
X121009580Y-58045476D02*
X121057200Y-58093095D01*
X121057200Y-58093095D02*
X121104819Y-58188333D01*
X121104819Y-58188333D02*
X121104819Y-58283571D01*
X121104819Y-58283571D02*
X121057200Y-58378809D01*
X121057200Y-58378809D02*
X121009580Y-58426428D01*
X121009580Y-58426428D02*
X120914342Y-58474047D01*
X120914342Y-58474047D02*
X120723866Y-58521666D01*
X120723866Y-58521666D02*
X120485771Y-58521666D01*
X120485771Y-58521666D02*
X120295295Y-58474047D01*
X120295295Y-58474047D02*
X120200057Y-58426428D01*
X120200057Y-58426428D02*
X120152438Y-58378809D01*
X120152438Y-58378809D02*
X120104819Y-58283571D01*
X120104819Y-57331190D02*
X120104819Y-57235952D01*
X120104819Y-57235952D02*
X120152438Y-57140714D01*
X120152438Y-57140714D02*
X120200057Y-57093095D01*
X120200057Y-57093095D02*
X120295295Y-57045476D01*
X120295295Y-57045476D02*
X120485771Y-56997857D01*
X120485771Y-56997857D02*
X120723866Y-56997857D01*
X120723866Y-56997857D02*
X120914342Y-57045476D01*
X120914342Y-57045476D02*
X121009580Y-57093095D01*
X121009580Y-57093095D02*
X121057200Y-57140714D01*
X121057200Y-57140714D02*
X121104819Y-57235952D01*
X121104819Y-57235952D02*
X121104819Y-57331190D01*
X121104819Y-57331190D02*
X121057200Y-57426428D01*
X121057200Y-57426428D02*
X121009580Y-57474047D01*
X121009580Y-57474047D02*
X120914342Y-57521666D01*
X120914342Y-57521666D02*
X120723866Y-57569285D01*
X120723866Y-57569285D02*
X120485771Y-57569285D01*
X120485771Y-57569285D02*
X120295295Y-57521666D01*
X120295295Y-57521666D02*
X120200057Y-57474047D01*
X120200057Y-57474047D02*
X120152438Y-57426428D01*
X120152438Y-57426428D02*
X120104819Y-57331190D01*
X120438152Y-56569285D02*
X121104819Y-56569285D01*
X120533390Y-56569285D02*
X120485771Y-56521666D01*
X120485771Y-56521666D02*
X120438152Y-56426428D01*
X120438152Y-56426428D02*
X120438152Y-56283571D01*
X120438152Y-56283571D02*
X120485771Y-56188333D01*
X120485771Y-56188333D02*
X120581009Y-56140714D01*
X120581009Y-56140714D02*
X121104819Y-56140714D01*
X120581009Y-55331190D02*
X120581009Y-55664523D01*
X121104819Y-55664523D02*
X120104819Y-55664523D01*
X120104819Y-55664523D02*
X120104819Y-55188333D01*
D11*
X120937664Y-61503332D02*
X120975760Y-61541428D01*
X120975760Y-61541428D02*
X121013855Y-61655713D01*
X121013855Y-61655713D02*
X121013855Y-61731904D01*
X121013855Y-61731904D02*
X120975760Y-61846190D01*
X120975760Y-61846190D02*
X120899569Y-61922380D01*
X120899569Y-61922380D02*
X120823379Y-61960475D01*
X120823379Y-61960475D02*
X120670998Y-61998571D01*
X120670998Y-61998571D02*
X120556712Y-61998571D01*
X120556712Y-61998571D02*
X120404331Y-61960475D01*
X120404331Y-61960475D02*
X120328140Y-61922380D01*
X120328140Y-61922380D02*
X120251950Y-61846190D01*
X120251950Y-61846190D02*
X120213855Y-61731904D01*
X120213855Y-61731904D02*
X120213855Y-61655713D01*
X120213855Y-61655713D02*
X120251950Y-61541428D01*
X120251950Y-61541428D02*
X120290045Y-61503332D01*
X120556712Y-61046190D02*
X120518617Y-61122380D01*
X120518617Y-61122380D02*
X120480521Y-61160475D01*
X120480521Y-61160475D02*
X120404331Y-61198571D01*
X120404331Y-61198571D02*
X120366236Y-61198571D01*
X120366236Y-61198571D02*
X120290045Y-61160475D01*
X120290045Y-61160475D02*
X120251950Y-61122380D01*
X120251950Y-61122380D02*
X120213855Y-61046190D01*
X120213855Y-61046190D02*
X120213855Y-60893809D01*
X120213855Y-60893809D02*
X120251950Y-60817618D01*
X120251950Y-60817618D02*
X120290045Y-60779523D01*
X120290045Y-60779523D02*
X120366236Y-60741428D01*
X120366236Y-60741428D02*
X120404331Y-60741428D01*
X120404331Y-60741428D02*
X120480521Y-60779523D01*
X120480521Y-60779523D02*
X120518617Y-60817618D01*
X120518617Y-60817618D02*
X120556712Y-60893809D01*
X120556712Y-60893809D02*
X120556712Y-61046190D01*
X120556712Y-61046190D02*
X120594807Y-61122380D01*
X120594807Y-61122380D02*
X120632902Y-61160475D01*
X120632902Y-61160475D02*
X120709093Y-61198571D01*
X120709093Y-61198571D02*
X120861474Y-61198571D01*
X120861474Y-61198571D02*
X120937664Y-61160475D01*
X120937664Y-61160475D02*
X120975760Y-61122380D01*
X120975760Y-61122380D02*
X121013855Y-61046190D01*
X121013855Y-61046190D02*
X121013855Y-60893809D01*
X121013855Y-60893809D02*
X120975760Y-60817618D01*
X120975760Y-60817618D02*
X120937664Y-60779523D01*
X120937664Y-60779523D02*
X120861474Y-60741428D01*
X120861474Y-60741428D02*
X120709093Y-60741428D01*
X120709093Y-60741428D02*
X120632902Y-60779523D01*
X120632902Y-60779523D02*
X120594807Y-60817618D01*
X120594807Y-60817618D02*
X120556712Y-60893809D01*
D10*
X95154819Y-88512976D02*
X95154819Y-89084404D01*
X95154819Y-88798690D02*
X94154819Y-88798690D01*
X94154819Y-88798690D02*
X94297676Y-88893928D01*
X94297676Y-88893928D02*
X94392914Y-88989166D01*
X94392914Y-88989166D02*
X94440533Y-89084404D01*
X94154819Y-87893928D02*
X94154819Y-87798690D01*
X94154819Y-87798690D02*
X94202438Y-87703452D01*
X94202438Y-87703452D02*
X94250057Y-87655833D01*
X94250057Y-87655833D02*
X94345295Y-87608214D01*
X94345295Y-87608214D02*
X94535771Y-87560595D01*
X94535771Y-87560595D02*
X94773866Y-87560595D01*
X94773866Y-87560595D02*
X94964342Y-87608214D01*
X94964342Y-87608214D02*
X95059580Y-87655833D01*
X95059580Y-87655833D02*
X95107200Y-87703452D01*
X95107200Y-87703452D02*
X95154819Y-87798690D01*
X95154819Y-87798690D02*
X95154819Y-87893928D01*
X95154819Y-87893928D02*
X95107200Y-87989166D01*
X95107200Y-87989166D02*
X95059580Y-88036785D01*
X95059580Y-88036785D02*
X94964342Y-88084404D01*
X94964342Y-88084404D02*
X94773866Y-88132023D01*
X94773866Y-88132023D02*
X94535771Y-88132023D01*
X94535771Y-88132023D02*
X94345295Y-88084404D01*
X94345295Y-88084404D02*
X94250057Y-88036785D01*
X94250057Y-88036785D02*
X94202438Y-87989166D01*
X94202438Y-87989166D02*
X94154819Y-87893928D01*
X95154819Y-87132023D02*
X94154819Y-87132023D01*
X95154819Y-86560595D02*
X94583390Y-86989166D01*
X94154819Y-86560595D02*
X94726247Y-87132023D01*
D11*
X96883855Y-87955832D02*
X96502902Y-88222499D01*
X96883855Y-88412975D02*
X96083855Y-88412975D01*
X96083855Y-88412975D02*
X96083855Y-88108213D01*
X96083855Y-88108213D02*
X96121950Y-88032023D01*
X96121950Y-88032023D02*
X96160045Y-87993928D01*
X96160045Y-87993928D02*
X96236236Y-87955832D01*
X96236236Y-87955832D02*
X96350521Y-87955832D01*
X96350521Y-87955832D02*
X96426712Y-87993928D01*
X96426712Y-87993928D02*
X96464807Y-88032023D01*
X96464807Y-88032023D02*
X96502902Y-88108213D01*
X96502902Y-88108213D02*
X96502902Y-88412975D01*
X96883855Y-87193928D02*
X96883855Y-87651071D01*
X96883855Y-87422499D02*
X96083855Y-87422499D01*
X96083855Y-87422499D02*
X96198140Y-87498690D01*
X96198140Y-87498690D02*
X96274331Y-87574880D01*
X96274331Y-87574880D02*
X96312426Y-87651071D01*
D10*
X96394819Y-118387619D02*
X96394819Y-118959047D01*
X96394819Y-118673333D02*
X95394819Y-118673333D01*
X95394819Y-118673333D02*
X95537676Y-118768571D01*
X95537676Y-118768571D02*
X95632914Y-118863809D01*
X95632914Y-118863809D02*
X95680533Y-118959047D01*
X95394819Y-117768571D02*
X95394819Y-117673333D01*
X95394819Y-117673333D02*
X95442438Y-117578095D01*
X95442438Y-117578095D02*
X95490057Y-117530476D01*
X95490057Y-117530476D02*
X95585295Y-117482857D01*
X95585295Y-117482857D02*
X95775771Y-117435238D01*
X95775771Y-117435238D02*
X96013866Y-117435238D01*
X96013866Y-117435238D02*
X96204342Y-117482857D01*
X96204342Y-117482857D02*
X96299580Y-117530476D01*
X96299580Y-117530476D02*
X96347200Y-117578095D01*
X96347200Y-117578095D02*
X96394819Y-117673333D01*
X96394819Y-117673333D02*
X96394819Y-117768571D01*
X96394819Y-117768571D02*
X96347200Y-117863809D01*
X96347200Y-117863809D02*
X96299580Y-117911428D01*
X96299580Y-117911428D02*
X96204342Y-117959047D01*
X96204342Y-117959047D02*
X96013866Y-118006666D01*
X96013866Y-118006666D02*
X95775771Y-118006666D01*
X95775771Y-118006666D02*
X95585295Y-117959047D01*
X95585295Y-117959047D02*
X95490057Y-117911428D01*
X95490057Y-117911428D02*
X95442438Y-117863809D01*
X95442438Y-117863809D02*
X95394819Y-117768571D01*
X95394819Y-116816190D02*
X95394819Y-116720952D01*
X95394819Y-116720952D02*
X95442438Y-116625714D01*
X95442438Y-116625714D02*
X95490057Y-116578095D01*
X95490057Y-116578095D02*
X95585295Y-116530476D01*
X95585295Y-116530476D02*
X95775771Y-116482857D01*
X95775771Y-116482857D02*
X96013866Y-116482857D01*
X96013866Y-116482857D02*
X96204342Y-116530476D01*
X96204342Y-116530476D02*
X96299580Y-116578095D01*
X96299580Y-116578095D02*
X96347200Y-116625714D01*
X96347200Y-116625714D02*
X96394819Y-116720952D01*
X96394819Y-116720952D02*
X96394819Y-116816190D01*
X96394819Y-116816190D02*
X96347200Y-116911428D01*
X96347200Y-116911428D02*
X96299580Y-116959047D01*
X96299580Y-116959047D02*
X96204342Y-117006666D01*
X96204342Y-117006666D02*
X96013866Y-117054285D01*
X96013866Y-117054285D02*
X95775771Y-117054285D01*
X95775771Y-117054285D02*
X95585295Y-117006666D01*
X95585295Y-117006666D02*
X95490057Y-116959047D01*
X95490057Y-116959047D02*
X95442438Y-116911428D01*
X95442438Y-116911428D02*
X95394819Y-116816190D01*
X95728152Y-116054285D02*
X96394819Y-116054285D01*
X95823390Y-116054285D02*
X95775771Y-116006666D01*
X95775771Y-116006666D02*
X95728152Y-115911428D01*
X95728152Y-115911428D02*
X95728152Y-115768571D01*
X95728152Y-115768571D02*
X95775771Y-115673333D01*
X95775771Y-115673333D02*
X95871009Y-115625714D01*
X95871009Y-115625714D02*
X96394819Y-115625714D01*
X95871009Y-114816190D02*
X95871009Y-115149523D01*
X96394819Y-115149523D02*
X95394819Y-115149523D01*
X95394819Y-115149523D02*
X95394819Y-114673333D01*
D11*
X98077664Y-117354285D02*
X98115760Y-117392381D01*
X98115760Y-117392381D02*
X98153855Y-117506666D01*
X98153855Y-117506666D02*
X98153855Y-117582857D01*
X98153855Y-117582857D02*
X98115760Y-117697143D01*
X98115760Y-117697143D02*
X98039569Y-117773333D01*
X98039569Y-117773333D02*
X97963379Y-117811428D01*
X97963379Y-117811428D02*
X97810998Y-117849524D01*
X97810998Y-117849524D02*
X97696712Y-117849524D01*
X97696712Y-117849524D02*
X97544331Y-117811428D01*
X97544331Y-117811428D02*
X97468140Y-117773333D01*
X97468140Y-117773333D02*
X97391950Y-117697143D01*
X97391950Y-117697143D02*
X97353855Y-117582857D01*
X97353855Y-117582857D02*
X97353855Y-117506666D01*
X97353855Y-117506666D02*
X97391950Y-117392381D01*
X97391950Y-117392381D02*
X97430045Y-117354285D01*
X98153855Y-116592381D02*
X98153855Y-117049524D01*
X98153855Y-116820952D02*
X97353855Y-116820952D01*
X97353855Y-116820952D02*
X97468140Y-116897143D01*
X97468140Y-116897143D02*
X97544331Y-116973333D01*
X97544331Y-116973333D02*
X97582426Y-117049524D01*
X97353855Y-116097142D02*
X97353855Y-116020952D01*
X97353855Y-116020952D02*
X97391950Y-115944761D01*
X97391950Y-115944761D02*
X97430045Y-115906666D01*
X97430045Y-115906666D02*
X97506236Y-115868571D01*
X97506236Y-115868571D02*
X97658617Y-115830476D01*
X97658617Y-115830476D02*
X97849093Y-115830476D01*
X97849093Y-115830476D02*
X98001474Y-115868571D01*
X98001474Y-115868571D02*
X98077664Y-115906666D01*
X98077664Y-115906666D02*
X98115760Y-115944761D01*
X98115760Y-115944761D02*
X98153855Y-116020952D01*
X98153855Y-116020952D02*
X98153855Y-116097142D01*
X98153855Y-116097142D02*
X98115760Y-116173333D01*
X98115760Y-116173333D02*
X98077664Y-116211428D01*
X98077664Y-116211428D02*
X98001474Y-116249523D01*
X98001474Y-116249523D02*
X97849093Y-116287619D01*
X97849093Y-116287619D02*
X97658617Y-116287619D01*
X97658617Y-116287619D02*
X97506236Y-116249523D01*
X97506236Y-116249523D02*
X97430045Y-116211428D01*
X97430045Y-116211428D02*
X97391950Y-116173333D01*
X97391950Y-116173333D02*
X97353855Y-116097142D01*
D10*
X100203095Y-59779819D02*
X100203095Y-60589342D01*
X100203095Y-60589342D02*
X100250714Y-60684580D01*
X100250714Y-60684580D02*
X100298333Y-60732200D01*
X100298333Y-60732200D02*
X100393571Y-60779819D01*
X100393571Y-60779819D02*
X100584047Y-60779819D01*
X100584047Y-60779819D02*
X100679285Y-60732200D01*
X100679285Y-60732200D02*
X100726904Y-60684580D01*
X100726904Y-60684580D02*
X100774523Y-60589342D01*
X100774523Y-60589342D02*
X100774523Y-59779819D01*
X101203095Y-59875057D02*
X101250714Y-59827438D01*
X101250714Y-59827438D02*
X101345952Y-59779819D01*
X101345952Y-59779819D02*
X101584047Y-59779819D01*
X101584047Y-59779819D02*
X101679285Y-59827438D01*
X101679285Y-59827438D02*
X101726904Y-59875057D01*
X101726904Y-59875057D02*
X101774523Y-59970295D01*
X101774523Y-59970295D02*
X101774523Y-60065533D01*
X101774523Y-60065533D02*
X101726904Y-60208390D01*
X101726904Y-60208390D02*
X101155476Y-60779819D01*
X101155476Y-60779819D02*
X101774523Y-60779819D01*
X70600057Y-71969047D02*
X70552438Y-71921428D01*
X70552438Y-71921428D02*
X70504819Y-71826190D01*
X70504819Y-71826190D02*
X70504819Y-71588095D01*
X70504819Y-71588095D02*
X70552438Y-71492857D01*
X70552438Y-71492857D02*
X70600057Y-71445238D01*
X70600057Y-71445238D02*
X70695295Y-71397619D01*
X70695295Y-71397619D02*
X70790533Y-71397619D01*
X70790533Y-71397619D02*
X70933390Y-71445238D01*
X70933390Y-71445238D02*
X71504819Y-72016666D01*
X71504819Y-72016666D02*
X71504819Y-71397619D01*
X70600057Y-71016666D02*
X70552438Y-70969047D01*
X70552438Y-70969047D02*
X70504819Y-70873809D01*
X70504819Y-70873809D02*
X70504819Y-70635714D01*
X70504819Y-70635714D02*
X70552438Y-70540476D01*
X70552438Y-70540476D02*
X70600057Y-70492857D01*
X70600057Y-70492857D02*
X70695295Y-70445238D01*
X70695295Y-70445238D02*
X70790533Y-70445238D01*
X70790533Y-70445238D02*
X70933390Y-70492857D01*
X70933390Y-70492857D02*
X71504819Y-71064285D01*
X71504819Y-71064285D02*
X71504819Y-70445238D01*
X70838152Y-69254761D02*
X71504819Y-69254761D01*
X70933390Y-69254761D02*
X70885771Y-69207142D01*
X70885771Y-69207142D02*
X70838152Y-69111904D01*
X70838152Y-69111904D02*
X70838152Y-68969047D01*
X70838152Y-68969047D02*
X70885771Y-68873809D01*
X70885771Y-68873809D02*
X70981009Y-68826190D01*
X70981009Y-68826190D02*
X71504819Y-68826190D01*
X71504819Y-68349999D02*
X70504819Y-68349999D01*
X70981009Y-68349999D02*
X70981009Y-67778571D01*
X71504819Y-67778571D02*
X70504819Y-67778571D01*
X71574819Y-73826666D02*
X71574819Y-74302856D01*
X71574819Y-74302856D02*
X70574819Y-74302856D01*
X71574819Y-72969523D02*
X71574819Y-73540951D01*
X71574819Y-73255237D02*
X70574819Y-73255237D01*
X70574819Y-73255237D02*
X70717676Y-73350475D01*
X70717676Y-73350475D02*
X70812914Y-73445713D01*
X70812914Y-73445713D02*
X70860533Y-73540951D01*
X108108571Y-77614819D02*
X107537143Y-77614819D01*
X107822857Y-77614819D02*
X107822857Y-76614819D01*
X107822857Y-76614819D02*
X107727619Y-76757676D01*
X107727619Y-76757676D02*
X107632381Y-76852914D01*
X107632381Y-76852914D02*
X107537143Y-76900533D01*
X108727619Y-76614819D02*
X108822857Y-76614819D01*
X108822857Y-76614819D02*
X108918095Y-76662438D01*
X108918095Y-76662438D02*
X108965714Y-76710057D01*
X108965714Y-76710057D02*
X109013333Y-76805295D01*
X109013333Y-76805295D02*
X109060952Y-76995771D01*
X109060952Y-76995771D02*
X109060952Y-77233866D01*
X109060952Y-77233866D02*
X109013333Y-77424342D01*
X109013333Y-77424342D02*
X108965714Y-77519580D01*
X108965714Y-77519580D02*
X108918095Y-77567200D01*
X108918095Y-77567200D02*
X108822857Y-77614819D01*
X108822857Y-77614819D02*
X108727619Y-77614819D01*
X108727619Y-77614819D02*
X108632381Y-77567200D01*
X108632381Y-77567200D02*
X108584762Y-77519580D01*
X108584762Y-77519580D02*
X108537143Y-77424342D01*
X108537143Y-77424342D02*
X108489524Y-77233866D01*
X108489524Y-77233866D02*
X108489524Y-76995771D01*
X108489524Y-76995771D02*
X108537143Y-76805295D01*
X108537143Y-76805295D02*
X108584762Y-76710057D01*
X108584762Y-76710057D02*
X108632381Y-76662438D01*
X108632381Y-76662438D02*
X108727619Y-76614819D01*
X109918095Y-76948152D02*
X109918095Y-77614819D01*
X109489524Y-76948152D02*
X109489524Y-77471961D01*
X109489524Y-77471961D02*
X109537143Y-77567200D01*
X109537143Y-77567200D02*
X109632381Y-77614819D01*
X109632381Y-77614819D02*
X109775238Y-77614819D01*
X109775238Y-77614819D02*
X109870476Y-77567200D01*
X109870476Y-77567200D02*
X109918095Y-77519580D01*
X110727619Y-77091009D02*
X110394286Y-77091009D01*
X110394286Y-77614819D02*
X110394286Y-76614819D01*
X110394286Y-76614819D02*
X110870476Y-76614819D01*
D12*
X109030000Y-73983622D02*
X108987143Y-74026480D01*
X108987143Y-74026480D02*
X108858571Y-74069337D01*
X108858571Y-74069337D02*
X108772857Y-74069337D01*
X108772857Y-74069337D02*
X108644286Y-74026480D01*
X108644286Y-74026480D02*
X108558571Y-73940765D01*
X108558571Y-73940765D02*
X108515714Y-73855051D01*
X108515714Y-73855051D02*
X108472857Y-73683622D01*
X108472857Y-73683622D02*
X108472857Y-73555051D01*
X108472857Y-73555051D02*
X108515714Y-73383622D01*
X108515714Y-73383622D02*
X108558571Y-73297908D01*
X108558571Y-73297908D02*
X108644286Y-73212194D01*
X108644286Y-73212194D02*
X108772857Y-73169337D01*
X108772857Y-73169337D02*
X108858571Y-73169337D01*
X108858571Y-73169337D02*
X108987143Y-73212194D01*
X108987143Y-73212194D02*
X109030000Y-73255051D01*
X109372857Y-73255051D02*
X109415714Y-73212194D01*
X109415714Y-73212194D02*
X109501429Y-73169337D01*
X109501429Y-73169337D02*
X109715714Y-73169337D01*
X109715714Y-73169337D02*
X109801429Y-73212194D01*
X109801429Y-73212194D02*
X109844286Y-73255051D01*
X109844286Y-73255051D02*
X109887143Y-73340765D01*
X109887143Y-73340765D02*
X109887143Y-73426480D01*
X109887143Y-73426480D02*
X109844286Y-73555051D01*
X109844286Y-73555051D02*
X109330000Y-74069337D01*
X109330000Y-74069337D02*
X109887143Y-74069337D01*
D10*
X114226133Y-102608095D02*
X114273752Y-102655714D01*
X114273752Y-102655714D02*
X114321371Y-102750952D01*
X114321371Y-102750952D02*
X114226133Y-102941428D01*
X114226133Y-102941428D02*
X114273752Y-103036666D01*
X114273752Y-103036666D02*
X114321371Y-103084285D01*
X110558990Y-102536666D02*
X110558990Y-102203333D01*
X110035180Y-102203333D02*
X111035180Y-102203333D01*
X111035180Y-102203333D02*
X111035180Y-102679523D01*
X110035180Y-103584285D02*
X110035180Y-103012857D01*
X110035180Y-103298571D02*
X111035180Y-103298571D01*
X111035180Y-103298571D02*
X110892323Y-103203333D01*
X110892323Y-103203333D02*
X110797085Y-103108095D01*
X110797085Y-103108095D02*
X110749466Y-103012857D01*
X88103333Y-86699580D02*
X88055714Y-86747200D01*
X88055714Y-86747200D02*
X87912857Y-86794819D01*
X87912857Y-86794819D02*
X87817619Y-86794819D01*
X87817619Y-86794819D02*
X87674762Y-86747200D01*
X87674762Y-86747200D02*
X87579524Y-86651961D01*
X87579524Y-86651961D02*
X87531905Y-86556723D01*
X87531905Y-86556723D02*
X87484286Y-86366247D01*
X87484286Y-86366247D02*
X87484286Y-86223390D01*
X87484286Y-86223390D02*
X87531905Y-86032914D01*
X87531905Y-86032914D02*
X87579524Y-85937676D01*
X87579524Y-85937676D02*
X87674762Y-85842438D01*
X87674762Y-85842438D02*
X87817619Y-85794819D01*
X87817619Y-85794819D02*
X87912857Y-85794819D01*
X87912857Y-85794819D02*
X88055714Y-85842438D01*
X88055714Y-85842438D02*
X88103333Y-85890057D01*
X88436667Y-85794819D02*
X89055714Y-85794819D01*
X89055714Y-85794819D02*
X88722381Y-86175771D01*
X88722381Y-86175771D02*
X88865238Y-86175771D01*
X88865238Y-86175771D02*
X88960476Y-86223390D01*
X88960476Y-86223390D02*
X89008095Y-86271009D01*
X89008095Y-86271009D02*
X89055714Y-86366247D01*
X89055714Y-86366247D02*
X89055714Y-86604342D01*
X89055714Y-86604342D02*
X89008095Y-86699580D01*
X89008095Y-86699580D02*
X88960476Y-86747200D01*
X88960476Y-86747200D02*
X88865238Y-86794819D01*
X88865238Y-86794819D02*
X88579524Y-86794819D01*
X88579524Y-86794819D02*
X88484286Y-86747200D01*
X88484286Y-86747200D02*
X88436667Y-86699580D01*
D13*
%TO.C,C6*%
X93180000Y-98525000D02*
X94780000Y-98525000D01*
X93180000Y-101725000D02*
X93180000Y-98525000D01*
X94780000Y-98525000D02*
X94780000Y-101725000D01*
X94780000Y-101725000D02*
X93180000Y-101725000D01*
%TO.C,C11*%
X98730000Y-62700000D02*
X101930000Y-62700000D01*
X98730000Y-64300000D02*
X98730000Y-62700000D01*
X101930000Y-62700000D02*
X101930000Y-64300000D01*
X101930000Y-64300000D02*
X98730000Y-64300000D01*
%TO.C,J1*%
X82630000Y-48320000D02*
X82630000Y-55820000D01*
X82630000Y-55820000D02*
X92630000Y-55820000D01*
X92580000Y-49520000D02*
X82680000Y-49520000D01*
X92630000Y-48320000D02*
X82630000Y-48320000D01*
X92630000Y-55820000D02*
X92630000Y-48320000D01*
%TO.C,J2*%
X63170000Y-63610000D02*
X63170000Y-66110000D01*
X63170000Y-66110000D02*
X65670000Y-66110000D01*
X63580000Y-61900000D02*
X63580000Y-65700000D01*
X63580000Y-65700000D02*
X71080000Y-65700000D01*
X71080000Y-61900000D02*
X63580000Y-61900000D01*
X71080000Y-65700000D02*
X71080000Y-61900000D01*
%TO.C,C4*%
X84290000Y-92175000D02*
X85890000Y-92175000D01*
X84290000Y-95375000D02*
X84290000Y-92175000D01*
X85890000Y-92175000D02*
X85890000Y-95375000D01*
X85890000Y-95375000D02*
X84290000Y-95375000D01*
%TO.C,R3*%
X94727500Y-80480000D02*
X97927500Y-80480000D01*
X94727500Y-82080000D02*
X94727500Y-80480000D01*
X97927500Y-80480000D02*
X97927500Y-82080000D01*
X97927500Y-82080000D02*
X94727500Y-82080000D01*
%TO.C,J3*%
X75870000Y-63610000D02*
X75870000Y-66110000D01*
X75870000Y-66110000D02*
X78370000Y-66110000D01*
X76280000Y-61900000D02*
X76280000Y-65700000D01*
X76280000Y-65700000D02*
X83780000Y-65700000D01*
X83780000Y-61900000D02*
X76280000Y-61900000D01*
X83780000Y-65700000D02*
X83780000Y-61900000D01*
%TO.C,C12*%
X96990000Y-73330000D02*
X98590000Y-73330000D01*
X96990000Y-76530000D02*
X96990000Y-73330000D01*
X98590000Y-73330000D02*
X98590000Y-76530000D01*
X98590000Y-76530000D02*
X96990000Y-76530000D01*
%TO.C,C7*%
X99537500Y-49163241D02*
X99537500Y-49963241D01*
X99937500Y-49563241D02*
X99137500Y-49563241D01*
X101790000Y-52590000D02*
G75*
G02*
X93790000Y-52590000I-4000000J0D01*
G01*
X93790000Y-52590000D02*
G75*
G02*
X101790000Y-52590000I4000000J0D01*
G01*
%TO.C,C5*%
X70701500Y-102728972D02*
X71331500Y-102728972D01*
X71016500Y-103043972D02*
X71016500Y-102413972D01*
X75540000Y-100350000D02*
G75*
G02*
X69240000Y-100350000I-3150000J0D01*
G01*
X69240000Y-100350000D02*
G75*
G02*
X75540000Y-100350000I3150000J0D01*
G01*
%TO.C,J4*%
X103890000Y-50910000D02*
X103890000Y-53410000D01*
X103890000Y-53410000D02*
X106390000Y-53410000D01*
X104300000Y-49200000D02*
X104300000Y-53000000D01*
X104300000Y-53000000D02*
X119300000Y-53000000D01*
X119300000Y-49200000D02*
X104300000Y-49200000D01*
X119300000Y-53000000D02*
X119300000Y-49200000D01*
%TO.C,C1*%
X85130000Y-74950000D02*
X85130000Y-77450000D01*
X85130000Y-77450000D02*
X90130000Y-77450000D01*
X90130000Y-74950000D02*
X85130000Y-74950000D01*
X90130000Y-77450000D02*
X90130000Y-74950000D01*
%TO.C,C9*%
X115396028Y-107846500D02*
X116026028Y-107846500D01*
X115711028Y-107531500D02*
X115711028Y-108161500D01*
X121240000Y-109220000D02*
G75*
G02*
X114940000Y-109220000I-3150000J0D01*
G01*
X114940000Y-109220000D02*
G75*
G02*
X121240000Y-109220000I3150000J0D01*
G01*
%TO.C,L2*%
X78740000Y-71120000D02*
X78740000Y-68580000D01*
X80090000Y-71120000D02*
G75*
G02*
X77390000Y-71120000I-1350000J0D01*
G01*
X77390000Y-71120000D02*
G75*
G02*
X80090000Y-71120000I1350000J0D01*
G01*
%TO.C,J5*%
X132010000Y-78530000D02*
X132010000Y-81030000D01*
X132420000Y-78940000D02*
X132420000Y-93940000D01*
X132420000Y-93940000D02*
X136220000Y-93940000D01*
X134510000Y-78530000D02*
X132010000Y-78530000D01*
X136220000Y-78940000D02*
X132420000Y-78940000D01*
X136220000Y-93940000D02*
X136220000Y-78940000D01*
%TO.C,J6*%
X130170000Y-100040000D02*
X131170000Y-99040000D01*
X130170000Y-107170000D02*
X131370000Y-107170000D01*
X130170000Y-119400000D02*
X130170000Y-100040000D01*
X131170000Y-99040000D02*
X139070000Y-99040000D01*
X131370000Y-100230000D02*
X137870000Y-100230000D01*
X131370000Y-107170000D02*
X131370000Y-100230000D01*
X131370000Y-111270000D02*
X130170000Y-111270000D01*
X131370000Y-111270000D02*
X131370000Y-111270000D01*
X131370000Y-118210000D02*
X131370000Y-111270000D01*
X137870000Y-100230000D02*
X137870000Y-118210000D01*
X137870000Y-118210000D02*
X131370000Y-118210000D01*
X139070000Y-99040000D02*
X139070000Y-119400000D01*
X139070000Y-119400000D02*
X130170000Y-119400000D01*
%TO.C,R2*%
X95555000Y-67780000D02*
X98755000Y-67780000D01*
X95555000Y-69380000D02*
X95555000Y-67780000D01*
X98755000Y-67780000D02*
X98755000Y-69380000D01*
X98755000Y-69380000D02*
X95555000Y-69380000D01*
%TO.C,C8*%
X117310000Y-55755000D02*
X118910000Y-55755000D01*
X117310000Y-58955000D02*
X117310000Y-55755000D01*
X118910000Y-55755000D02*
X118910000Y-58955000D01*
X118910000Y-58955000D02*
X117310000Y-58955000D01*
%TO.C,R1*%
X95720000Y-86222500D02*
X97320000Y-86222500D01*
X95720000Y-89422500D02*
X95720000Y-86222500D01*
X97320000Y-86222500D02*
X97320000Y-89422500D01*
X97320000Y-89422500D02*
X95720000Y-89422500D01*
%TO.C,C10*%
X98590000Y-118440000D02*
X96990000Y-118440000D01*
X98590000Y-115240000D02*
X98590000Y-118440000D01*
X96990000Y-118440000D02*
X96990000Y-115240000D01*
X96990000Y-115240000D02*
X98590000Y-115240000D01*
%TO.C,L1*%
X68580000Y-71120000D02*
X68580000Y-68580000D01*
X69930000Y-71120000D02*
G75*
G02*
X67230000Y-71120000I-1350000J0D01*
G01*
X67230000Y-71120000D02*
G75*
G02*
X69930000Y-71120000I1350000J0D01*
G01*
%TO.C,C2*%
X107261920Y-72682500D02*
X107711920Y-72682500D01*
X107486920Y-72457500D02*
X107486920Y-72907500D01*
X111430000Y-73660000D02*
G75*
G02*
X106930000Y-73660000I-2250000J0D01*
G01*
X106930000Y-73660000D02*
G75*
G02*
X111430000Y-73660000I2250000J0D01*
G01*
%TO.C,C3*%
X92058861Y-89027500D02*
X92058861Y-88027500D01*
X92558861Y-88527500D02*
X91558861Y-88527500D01*
X93270000Y-86340000D02*
G75*
G02*
X83270000Y-86340000I-5000000J0D01*
G01*
X83270000Y-86340000D02*
G75*
G02*
X93270000Y-86340000I5000000J0D01*
G01*
%TD*%
M02*
