%TF.GenerationSoftware,KiCad,Pcbnew,8.0.6*%
%TF.CreationDate,2025-05-18T16:47:16+02:00*%
%TF.ProjectId,BendeRadio,42656e64-6552-4616-9469-6f2e6b696361,1.0.0*%
%TF.SameCoordinates,Original*%
%TF.FileFunction,Copper,L2,Bot*%
%TF.FilePolarity,Positive*%
%FSLAX46Y46*%
G04 Gerber Fmt 4.6, Leading zero omitted, Abs format (unit mm)*
G04 Created by KiCad (PCBNEW 8.0.6) date 2025-05-18 16:47:16*
%MOMM*%
%LPD*%
G01*
G04 APERTURE LIST*
G04 Aperture macros list*
%AMRoundRect*
0 Rectangle with rounded corners*
0 $1 Rounding radius*
0 $2 $3 $4 $5 $6 $7 $8 $9 X,Y pos of 4 corners*
0 Add a 4 corners polygon primitive as box body*
4,1,4,$2,$3,$4,$5,$6,$7,$8,$9,$2,$3,0*
0 Add four circle primitives for the rounded corners*
1,1,$1+$1,$2,$3*
1,1,$1+$1,$4,$5*
1,1,$1+$1,$6,$7*
1,1,$1+$1,$8,$9*
0 Add four rect primitives between the rounded corners*
20,1,$1+$1,$2,$3,$4,$5,0*
20,1,$1+$1,$4,$5,$6,$7,0*
20,1,$1+$1,$6,$7,$8,$9,0*
20,1,$1+$1,$8,$9,$2,$3,0*%
G04 Aperture macros list end*
%TA.AperFunction,ComponentPad*%
%ADD10C,1.524000*%
%TD*%
%TA.AperFunction,ComponentPad*%
%ADD11R,3.000000X3.000000*%
%TD*%
%TA.AperFunction,ComponentPad*%
%ADD12C,3.000000*%
%TD*%
%TA.AperFunction,ComponentPad*%
%ADD13C,1.397000*%
%TD*%
%TA.AperFunction,ComponentPad*%
%ADD14RoundRect,0.250000X-0.600000X-0.750000X0.600000X-0.750000X0.600000X0.750000X-0.600000X0.750000X0*%
%TD*%
%TA.AperFunction,ComponentPad*%
%ADD15O,1.700000X2.000000*%
%TD*%
%TA.AperFunction,ComponentPad*%
%ADD16R,1.600000X1.600000*%
%TD*%
%TA.AperFunction,ComponentPad*%
%ADD17C,1.600000*%
%TD*%
%TA.AperFunction,ComponentPad*%
%ADD18RoundRect,0.250000X-0.600000X-0.725000X0.600000X-0.725000X0.600000X0.725000X-0.600000X0.725000X0*%
%TD*%
%TA.AperFunction,ComponentPad*%
%ADD19O,1.700000X1.950000*%
%TD*%
%TA.AperFunction,ComponentPad*%
%ADD20O,1.600000X1.600000*%
%TD*%
%TA.AperFunction,ComponentPad*%
%ADD21R,1.524000X1.524000*%
%TD*%
%TA.AperFunction,ComponentPad*%
%ADD22RoundRect,0.250000X-0.725000X0.600000X-0.725000X-0.600000X0.725000X-0.600000X0.725000X0.600000X0*%
%TD*%
%TA.AperFunction,ComponentPad*%
%ADD23O,1.950000X1.700000*%
%TD*%
%TA.AperFunction,ComponentPad*%
%ADD24RoundRect,0.250000X-0.600000X-0.600000X0.600000X-0.600000X0.600000X0.600000X-0.600000X0.600000X0*%
%TD*%
%TA.AperFunction,ComponentPad*%
%ADD25C,1.700000*%
%TD*%
%TA.AperFunction,ComponentPad*%
%ADD26R,2.000000X2.000000*%
%TD*%
%TA.AperFunction,ComponentPad*%
%ADD27C,2.000000*%
%TD*%
%TA.AperFunction,ViaPad*%
%ADD28C,1.000000*%
%TD*%
G04 APERTURE END LIST*
D10*
%TO.P,F2,1,IN*%
%TO.N,+3.3V*%
X90170000Y-101600000D03*
%TO.P,F2,2,GND*%
%TO.N,GND*%
X90170000Y-99060000D03*
%TO.P,F2,3,GND*%
X77470000Y-99060000D03*
%TO.P,F2,4,OUT*%
%TO.N,Net-(F2-OUT)*%
X77470000Y-101600000D03*
%TD*%
D11*
%TO.P,J1,1,Pin_1*%
%TO.N,VCC*%
X90170000Y-52070000D03*
D12*
%TO.P,J1,2,Pin_2*%
%TO.N,GND*%
X85090000Y-52070000D03*
%TD*%
D13*
%TO.P,C14,1*%
%TO.N,Net-(J3-Pin_1)*%
X85090000Y-67310000D03*
%TO.P,C14,2*%
%TO.N,Net-(J3-Pin_2)*%
X85090000Y-72390000D03*
%TD*%
D14*
%TO.P,J2,1,Pin_1*%
%TO.N,Net-(J2-Pin_1)*%
X66080000Y-63500000D03*
D15*
%TO.P,J2,2,Pin_2*%
%TO.N,Net-(J2-Pin_2)*%
X68580000Y-63500000D03*
%TD*%
D10*
%TO.P,U3,1,in_left*%
%TO.N,Net-(U3-in_left)*%
X66040000Y-93980000D03*
%TO.P,U3,2,in_GND*%
%TO.N,Net-(U3-in_GND)*%
X68580000Y-93980000D03*
%TO.P,U3,3,in_right*%
%TO.N,Net-(U3-in_right)*%
X71120000Y-93980000D03*
%TO.P,U3,4,5V*%
%TO.N,Net-(F3-OUT)*%
X78740000Y-93980000D03*
%TO.P,U3,5,GND*%
%TO.N,GND*%
X81280000Y-93980000D03*
%TO.P,U3,6,OUTR_-*%
%TO.N,Net-(J3-Pin_2)*%
X81280000Y-74930000D03*
%TO.P,U3,7,OUTR_+*%
%TO.N,Net-(U3-OUTR_+)*%
X78740000Y-74930000D03*
%TO.P,U3,8,OUTL_+*%
%TO.N,Net-(U3-OUTL_+)*%
X68580000Y-74930000D03*
%TO.P,U3,9,OUTL_-*%
%TO.N,Net-(J2-Pin_2)*%
X66040000Y-74930000D03*
%TD*%
D14*
%TO.P,J3,1,Pin_1*%
%TO.N,Net-(J3-Pin_1)*%
X78780000Y-63500000D03*
D15*
%TO.P,J3,2,Pin_2*%
%TO.N,Net-(J3-Pin_2)*%
X81280000Y-63500000D03*
%TD*%
D16*
%TO.P,C7,1*%
%TO.N,VCC*%
X97790000Y-50840000D03*
D17*
%TO.P,C7,2*%
%TO.N,GND*%
X97790000Y-54340000D03*
%TD*%
D16*
%TO.P,C5,1*%
%TO.N,Net-(F2-OUT)*%
X72390000Y-101600000D03*
D17*
%TO.P,C5,2*%
%TO.N,GND*%
X72390000Y-99100000D03*
%TD*%
D13*
%TO.P,C13,1*%
%TO.N,Net-(J2-Pin_2)*%
X63500000Y-72390000D03*
%TO.P,C13,2*%
%TO.N,Net-(J2-Pin_1)*%
X63500000Y-67310000D03*
%TD*%
D18*
%TO.P,J4,1,Pin_1*%
%TO.N,/CLK*%
X106800000Y-50800000D03*
D19*
%TO.P,J4,2,Pin_2*%
%TO.N,/CS*%
X109300000Y-50800000D03*
%TO.P,J4,3,Pin_3*%
%TO.N,/DIN*%
X111800000Y-50800000D03*
%TO.P,J4,4,Pin_4*%
%TO.N,GND*%
X114300000Y-50800000D03*
%TO.P,J4,5,Pin_5*%
%TO.N,VCC*%
X116800000Y-50800000D03*
%TD*%
D17*
%TO.P,C1,1*%
%TO.N,Net-(C1-Pad1)*%
X90130000Y-76200000D03*
%TO.P,C1,2*%
%TO.N,Net-(U3-in_left)*%
X85130000Y-76200000D03*
%TD*%
D10*
%TO.P,F3,1,IN*%
%TO.N,VCC*%
X92710000Y-58420000D03*
%TO.P,F3,2,GND*%
%TO.N,GND*%
X90170000Y-58420000D03*
%TO.P,F3,3,GND*%
X90170000Y-71120000D03*
%TO.P,F3,4,OUT*%
%TO.N,Net-(F3-OUT)*%
X92710000Y-71120000D03*
%TD*%
D16*
%TO.P,C9,1*%
%TO.N,Net-(F1-OUT)*%
X116840000Y-109220000D03*
D17*
%TO.P,C9,2*%
%TO.N,GND*%
X119340000Y-109220000D03*
%TD*%
%TO.P,L2,1*%
%TO.N,Net-(U3-OUTR_+)*%
X78740000Y-71120000D03*
D20*
%TO.P,L2,2*%
%TO.N,Net-(J3-Pin_1)*%
X78740000Y-68580000D03*
%TD*%
D21*
%TO.P,U1,1,3V3*%
%TO.N,+3.3V*%
X101600000Y-71120000D03*
D10*
%TO.P,U1,2,EN*%
%TO.N,Net-(U1-EN)*%
X101600000Y-73660000D03*
%TO.P,U1,3,SENSOR_VP*%
%TO.N,unconnected-(U1-SENSOR_VP-Pad3)*%
X101600000Y-76200000D03*
%TO.P,U1,4,SENSOR_VN*%
%TO.N,unconnected-(U1-SENSOR_VN-Pad4)*%
X101600000Y-78740000D03*
%TO.P,U1,5,G34*%
%TO.N,Net-(U1-G34)*%
X101600000Y-81280000D03*
%TO.P,U1,6,G35*%
%TO.N,unconnected-(U1-G35-Pad6)*%
X101600000Y-83820000D03*
%TO.P,U1,7,G32*%
%TO.N,unconnected-(U1-G32-Pad7)*%
X101600000Y-86360000D03*
%TO.P,U1,8,G33*%
%TO.N,unconnected-(U1-G33-Pad8)*%
X101600000Y-88900000D03*
%TO.P,U1,9,G25*%
%TO.N,Net-(U1-G25)*%
X101600000Y-91440000D03*
%TO.P,U1,10,G26*%
%TO.N,Net-(U1-G26)*%
X101600000Y-93980000D03*
%TO.P,U1,11,G27*%
%TO.N,Net-(U1-G27)*%
X101600000Y-96520000D03*
%TO.P,U1,12,G14*%
%TO.N,/TMS*%
X101600000Y-99060000D03*
%TO.P,U1,13,G12*%
%TO.N,/TDI*%
X101600000Y-101600000D03*
%TO.P,U1,14,GND*%
%TO.N,GND*%
X101600000Y-104140000D03*
%TO.P,U1,15,G13*%
%TO.N,/TCK*%
X101600000Y-106680000D03*
%TO.P,U1,16,SD2*%
%TO.N,unconnected-(U1-SD2-Pad16)*%
X101600000Y-109220000D03*
%TO.P,U1,17,SD3*%
%TO.N,unconnected-(U1-SD3-Pad17)*%
X101600000Y-111760000D03*
%TO.P,U1,18,GND*%
%TO.N,unconnected-(U1-GND-Pad18)*%
X101600000Y-114300000D03*
%TO.P,U1,19,EXT_5V*%
%TO.N,Net-(F1-OUT)*%
X101600000Y-116840000D03*
%TO.P,U1,20,CLK*%
%TO.N,unconnected-(U1-CLK-Pad20)*%
X127000000Y-116840000D03*
%TO.P,U1,21,SD0*%
%TO.N,unconnected-(U1-SD0-Pad21)*%
X127000000Y-114300000D03*
%TO.P,U1,22,SD1*%
%TO.N,unconnected-(U1-SD1-Pad22)*%
X127000000Y-111760000D03*
%TO.P,U1,23,G15*%
%TO.N,/TDO*%
X127000000Y-109220000D03*
%TO.P,U1,24,G2*%
%TO.N,unconnected-(U1-G2-Pad24)*%
X127000000Y-106680000D03*
%TO.P,U1,25,G0*%
%TO.N,unconnected-(U1-G0-Pad25)*%
X127000000Y-104140000D03*
%TO.P,U1,26,G4*%
%TO.N,unconnected-(U1-G4-Pad26)*%
X127000000Y-101600000D03*
%TO.P,U1,27,G16*%
%TO.N,unconnected-(U1-G16-Pad27)*%
X127000000Y-99060000D03*
%TO.P,U1,28,G17*%
%TO.N,unconnected-(U1-G17-Pad28)*%
X127000000Y-96520000D03*
%TO.P,U1,29,G5*%
%TO.N,/KEY*%
X127000000Y-93980000D03*
%TO.P,U1,30,G18*%
%TO.N,/S2*%
X127000000Y-91440000D03*
%TO.P,U1,31,G19*%
%TO.N,/S1*%
X127000000Y-88900000D03*
%TO.P,U1,32,GND2*%
%TO.N,GND*%
X127000000Y-86360000D03*
%TO.P,U1,33,G21*%
%TO.N,Net-(U1-G21)*%
X127000000Y-83820000D03*
%TO.P,U1,34,RXD*%
%TO.N,unconnected-(U1-RXD-Pad34)*%
X127000000Y-81280000D03*
%TO.P,U1,35,TXD*%
%TO.N,unconnected-(U1-TXD-Pad35)*%
X127000000Y-78740000D03*
%TO.P,U1,36,G22*%
%TO.N,Net-(U1-G22)*%
X127000000Y-76200000D03*
%TO.P,U1,37,G23*%
%TO.N,Net-(U1-G23)*%
X127000000Y-73660000D03*
%TO.P,U1,38,GND*%
%TO.N,GND*%
X127000000Y-71120000D03*
%TD*%
D22*
%TO.P,J5,1,Pin_1*%
%TO.N,GND*%
X134620000Y-81440000D03*
D23*
%TO.P,J5,2,Pin_2*%
%TO.N,/S1*%
X134620000Y-83940000D03*
%TO.P,J5,3,Pin_3*%
%TO.N,/S2*%
X134620000Y-86440000D03*
%TO.P,J5,4,Pin_4*%
%TO.N,/KEY*%
X134620000Y-88940000D03*
%TO.P,J5,5,Pin_5*%
%TO.N,+3.3V*%
X134620000Y-91440000D03*
%TD*%
D24*
%TO.P,J6,1,Pin_1*%
%TO.N,/VJTAG*%
X133350000Y-104140000D03*
D25*
%TO.P,J6,2,Pin_2*%
%TO.N,/TMS*%
X135890000Y-104140000D03*
%TO.P,J6,3,Pin_3*%
%TO.N,GND*%
X133350000Y-106680000D03*
%TO.P,J6,4,Pin_4*%
%TO.N,/TCK*%
X135890000Y-106680000D03*
%TO.P,J6,5,Pin_5*%
%TO.N,GND*%
X133350000Y-109220000D03*
%TO.P,J6,6,Pin_6*%
%TO.N,/TDO*%
X135890000Y-109220000D03*
%TO.P,J6,7,Pin_7*%
%TO.N,GND*%
X133350000Y-111760000D03*
%TO.P,J6,8,Pin_8*%
%TO.N,/TDI*%
X135890000Y-111760000D03*
%TO.P,J6,9,Pin_9*%
%TO.N,GND*%
X133350000Y-114300000D03*
%TO.P,J6,10,Pin_10*%
%TO.N,unconnected-(J6-Pin_10-Pad10)*%
X135890000Y-114300000D03*
%TD*%
D10*
%TO.P,U4,1,FLT*%
%TO.N,unconnected-(U4-FLT-Pad1)*%
X85725000Y-120015000D03*
%TO.P,U4,2,DEMP*%
%TO.N,unconnected-(U4-DEMP-Pad2)*%
X83185000Y-120015000D03*
%TO.P,U4,3,XSMT*%
%TO.N,unconnected-(U4-XSMT-Pad3)*%
X80645000Y-120015000D03*
%TO.P,U4,4,FMT*%
%TO.N,unconnected-(U4-FMT-Pad4)*%
X78105000Y-120015000D03*
%TO.P,U4,5,A3V3*%
%TO.N,unconnected-(U4-A3V3-Pad5)*%
X75565000Y-120015000D03*
%TO.P,U4,6,GNDR*%
%TO.N,unconnected-(U4-GNDR-Pad6)*%
X73025000Y-120015000D03*
%TO.P,U4,7,ROUT*%
%TO.N,Net-(U3-in_right)*%
X70485000Y-120015000D03*
%TO.P,U4,8,GNDL*%
%TO.N,Net-(U3-in_GND)*%
X67945000Y-120015000D03*
%TO.P,U4,9,LOUT*%
%TO.N,Net-(U3-in_left)*%
X65405000Y-120015000D03*
%TO.P,U4,10,VIN*%
%TO.N,Net-(F2-OUT)*%
X92710000Y-106680000D03*
%TO.P,U4,11,GND*%
%TO.N,GND*%
X92710000Y-109220000D03*
%TO.P,U4,12,LCK*%
%TO.N,Net-(U1-G26)*%
X92710000Y-111760000D03*
%TO.P,U4,13,DIN*%
%TO.N,Net-(U1-G25)*%
X92710000Y-114300000D03*
%TO.P,U4,14,BCK*%
%TO.N,Net-(U1-G27)*%
X92710000Y-116840000D03*
%TO.P,U4,15,SCK*%
%TO.N,GND*%
X92710000Y-119380000D03*
%TD*%
%TO.P,U2,1,LV*%
%TO.N,+3.3V*%
X104140000Y-63500000D03*
%TO.P,U2,2,LV1*%
%TO.N,Net-(U1-G21)*%
X106680000Y-63500000D03*
%TO.P,U2,3,LV2*%
%TO.N,Net-(U1-G22)*%
X109220000Y-63500000D03*
%TO.P,U2,4,LV3*%
%TO.N,Net-(U1-G23)*%
X111760000Y-63500000D03*
%TO.P,U2,5,LV4*%
%TO.N,unconnected-(U2-LV4-Pad5)*%
X114300000Y-63500000D03*
%TO.P,U2,6,HV4*%
%TO.N,unconnected-(U2-HV4-Pad6)*%
X114300000Y-55880000D03*
%TO.P,U2,7,HV3*%
%TO.N,/DIN*%
X111760000Y-55880000D03*
%TO.P,U2,8,HV2*%
%TO.N,/CS*%
X109220000Y-55880000D03*
%TO.P,U2,9,HV1*%
%TO.N,/CLK*%
X106680000Y-55880000D03*
%TO.P,U2,10,HV*%
%TO.N,VCC*%
X104140000Y-55880000D03*
%TD*%
D17*
%TO.P,L1,1*%
%TO.N,Net-(U3-OUTL_+)*%
X68580000Y-71120000D03*
D20*
%TO.P,L1,2*%
%TO.N,Net-(J2-Pin_1)*%
X68580000Y-68580000D03*
%TD*%
D16*
%TO.P,C2,1*%
%TO.N,Net-(U1-EN)*%
X106680000Y-73660000D03*
D17*
%TO.P,C2,2*%
%TO.N,GND*%
X111680000Y-73660000D03*
%TD*%
D10*
%TO.P,F1,1,IN*%
%TO.N,VCC*%
X111760000Y-96520000D03*
%TO.P,F1,2,GND*%
%TO.N,GND*%
X109220000Y-96520000D03*
%TO.P,F1,3,GND*%
X109220000Y-109220000D03*
%TO.P,F1,4,OUT*%
%TO.N,Net-(F1-OUT)*%
X111760000Y-109220000D03*
%TD*%
D26*
%TO.P,C3,1*%
%TO.N,Net-(F3-OUT)*%
X90170000Y-86340000D03*
D27*
%TO.P,C3,2*%
%TO.N,GND*%
X86370000Y-86340000D03*
%TD*%
D28*
%TO.N,GND*%
X97790000Y-113030000D03*
X96520000Y-63500000D03*
X118110000Y-60735000D03*
%TD*%
%TA.AperFunction,Conductor*%
%TO.N,GND*%
G36*
X134464925Y-112521373D02*
G01*
X134464926Y-112521373D01*
X134523598Y-112437582D01*
X134523602Y-112437574D01*
X134617294Y-112236652D01*
X134663466Y-112184212D01*
X134730660Y-112165060D01*
X134797541Y-112185276D01*
X134840676Y-112233785D01*
X134907632Y-112368253D01*
X135018403Y-112514936D01*
X135036128Y-112538407D01*
X135193698Y-112682052D01*
X135374981Y-112794298D01*
X135573802Y-112871321D01*
X135770613Y-112908111D01*
X135832893Y-112939779D01*
X135868166Y-113000092D01*
X135865232Y-113069900D01*
X135825023Y-113127040D01*
X135770613Y-113151888D01*
X135573802Y-113188679D01*
X135573799Y-113188679D01*
X135573799Y-113188680D01*
X135374982Y-113265701D01*
X135374980Y-113265702D01*
X135193699Y-113377947D01*
X135036127Y-113521593D01*
X134907634Y-113691744D01*
X134840676Y-113826215D01*
X134793173Y-113877452D01*
X134725510Y-113894873D01*
X134659170Y-113872947D01*
X134617294Y-113823348D01*
X134523600Y-113622423D01*
X134523599Y-113622421D01*
X134464925Y-113538626D01*
X134464925Y-113538625D01*
X133832962Y-114170589D01*
X133815925Y-114107007D01*
X133750099Y-113992993D01*
X133657007Y-113899901D01*
X133542993Y-113834075D01*
X133479410Y-113817037D01*
X134111373Y-113185073D01*
X134034969Y-113131576D01*
X133991344Y-113076999D01*
X133984150Y-113007501D01*
X134015672Y-112945146D01*
X134034968Y-112928425D01*
X134111373Y-112874925D01*
X133479409Y-112242962D01*
X133542993Y-112225925D01*
X133657007Y-112160099D01*
X133750099Y-112067007D01*
X133815925Y-111952993D01*
X133832962Y-111889410D01*
X134464925Y-112521373D01*
G37*
%TD.AperFunction*%
%TA.AperFunction,Conductor*%
G36*
X134464925Y-109981373D02*
G01*
X134464926Y-109981373D01*
X134523598Y-109897582D01*
X134523602Y-109897574D01*
X134617294Y-109696652D01*
X134663466Y-109644212D01*
X134730660Y-109625060D01*
X134797541Y-109645276D01*
X134840676Y-109693785D01*
X134907632Y-109828253D01*
X134975548Y-109918187D01*
X135036128Y-109998407D01*
X135193698Y-110142052D01*
X135374981Y-110254298D01*
X135573802Y-110331321D01*
X135770613Y-110368111D01*
X135832893Y-110399779D01*
X135868166Y-110460092D01*
X135865232Y-110529900D01*
X135825023Y-110587040D01*
X135770613Y-110611888D01*
X135573802Y-110648679D01*
X135573799Y-110648679D01*
X135573799Y-110648680D01*
X135374982Y-110725701D01*
X135374980Y-110725702D01*
X135193699Y-110837947D01*
X135036127Y-110981593D01*
X134907634Y-111151744D01*
X134840676Y-111286215D01*
X134793173Y-111337452D01*
X134725510Y-111354873D01*
X134659170Y-111332947D01*
X134617294Y-111283348D01*
X134523600Y-111082423D01*
X134523599Y-111082421D01*
X134464925Y-110998626D01*
X134464925Y-110998625D01*
X133832962Y-111630589D01*
X133815925Y-111567007D01*
X133750099Y-111452993D01*
X133657007Y-111359901D01*
X133542993Y-111294075D01*
X133479410Y-111277037D01*
X134111373Y-110645073D01*
X134034969Y-110591576D01*
X133991344Y-110536999D01*
X133984150Y-110467501D01*
X134015672Y-110405146D01*
X134034968Y-110388425D01*
X134111373Y-110334925D01*
X133479409Y-109702962D01*
X133542993Y-109685925D01*
X133657007Y-109620099D01*
X133750099Y-109527007D01*
X133815925Y-109412993D01*
X133832962Y-109349410D01*
X134464925Y-109981373D01*
G37*
%TD.AperFunction*%
%TA.AperFunction,Conductor*%
G36*
X134464925Y-107441373D02*
G01*
X134464926Y-107441373D01*
X134523598Y-107357582D01*
X134523602Y-107357574D01*
X134617294Y-107156652D01*
X134663466Y-107104212D01*
X134730660Y-107085060D01*
X134797541Y-107105276D01*
X134840676Y-107153785D01*
X134907632Y-107288253D01*
X135018403Y-107434936D01*
X135036128Y-107458407D01*
X135193698Y-107602052D01*
X135374981Y-107714298D01*
X135573802Y-107791321D01*
X135770613Y-107828111D01*
X135832893Y-107859779D01*
X135868166Y-107920092D01*
X135865232Y-107989900D01*
X135825023Y-108047040D01*
X135770613Y-108071888D01*
X135573802Y-108108679D01*
X135573799Y-108108679D01*
X135573799Y-108108680D01*
X135374982Y-108185701D01*
X135374980Y-108185702D01*
X135193699Y-108297947D01*
X135036127Y-108441593D01*
X134907634Y-108611744D01*
X134840676Y-108746215D01*
X134793173Y-108797452D01*
X134725510Y-108814873D01*
X134659170Y-108792947D01*
X134617294Y-108743348D01*
X134523600Y-108542423D01*
X134523599Y-108542421D01*
X134464925Y-108458626D01*
X134464925Y-108458625D01*
X133832962Y-109090589D01*
X133815925Y-109027007D01*
X133750099Y-108912993D01*
X133657007Y-108819901D01*
X133542993Y-108754075D01*
X133479410Y-108737037D01*
X134111373Y-108105073D01*
X134034969Y-108051576D01*
X133991344Y-107996999D01*
X133984150Y-107927501D01*
X134015672Y-107865146D01*
X134034968Y-107848425D01*
X134111373Y-107794925D01*
X133479409Y-107162962D01*
X133542993Y-107145925D01*
X133657007Y-107080099D01*
X133750099Y-106987007D01*
X133815925Y-106872993D01*
X133832962Y-106809410D01*
X134464925Y-107441373D01*
G37*
%TD.AperFunction*%
%TA.AperFunction,Conductor*%
G36*
X134705703Y-104202340D02*
G01*
X134743477Y-104261118D01*
X134747970Y-104284611D01*
X134754244Y-104352310D01*
X134810085Y-104548569D01*
X134812596Y-104557392D01*
X134812596Y-104557394D01*
X134907632Y-104748253D01*
X134933945Y-104783096D01*
X135036128Y-104918407D01*
X135193698Y-105062052D01*
X135374981Y-105174298D01*
X135573802Y-105251321D01*
X135770613Y-105288111D01*
X135832893Y-105319779D01*
X135868166Y-105380092D01*
X135865232Y-105449900D01*
X135825023Y-105507040D01*
X135770613Y-105531888D01*
X135573802Y-105568679D01*
X135573799Y-105568679D01*
X135573799Y-105568680D01*
X135374982Y-105645701D01*
X135374980Y-105645702D01*
X135193699Y-105757947D01*
X135036127Y-105901593D01*
X134907634Y-106071744D01*
X134840676Y-106206215D01*
X134793173Y-106257452D01*
X134725510Y-106274873D01*
X134659170Y-106252947D01*
X134617294Y-106203348D01*
X134523600Y-106002423D01*
X134523599Y-106002421D01*
X134464925Y-105918626D01*
X134464925Y-105918625D01*
X133832962Y-106550589D01*
X133815925Y-106487007D01*
X133750099Y-106372993D01*
X133657007Y-106279901D01*
X133542993Y-106214075D01*
X133479410Y-106197037D01*
X134111373Y-105565073D01*
X134111373Y-105565072D01*
X134025001Y-105504594D01*
X133981376Y-105450017D01*
X133974182Y-105380519D01*
X134005705Y-105318164D01*
X134065935Y-105282750D01*
X134081344Y-105279903D01*
X134081564Y-105279877D01*
X134222342Y-105224361D01*
X134342922Y-105132922D01*
X134434361Y-105012342D01*
X134489877Y-104871564D01*
X134500500Y-104783102D01*
X134500500Y-104296053D01*
X134520185Y-104229014D01*
X134572989Y-104183259D01*
X134642147Y-104173315D01*
X134705703Y-104202340D01*
G37*
%TD.AperFunction*%
%TA.AperFunction,Conductor*%
G36*
X121362539Y-46240185D02*
G01*
X121408294Y-46292989D01*
X121419500Y-46344500D01*
X121419500Y-61025891D01*
X121453608Y-61153187D01*
X121486554Y-61210250D01*
X121519500Y-61267314D01*
X121612686Y-61360500D01*
X121726814Y-61426392D01*
X121854108Y-61460500D01*
X121985892Y-61460500D01*
X141615500Y-61460500D01*
X141682539Y-61480185D01*
X141728294Y-61532989D01*
X141739500Y-61584500D01*
X141739500Y-121295500D01*
X141719815Y-121362539D01*
X141667011Y-121408294D01*
X141615500Y-121419500D01*
X61584500Y-121419500D01*
X61517461Y-121399815D01*
X61471706Y-121347011D01*
X61460500Y-121295500D01*
X61460500Y-120015000D01*
X64337359Y-120015000D01*
X64357872Y-120223284D01*
X64418629Y-120423571D01*
X64422996Y-120431741D01*
X64497121Y-120570419D01*
X64517291Y-120608153D01*
X64650063Y-120769936D01*
X64811846Y-120902708D01*
X64811850Y-120902711D01*
X64996431Y-121001372D01*
X65196714Y-121062127D01*
X65405000Y-121082641D01*
X65613286Y-121062127D01*
X65813569Y-121001372D01*
X65998150Y-120902711D01*
X66159936Y-120769936D01*
X66292711Y-120608150D01*
X66391372Y-120423569D01*
X66452127Y-120223286D01*
X66472641Y-120015000D01*
X66877359Y-120015000D01*
X66897872Y-120223284D01*
X66958629Y-120423571D01*
X66962996Y-120431741D01*
X67037121Y-120570419D01*
X67057291Y-120608153D01*
X67190063Y-120769936D01*
X67351846Y-120902708D01*
X67351850Y-120902711D01*
X67536431Y-121001372D01*
X67736714Y-121062127D01*
X67945000Y-121082641D01*
X68153286Y-121062127D01*
X68353569Y-121001372D01*
X68538150Y-120902711D01*
X68699936Y-120769936D01*
X68832711Y-120608150D01*
X68931372Y-120423569D01*
X68992127Y-120223286D01*
X69012641Y-120015000D01*
X69417359Y-120015000D01*
X69437872Y-120223284D01*
X69498629Y-120423571D01*
X69502996Y-120431741D01*
X69577121Y-120570419D01*
X69597291Y-120608153D01*
X69730063Y-120769936D01*
X69891846Y-120902708D01*
X69891850Y-120902711D01*
X70076431Y-121001372D01*
X70276714Y-121062127D01*
X70485000Y-121082641D01*
X70693286Y-121062127D01*
X70893569Y-121001372D01*
X71078150Y-120902711D01*
X71239936Y-120769936D01*
X71372711Y-120608150D01*
X71471372Y-120423569D01*
X71532127Y-120223286D01*
X71552641Y-120015000D01*
X71957359Y-120015000D01*
X71977872Y-120223284D01*
X72038629Y-120423571D01*
X72042996Y-120431741D01*
X72117121Y-120570419D01*
X72137291Y-120608153D01*
X72270063Y-120769936D01*
X72431846Y-120902708D01*
X72431850Y-120902711D01*
X72616431Y-121001372D01*
X72816714Y-121062127D01*
X73025000Y-121082641D01*
X73233286Y-121062127D01*
X73433569Y-121001372D01*
X73618150Y-120902711D01*
X73779936Y-120769936D01*
X73912711Y-120608150D01*
X74011372Y-120423569D01*
X74072127Y-120223286D01*
X74092641Y-120015000D01*
X74497359Y-120015000D01*
X74517872Y-120223284D01*
X74578629Y-120423571D01*
X74582996Y-120431741D01*
X74657121Y-120570419D01*
X74677291Y-120608153D01*
X74810063Y-120769936D01*
X74971846Y-120902708D01*
X74971850Y-120902711D01*
X75156431Y-121001372D01*
X75356714Y-121062127D01*
X75565000Y-121082641D01*
X75773286Y-121062127D01*
X75973569Y-121001372D01*
X76158150Y-120902711D01*
X76319936Y-120769936D01*
X76452711Y-120608150D01*
X76551372Y-120423569D01*
X76612127Y-120223286D01*
X76632641Y-120015000D01*
X77037359Y-120015000D01*
X77057872Y-120223284D01*
X77118629Y-120423571D01*
X77122996Y-120431741D01*
X77197121Y-120570419D01*
X77217291Y-120608153D01*
X77350063Y-120769936D01*
X77511846Y-120902708D01*
X77511850Y-120902711D01*
X77696431Y-121001372D01*
X77896714Y-121062127D01*
X78105000Y-121082641D01*
X78313286Y-121062127D01*
X78513569Y-121001372D01*
X78698150Y-120902711D01*
X78859936Y-120769936D01*
X78992711Y-120608150D01*
X79091372Y-120423569D01*
X79152127Y-120223286D01*
X79172641Y-120015000D01*
X79577359Y-120015000D01*
X79597872Y-120223284D01*
X79658629Y-120423571D01*
X79662996Y-120431741D01*
X79737121Y-120570419D01*
X79757291Y-120608153D01*
X79890063Y-120769936D01*
X80051846Y-120902708D01*
X80051850Y-120902711D01*
X80236431Y-121001372D01*
X80436714Y-121062127D01*
X80645000Y-121082641D01*
X80853286Y-121062127D01*
X81053569Y-121001372D01*
X81238150Y-120902711D01*
X81399936Y-120769936D01*
X81532711Y-120608150D01*
X81631372Y-120423569D01*
X81692127Y-120223286D01*
X81712641Y-120015000D01*
X82117359Y-120015000D01*
X82137872Y-120223284D01*
X82198629Y-120423571D01*
X82202996Y-120431741D01*
X82277121Y-120570419D01*
X82297291Y-120608153D01*
X82430063Y-120769936D01*
X82591846Y-120902708D01*
X82591850Y-120902711D01*
X82776431Y-121001372D01*
X82976714Y-121062127D01*
X83185000Y-121082641D01*
X83393286Y-121062127D01*
X83593569Y-121001372D01*
X83778150Y-120902711D01*
X83939936Y-120769936D01*
X84072711Y-120608150D01*
X84171372Y-120423569D01*
X84232127Y-120223286D01*
X84252641Y-120015000D01*
X84657359Y-120015000D01*
X84677872Y-120223284D01*
X84738629Y-120423571D01*
X84742996Y-120431741D01*
X84817121Y-120570419D01*
X84837291Y-120608153D01*
X84970063Y-120769936D01*
X85131846Y-120902708D01*
X85131850Y-120902711D01*
X85316431Y-121001372D01*
X85516714Y-121062127D01*
X85725000Y-121082641D01*
X85933286Y-121062127D01*
X86133569Y-121001372D01*
X86318150Y-120902711D01*
X86479936Y-120769936D01*
X86612711Y-120608150D01*
X86711372Y-120423569D01*
X86772127Y-120223286D01*
X86792641Y-120015000D01*
X86772127Y-119806714D01*
X86711372Y-119606431D01*
X86612711Y-119421850D01*
X86612708Y-119421846D01*
X86578365Y-119379999D01*
X91443179Y-119379999D01*
X91443179Y-119380000D01*
X91462424Y-119599976D01*
X91462426Y-119599986D01*
X91519575Y-119813270D01*
X91519580Y-119813284D01*
X91612898Y-120013405D01*
X91612901Y-120013411D01*
X91658258Y-120078187D01*
X91658259Y-120078188D01*
X92329000Y-119407447D01*
X92329000Y-119430160D01*
X92354964Y-119527061D01*
X92405124Y-119613940D01*
X92476060Y-119684876D01*
X92562939Y-119735036D01*
X92659840Y-119761000D01*
X92682553Y-119761000D01*
X92011810Y-120431740D01*
X92076590Y-120477099D01*
X92076592Y-120477100D01*
X92276715Y-120570419D01*
X92276729Y-120570424D01*
X92490013Y-120627573D01*
X92490023Y-120627575D01*
X92709999Y-120646821D01*
X92710001Y-120646821D01*
X92929976Y-120627575D01*
X92929986Y-120627573D01*
X93143270Y-120570424D01*
X93143284Y-120570419D01*
X93343407Y-120477100D01*
X93343417Y-120477094D01*
X93408188Y-120431741D01*
X92737448Y-119761000D01*
X92760160Y-119761000D01*
X92857061Y-119735036D01*
X92943940Y-119684876D01*
X93014876Y-119613940D01*
X93065036Y-119527061D01*
X93091000Y-119430160D01*
X93091000Y-119407447D01*
X93761741Y-120078188D01*
X93807094Y-120013417D01*
X93807100Y-120013407D01*
X93900419Y-119813284D01*
X93900424Y-119813270D01*
X93957573Y-119599986D01*
X93957575Y-119599976D01*
X93976821Y-119380000D01*
X93976821Y-119379999D01*
X93957575Y-119160023D01*
X93957573Y-119160013D01*
X93900424Y-118946729D01*
X93900420Y-118946720D01*
X93807096Y-118746586D01*
X93761741Y-118681811D01*
X93761740Y-118681810D01*
X93091000Y-119352551D01*
X93091000Y-119329840D01*
X93065036Y-119232939D01*
X93014876Y-119146060D01*
X92943940Y-119075124D01*
X92857061Y-119024964D01*
X92760160Y-118999000D01*
X92737448Y-118999000D01*
X93408188Y-118328259D01*
X93408187Y-118328258D01*
X93343411Y-118282901D01*
X93343405Y-118282898D01*
X93143284Y-118189580D01*
X93143270Y-118189575D01*
X92929986Y-118132426D01*
X92924652Y-118131486D01*
X92924872Y-118130233D01*
X92865550Y-118107027D01*
X92824573Y-118050436D01*
X92820696Y-117980674D01*
X92855150Y-117919890D01*
X92912685Y-117889649D01*
X92912457Y-117888895D01*
X92916392Y-117887701D01*
X92916998Y-117887383D01*
X92917239Y-117887335D01*
X92918276Y-117887127D01*
X92918286Y-117887127D01*
X93118569Y-117826372D01*
X93303150Y-117727711D01*
X93464936Y-117594936D01*
X93597711Y-117433150D01*
X93696372Y-117248569D01*
X93757127Y-117048286D01*
X93777641Y-116840000D01*
X100532359Y-116840000D01*
X100552872Y-117048284D01*
X100613629Y-117248571D01*
X100712291Y-117433153D01*
X100845063Y-117594936D01*
X101006846Y-117727708D01*
X101006850Y-117727711D01*
X101191431Y-117826372D01*
X101391714Y-117887127D01*
X101600000Y-117907641D01*
X101808286Y-117887127D01*
X102008569Y-117826372D01*
X102193150Y-117727711D01*
X102354936Y-117594936D01*
X102487711Y-117433150D01*
X102586372Y-117248569D01*
X102647127Y-117048286D01*
X102667641Y-116840000D01*
X125932359Y-116840000D01*
X125952872Y-117048284D01*
X126013629Y-117248571D01*
X126112291Y-117433153D01*
X126245063Y-117594936D01*
X126406846Y-117727708D01*
X126406850Y-117727711D01*
X126591431Y-117826372D01*
X126791714Y-117887127D01*
X127000000Y-117907641D01*
X127208286Y-117887127D01*
X127408569Y-117826372D01*
X127593150Y-117727711D01*
X127754936Y-117594936D01*
X127887711Y-117433150D01*
X127986372Y-117248569D01*
X128047127Y-117048286D01*
X128067641Y-116840000D01*
X128047127Y-116631714D01*
X127986372Y-116431431D01*
X127887711Y-116246850D01*
X127887708Y-116246846D01*
X127754936Y-116085063D01*
X127593153Y-115952291D01*
X127593151Y-115952290D01*
X127593150Y-115952289D01*
X127408569Y-115853628D01*
X127308427Y-115823250D01*
X127208284Y-115792872D01*
X127000000Y-115772359D01*
X126791715Y-115792872D01*
X126591428Y-115853629D01*
X126406846Y-115952291D01*
X126245063Y-116085063D01*
X126112291Y-116246846D01*
X126013629Y-116431428D01*
X125952872Y-116631715D01*
X125932359Y-116840000D01*
X102667641Y-116840000D01*
X102647127Y-116631714D01*
X102586372Y-116431431D01*
X102487711Y-116246850D01*
X102487708Y-116246846D01*
X102354936Y-116085063D01*
X102193153Y-115952291D01*
X102193151Y-115952290D01*
X102193150Y-115952289D01*
X102008569Y-115853628D01*
X101908427Y-115823250D01*
X101808284Y-115792872D01*
X101600000Y-115772359D01*
X101391715Y-115792872D01*
X101191428Y-115853629D01*
X101006846Y-115952291D01*
X100845063Y-116085063D01*
X100712291Y-116246846D01*
X100613629Y-116431428D01*
X100552872Y-116631715D01*
X100532359Y-116840000D01*
X93777641Y-116840000D01*
X93757127Y-116631714D01*
X93696372Y-116431431D01*
X93597711Y-116246850D01*
X93597708Y-116246846D01*
X93464936Y-116085063D01*
X93303153Y-115952291D01*
X93303151Y-115952290D01*
X93303150Y-115952289D01*
X93118569Y-115853628D01*
X93018427Y-115823250D01*
X92918284Y-115792872D01*
X92710000Y-115772359D01*
X92501715Y-115792872D01*
X92301428Y-115853629D01*
X92116846Y-115952291D01*
X91955063Y-116085063D01*
X91822291Y-116246846D01*
X91723629Y-116431428D01*
X91662872Y-116631715D01*
X91642359Y-116840000D01*
X91662872Y-117048284D01*
X91723629Y-117248571D01*
X91822291Y-117433153D01*
X91955063Y-117594936D01*
X92116846Y-117727708D01*
X92116850Y-117727711D01*
X92301431Y-117826372D01*
X92501714Y-117887127D01*
X92501716Y-117887127D01*
X92501719Y-117887128D01*
X92502763Y-117887336D01*
X92503259Y-117887595D01*
X92507543Y-117888895D01*
X92507296Y-117889707D01*
X92564674Y-117919721D01*
X92599248Y-117980437D01*
X92595508Y-118050207D01*
X92554641Y-118106878D01*
X92495137Y-118130290D01*
X92495348Y-118131486D01*
X92490013Y-118132426D01*
X92276729Y-118189575D01*
X92276720Y-118189579D01*
X92076590Y-118282901D01*
X92011811Y-118328258D01*
X92682553Y-118999000D01*
X92659840Y-118999000D01*
X92562939Y-119024964D01*
X92476060Y-119075124D01*
X92405124Y-119146060D01*
X92354964Y-119232939D01*
X92329000Y-119329840D01*
X92329000Y-119352553D01*
X91658258Y-118681811D01*
X91612901Y-118746590D01*
X91519579Y-118946720D01*
X91519575Y-118946729D01*
X91462426Y-119160013D01*
X91462424Y-119160023D01*
X91443179Y-119379999D01*
X86578365Y-119379999D01*
X86479936Y-119260063D01*
X86318153Y-119127291D01*
X86318151Y-119127290D01*
X86318150Y-119127289D01*
X86133569Y-119028628D01*
X86033427Y-118998250D01*
X85933284Y-118967872D01*
X85725000Y-118947359D01*
X85516715Y-118967872D01*
X85316428Y-119028629D01*
X85131846Y-119127291D01*
X84970063Y-119260063D01*
X84837291Y-119421846D01*
X84738629Y-119606428D01*
X84677872Y-119806715D01*
X84657359Y-120015000D01*
X84252641Y-120015000D01*
X84232127Y-119806714D01*
X84171372Y-119606431D01*
X84072711Y-119421850D01*
X84072708Y-119421846D01*
X83939936Y-119260063D01*
X83778153Y-119127291D01*
X83778151Y-119127290D01*
X83778150Y-119127289D01*
X83593569Y-119028628D01*
X83493427Y-118998250D01*
X83393284Y-118967872D01*
X83185000Y-118947359D01*
X82976715Y-118967872D01*
X82776428Y-119028629D01*
X82591846Y-119127291D01*
X82430063Y-119260063D01*
X82297291Y-119421846D01*
X82198629Y-119606428D01*
X82137872Y-119806715D01*
X82117359Y-120015000D01*
X81712641Y-120015000D01*
X81692127Y-119806714D01*
X81631372Y-119606431D01*
X81532711Y-119421850D01*
X81532708Y-119421846D01*
X81399936Y-119260063D01*
X81238153Y-119127291D01*
X81238151Y-119127290D01*
X81238150Y-119127289D01*
X81053569Y-119028628D01*
X80953427Y-118998250D01*
X80853284Y-118967872D01*
X80645000Y-118947359D01*
X80436715Y-118967872D01*
X80236428Y-119028629D01*
X80051846Y-119127291D01*
X79890063Y-119260063D01*
X79757291Y-119421846D01*
X79658629Y-119606428D01*
X79597872Y-119806715D01*
X79577359Y-120015000D01*
X79172641Y-120015000D01*
X79152127Y-119806714D01*
X79091372Y-119606431D01*
X78992711Y-119421850D01*
X78992708Y-119421846D01*
X78859936Y-119260063D01*
X78698153Y-119127291D01*
X78698151Y-119127290D01*
X78698150Y-119127289D01*
X78513569Y-119028628D01*
X78413427Y-118998250D01*
X78313284Y-118967872D01*
X78105000Y-118947359D01*
X77896715Y-118967872D01*
X77696428Y-119028629D01*
X77511846Y-119127291D01*
X77350063Y-119260063D01*
X77217291Y-119421846D01*
X77118629Y-119606428D01*
X77057872Y-119806715D01*
X77037359Y-120015000D01*
X76632641Y-120015000D01*
X76612127Y-119806714D01*
X76551372Y-119606431D01*
X76452711Y-119421850D01*
X76452708Y-119421846D01*
X76319936Y-119260063D01*
X76158153Y-119127291D01*
X76158151Y-119127290D01*
X76158150Y-119127289D01*
X75973569Y-119028628D01*
X75873427Y-118998250D01*
X75773284Y-118967872D01*
X75565000Y-118947359D01*
X75356715Y-118967872D01*
X75156428Y-119028629D01*
X74971846Y-119127291D01*
X74810063Y-119260063D01*
X74677291Y-119421846D01*
X74578629Y-119606428D01*
X74517872Y-119806715D01*
X74497359Y-120015000D01*
X74092641Y-120015000D01*
X74072127Y-119806714D01*
X74011372Y-119606431D01*
X73912711Y-119421850D01*
X73912708Y-119421846D01*
X73779936Y-119260063D01*
X73618153Y-119127291D01*
X73618151Y-119127290D01*
X73618150Y-119127289D01*
X73433569Y-119028628D01*
X73333427Y-118998250D01*
X73233284Y-118967872D01*
X73025000Y-118947359D01*
X72816715Y-118967872D01*
X72616428Y-119028629D01*
X72431846Y-119127291D01*
X72270063Y-119260063D01*
X72137291Y-119421846D01*
X72038629Y-119606428D01*
X71977872Y-119806715D01*
X71957359Y-120015000D01*
X71552641Y-120015000D01*
X71532127Y-119806714D01*
X71471372Y-119606431D01*
X71372711Y-119421850D01*
X71372708Y-119421846D01*
X71239936Y-119260063D01*
X71078153Y-119127291D01*
X71078151Y-119127290D01*
X71078150Y-119127289D01*
X70893569Y-119028628D01*
X70793427Y-118998250D01*
X70693284Y-118967872D01*
X70485000Y-118947359D01*
X70276715Y-118967872D01*
X70076428Y-119028629D01*
X69891846Y-119127291D01*
X69730063Y-119260063D01*
X69597291Y-119421846D01*
X69498629Y-119606428D01*
X69437872Y-119806715D01*
X69417359Y-120015000D01*
X69012641Y-120015000D01*
X68992127Y-119806714D01*
X68931372Y-119606431D01*
X68832711Y-119421850D01*
X68832708Y-119421846D01*
X68699936Y-119260063D01*
X68538153Y-119127291D01*
X68538151Y-119127290D01*
X68538150Y-119127289D01*
X68353569Y-119028628D01*
X68253427Y-118998250D01*
X68153284Y-118967872D01*
X67945000Y-118947359D01*
X67736715Y-118967872D01*
X67536428Y-119028629D01*
X67351846Y-119127291D01*
X67190063Y-119260063D01*
X67057291Y-119421846D01*
X66958629Y-119606428D01*
X66897872Y-119806715D01*
X66877359Y-120015000D01*
X66472641Y-120015000D01*
X66452127Y-119806714D01*
X66391372Y-119606431D01*
X66292711Y-119421850D01*
X66292708Y-119421846D01*
X66159936Y-119260063D01*
X65998153Y-119127291D01*
X65998151Y-119127290D01*
X65998150Y-119127289D01*
X65813569Y-119028628D01*
X65713427Y-118998250D01*
X65613284Y-118967872D01*
X65405000Y-118947359D01*
X65196715Y-118967872D01*
X64996428Y-119028629D01*
X64811846Y-119127291D01*
X64650063Y-119260063D01*
X64517291Y-119421846D01*
X64418629Y-119606428D01*
X64357872Y-119806715D01*
X64337359Y-120015000D01*
X61460500Y-120015000D01*
X61460500Y-114300000D01*
X91642359Y-114300000D01*
X91662872Y-114508284D01*
X91723629Y-114708571D01*
X91822291Y-114893153D01*
X91955063Y-115054936D01*
X92116846Y-115187708D01*
X92116850Y-115187711D01*
X92301431Y-115286372D01*
X92501714Y-115347127D01*
X92710000Y-115367641D01*
X92918286Y-115347127D01*
X93118569Y-115286372D01*
X93303150Y-115187711D01*
X93464936Y-115054936D01*
X93597711Y-114893150D01*
X93696372Y-114708569D01*
X93757127Y-114508286D01*
X93777641Y-114300000D01*
X100532359Y-114300000D01*
X100552872Y-114508284D01*
X100613629Y-114708571D01*
X100712291Y-114893153D01*
X100845063Y-115054936D01*
X101006846Y-115187708D01*
X101006850Y-115187711D01*
X101191431Y-115286372D01*
X101391714Y-115347127D01*
X101600000Y-115367641D01*
X101808286Y-115347127D01*
X102008569Y-115286372D01*
X102193150Y-115187711D01*
X102354936Y-115054936D01*
X102487711Y-114893150D01*
X102586372Y-114708569D01*
X102647127Y-114508286D01*
X102667641Y-114300000D01*
X125932359Y-114300000D01*
X125952872Y-114508284D01*
X126013629Y-114708571D01*
X126112291Y-114893153D01*
X126245063Y-115054936D01*
X126406846Y-115187708D01*
X126406850Y-115187711D01*
X126591431Y-115286372D01*
X126791714Y-115347127D01*
X127000000Y-115367641D01*
X127208286Y-115347127D01*
X127408569Y-115286372D01*
X127593150Y-115187711D01*
X127754936Y-115054936D01*
X127887711Y-114893150D01*
X127986372Y-114708569D01*
X128047127Y-114508286D01*
X128067641Y-114300000D01*
X128047127Y-114091714D01*
X127986372Y-113891431D01*
X127887711Y-113706850D01*
X127887708Y-113706846D01*
X127754936Y-113545063D01*
X127593153Y-113412291D01*
X127593151Y-113412290D01*
X127593150Y-113412289D01*
X127408569Y-113313628D01*
X127250578Y-113265702D01*
X127208284Y-113252872D01*
X127000000Y-113232359D01*
X126791715Y-113252872D01*
X126591428Y-113313629D01*
X126406846Y-113412291D01*
X126245063Y-113545063D01*
X126112291Y-113706846D01*
X126013629Y-113891428D01*
X125952872Y-114091715D01*
X125932359Y-114300000D01*
X102667641Y-114300000D01*
X102647127Y-114091714D01*
X102586372Y-113891431D01*
X102487711Y-113706850D01*
X102487708Y-113706846D01*
X102354936Y-113545063D01*
X102193153Y-113412291D01*
X102193151Y-113412290D01*
X102193150Y-113412289D01*
X102008569Y-113313628D01*
X101850578Y-113265702D01*
X101808284Y-113252872D01*
X101600000Y-113232359D01*
X101391715Y-113252872D01*
X101191428Y-113313629D01*
X101006846Y-113412291D01*
X100845063Y-113545063D01*
X100712291Y-113706846D01*
X100613629Y-113891428D01*
X100552872Y-114091715D01*
X100532359Y-114300000D01*
X93777641Y-114300000D01*
X93757127Y-114091714D01*
X93696372Y-113891431D01*
X93597711Y-113706850D01*
X93597708Y-113706846D01*
X93464936Y-113545063D01*
X93303153Y-113412291D01*
X93303151Y-113412290D01*
X93303150Y-113412289D01*
X93118569Y-113313628D01*
X92960578Y-113265702D01*
X92918284Y-113252872D01*
X92710000Y-113232359D01*
X92501715Y-113252872D01*
X92301428Y-113313629D01*
X92116846Y-113412291D01*
X91955063Y-113545063D01*
X91822291Y-113706846D01*
X91723629Y-113891428D01*
X91662872Y-114091715D01*
X91642359Y-114300000D01*
X61460500Y-114300000D01*
X61460500Y-109219999D01*
X91443179Y-109219999D01*
X91443179Y-109220000D01*
X91462424Y-109439976D01*
X91462426Y-109439986D01*
X91519575Y-109653270D01*
X91519580Y-109653284D01*
X91612898Y-109853405D01*
X91612901Y-109853411D01*
X91658258Y-109918187D01*
X91658259Y-109918188D01*
X92329000Y-109247447D01*
X92329000Y-109270160D01*
X92354964Y-109367061D01*
X92405124Y-109453940D01*
X92476060Y-109524876D01*
X92562939Y-109575036D01*
X92659840Y-109601000D01*
X92682553Y-109601000D01*
X92011810Y-110271740D01*
X92076590Y-110317099D01*
X92076592Y-110317100D01*
X92276715Y-110410419D01*
X92276729Y-110410424D01*
X92490013Y-110467573D01*
X92495348Y-110468514D01*
X92495126Y-110469771D01*
X92554430Y-110492957D01*
X92595418Y-110549541D01*
X92599309Y-110619302D01*
X92564866Y-110680092D01*
X92507315Y-110710354D01*
X92507543Y-110711105D01*
X92503633Y-110712290D01*
X92503025Y-110712611D01*
X92502779Y-110712660D01*
X92501725Y-110712869D01*
X92301428Y-110773629D01*
X92116846Y-110872291D01*
X91955063Y-111005063D01*
X91822291Y-111166846D01*
X91723629Y-111351428D01*
X91662872Y-111551715D01*
X91642359Y-111760000D01*
X91662872Y-111968284D01*
X91723629Y-112168571D01*
X91822291Y-112353153D01*
X91955063Y-112514936D01*
X92116846Y-112647708D01*
X92116850Y-112647711D01*
X92301431Y-112746372D01*
X92501714Y-112807127D01*
X92710000Y-112827641D01*
X92918286Y-112807127D01*
X93118569Y-112746372D01*
X93303150Y-112647711D01*
X93464936Y-112514936D01*
X93597711Y-112353150D01*
X93696372Y-112168569D01*
X93757127Y-111968286D01*
X93777641Y-111760000D01*
X100532359Y-111760000D01*
X100552872Y-111968284D01*
X100613629Y-112168571D01*
X100712291Y-112353153D01*
X100845063Y-112514936D01*
X101006846Y-112647708D01*
X101006850Y-112647711D01*
X101191431Y-112746372D01*
X101391714Y-112807127D01*
X101600000Y-112827641D01*
X101808286Y-112807127D01*
X102008569Y-112746372D01*
X102193150Y-112647711D01*
X102354936Y-112514936D01*
X102487711Y-112353150D01*
X102586372Y-112168569D01*
X102647127Y-111968286D01*
X102667641Y-111760000D01*
X125932359Y-111760000D01*
X125952872Y-111968284D01*
X126013629Y-112168571D01*
X126112291Y-112353153D01*
X126245063Y-112514936D01*
X126406846Y-112647708D01*
X126406850Y-112647711D01*
X126591431Y-112746372D01*
X126791714Y-112807127D01*
X127000000Y-112827641D01*
X127208286Y-112807127D01*
X127408569Y-112746372D01*
X127593150Y-112647711D01*
X127754936Y-112514936D01*
X127887711Y-112353150D01*
X127986372Y-112168569D01*
X128047127Y-111968286D01*
X128067641Y-111760000D01*
X128047127Y-111551714D01*
X127986372Y-111351431D01*
X127887711Y-111166850D01*
X127887708Y-111166846D01*
X127754936Y-111005063D01*
X127593153Y-110872291D01*
X127593151Y-110872290D01*
X127593150Y-110872289D01*
X127408569Y-110773628D01*
X127250578Y-110725702D01*
X127208284Y-110712872D01*
X127000000Y-110692359D01*
X126791715Y-110712872D01*
X126591428Y-110773629D01*
X126406846Y-110872291D01*
X126245063Y-111005063D01*
X126112291Y-111166846D01*
X126013629Y-111351428D01*
X125952872Y-111551715D01*
X125932359Y-111760000D01*
X102667641Y-111760000D01*
X102647127Y-111551714D01*
X102586372Y-111351431D01*
X102487711Y-111166850D01*
X102487708Y-111166846D01*
X102354936Y-111005063D01*
X102193153Y-110872291D01*
X102193151Y-110872290D01*
X102193150Y-110872289D01*
X102008569Y-110773628D01*
X101850578Y-110725702D01*
X101808284Y-110712872D01*
X101600000Y-110692359D01*
X101391715Y-110712872D01*
X101191428Y-110773629D01*
X101006846Y-110872291D01*
X100845063Y-111005063D01*
X100712291Y-111166846D01*
X100613629Y-111351428D01*
X100552872Y-111551715D01*
X100532359Y-111760000D01*
X93777641Y-111760000D01*
X93757127Y-111551714D01*
X93696372Y-111351431D01*
X93597711Y-111166850D01*
X93597708Y-111166846D01*
X93464936Y-111005063D01*
X93303153Y-110872291D01*
X93303151Y-110872290D01*
X93303150Y-110872289D01*
X93118569Y-110773628D01*
X92918286Y-110712873D01*
X92918285Y-110712872D01*
X92918279Y-110712871D01*
X92917223Y-110712661D01*
X92916721Y-110712398D01*
X92912457Y-110711105D01*
X92912702Y-110710295D01*
X92855315Y-110680268D01*
X92820748Y-110619549D01*
X92824496Y-110549780D01*
X92865369Y-110493112D01*
X92924863Y-110469711D01*
X92924652Y-110468514D01*
X92929986Y-110467573D01*
X93143270Y-110410424D01*
X93143284Y-110410419D01*
X93343407Y-110317100D01*
X93343417Y-110317094D01*
X93408188Y-110271741D01*
X92737448Y-109601000D01*
X92760160Y-109601000D01*
X92857061Y-109575036D01*
X92943940Y-109524876D01*
X93014876Y-109453940D01*
X93065036Y-109367061D01*
X93091000Y-109270160D01*
X93091000Y-109247447D01*
X93761741Y-109918188D01*
X93807094Y-109853417D01*
X93807100Y-109853407D01*
X93900419Y-109653284D01*
X93900424Y-109653270D01*
X93957573Y-109439986D01*
X93957575Y-109439976D01*
X93976821Y-109220000D01*
X100532359Y-109220000D01*
X100552872Y-109428284D01*
X100560655Y-109453940D01*
X100613628Y-109628569D01*
X100706194Y-109801748D01*
X100712291Y-109813153D01*
X100845063Y-109974936D01*
X101006846Y-110107708D01*
X101006850Y-110107711D01*
X101191431Y-110206372D01*
X101391714Y-110267127D01*
X101600000Y-110287641D01*
X101808286Y-110267127D01*
X102008569Y-110206372D01*
X102193150Y-110107711D01*
X102354936Y-109974936D01*
X102487711Y-109813150D01*
X102586372Y-109628569D01*
X102647127Y-109428286D01*
X102667641Y-109220000D01*
X102667641Y-109219999D01*
X107953179Y-109219999D01*
X107953179Y-109220000D01*
X107972424Y-109439976D01*
X107972426Y-109439986D01*
X108029575Y-109653270D01*
X108029580Y-109653284D01*
X108122898Y-109853405D01*
X108122901Y-109853411D01*
X108168258Y-109918187D01*
X108168259Y-109918188D01*
X108839000Y-109247447D01*
X108839000Y-109270160D01*
X108864964Y-109367061D01*
X108915124Y-109453940D01*
X108986060Y-109524876D01*
X109072939Y-109575036D01*
X109169840Y-109601000D01*
X109192553Y-109601000D01*
X108521810Y-110271740D01*
X108586590Y-110317099D01*
X108586592Y-110317100D01*
X108786715Y-110410419D01*
X108786729Y-110410424D01*
X109000013Y-110467573D01*
X109000023Y-110467575D01*
X109219999Y-110486821D01*
X109220001Y-110486821D01*
X109439976Y-110467575D01*
X109439986Y-110467573D01*
X109653270Y-110410424D01*
X109653284Y-110410419D01*
X109853407Y-110317100D01*
X109853417Y-110317094D01*
X109918188Y-110271741D01*
X109247448Y-109601000D01*
X109270160Y-109601000D01*
X109367061Y-109575036D01*
X109453940Y-109524876D01*
X109524876Y-109453940D01*
X109575036Y-109367061D01*
X109601000Y-109270160D01*
X109601000Y-109247447D01*
X110271741Y-109918188D01*
X110317094Y-109853417D01*
X110317100Y-109853407D01*
X110410419Y-109653284D01*
X110410424Y-109653270D01*
X110467573Y-109439986D01*
X110468514Y-109434652D01*
X110469771Y-109434873D01*
X110492956Y-109375571D01*
X110549539Y-109334581D01*
X110619300Y-109330690D01*
X110680091Y-109365132D01*
X110710355Y-109422684D01*
X110711105Y-109422457D01*
X110712290Y-109426363D01*
X110712610Y-109426972D01*
X110712661Y-109427223D01*
X110712871Y-109428279D01*
X110712873Y-109428284D01*
X110712873Y-109428286D01*
X110773628Y-109628569D01*
X110866194Y-109801748D01*
X110872291Y-109813153D01*
X111005063Y-109974936D01*
X111166846Y-110107708D01*
X111166850Y-110107711D01*
X111351431Y-110206372D01*
X111551714Y-110267127D01*
X111760000Y-110287641D01*
X111968286Y-110267127D01*
X112168569Y-110206372D01*
X112353150Y-110107711D01*
X112514936Y-109974936D01*
X112647711Y-109813150D01*
X112746372Y-109628569D01*
X112807127Y-109428286D01*
X112827641Y-109220000D01*
X112807127Y-109011714D01*
X112746372Y-108811431D01*
X112647711Y-108626850D01*
X112647708Y-108626846D01*
X112514936Y-108465063D01*
X112405354Y-108375131D01*
X115739500Y-108375131D01*
X115739500Y-110064856D01*
X115739502Y-110064882D01*
X115742413Y-110089987D01*
X115742415Y-110089991D01*
X115787793Y-110192764D01*
X115787794Y-110192765D01*
X115867235Y-110272206D01*
X115970009Y-110317585D01*
X115995135Y-110320500D01*
X117684864Y-110320499D01*
X117684879Y-110320497D01*
X117684882Y-110320497D01*
X117709987Y-110317586D01*
X117709988Y-110317585D01*
X117709991Y-110317585D01*
X117812765Y-110272206D01*
X117892206Y-110192765D01*
X117937585Y-110089991D01*
X117940500Y-110064865D01*
X117940499Y-109854151D01*
X117960183Y-109787114D01*
X118012987Y-109741359D01*
X118082145Y-109731415D01*
X118145701Y-109760440D01*
X118176881Y-109801748D01*
X118209864Y-109872480D01*
X118260974Y-109945472D01*
X118940000Y-109266446D01*
X118940000Y-109272661D01*
X118967259Y-109374394D01*
X119019920Y-109465606D01*
X119094394Y-109540080D01*
X119185606Y-109592741D01*
X119287339Y-109620000D01*
X119293553Y-109620000D01*
X118614526Y-110299025D01*
X118687513Y-110350132D01*
X118687521Y-110350136D01*
X118893668Y-110446264D01*
X118893682Y-110446269D01*
X119113389Y-110505139D01*
X119113400Y-110505141D01*
X119339998Y-110524966D01*
X119340002Y-110524966D01*
X119566599Y-110505141D01*
X119566610Y-110505139D01*
X119786317Y-110446269D01*
X119786331Y-110446264D01*
X119992478Y-110350136D01*
X120065471Y-110299024D01*
X119386447Y-109620000D01*
X119392661Y-109620000D01*
X119494394Y-109592741D01*
X119585606Y-109540080D01*
X119660080Y-109465606D01*
X119712741Y-109374394D01*
X119740000Y-109272661D01*
X119740000Y-109266447D01*
X120419024Y-109945471D01*
X120470136Y-109872478D01*
X120566264Y-109666331D01*
X120566269Y-109666317D01*
X120625139Y-109446610D01*
X120625141Y-109446599D01*
X120644966Y-109220002D01*
X120644966Y-109220000D01*
X125932359Y-109220000D01*
X125952872Y-109428284D01*
X125960655Y-109453940D01*
X126013628Y-109628569D01*
X126106194Y-109801748D01*
X126112291Y-109813153D01*
X126245063Y-109974936D01*
X126406846Y-110107708D01*
X126406850Y-110107711D01*
X126591431Y-110206372D01*
X126791714Y-110267127D01*
X127000000Y-110287641D01*
X127208286Y-110267127D01*
X127408569Y-110206372D01*
X127593150Y-110107711D01*
X127754936Y-109974936D01*
X127887711Y-109813150D01*
X127986372Y-109628569D01*
X128047127Y-109428286D01*
X128067641Y-109220000D01*
X128047127Y-109011714D01*
X127986372Y-108811431D01*
X127887711Y-108626850D01*
X127887708Y-108626846D01*
X127754936Y-108465063D01*
X127593153Y-108332291D01*
X127593151Y-108332290D01*
X127593150Y-108332289D01*
X127408569Y-108233628D01*
X127250578Y-108185702D01*
X127208284Y-108172872D01*
X127000000Y-108152359D01*
X126791715Y-108172872D01*
X126591428Y-108233629D01*
X126406846Y-108332291D01*
X126245063Y-108465063D01*
X126112291Y-108626846D01*
X126013629Y-108811428D01*
X125952872Y-109011715D01*
X125932359Y-109220000D01*
X120644966Y-109220000D01*
X120644966Y-109219997D01*
X120625141Y-108993400D01*
X120625139Y-108993389D01*
X120566269Y-108773682D01*
X120566264Y-108773668D01*
X120470136Y-108567521D01*
X120470132Y-108567513D01*
X120419025Y-108494526D01*
X119740000Y-109173551D01*
X119740000Y-109167339D01*
X119712741Y-109065606D01*
X119660080Y-108974394D01*
X119585606Y-108899920D01*
X119494394Y-108847259D01*
X119392661Y-108820000D01*
X119386448Y-108820000D01*
X120065472Y-108140974D01*
X119992478Y-108089863D01*
X119786331Y-107993735D01*
X119786317Y-107993730D01*
X119566610Y-107934860D01*
X119566599Y-107934858D01*
X119340002Y-107915034D01*
X119339998Y-107915034D01*
X119113400Y-107934858D01*
X119113389Y-107934860D01*
X118893682Y-107993730D01*
X118893673Y-107993734D01*
X118687516Y-108089866D01*
X118687512Y-108089868D01*
X118614526Y-108140973D01*
X118614526Y-108140974D01*
X119293553Y-108820000D01*
X119287339Y-108820000D01*
X119185606Y-108847259D01*
X119094394Y-108899920D01*
X119019920Y-108974394D01*
X118967259Y-109065606D01*
X118940000Y-109167339D01*
X118940000Y-109173552D01*
X118260974Y-108494526D01*
X118260973Y-108494526D01*
X118209868Y-108567512D01*
X118209866Y-108567517D01*
X118176881Y-108638253D01*
X118130708Y-108690692D01*
X118063515Y-108709844D01*
X117996633Y-108689628D01*
X117951299Y-108636462D01*
X117940499Y-108585848D01*
X117940499Y-108375143D01*
X117940499Y-108375136D01*
X117940497Y-108375117D01*
X117937586Y-108350012D01*
X117937585Y-108350010D01*
X117937585Y-108350009D01*
X117892206Y-108247235D01*
X117812765Y-108167794D01*
X117777808Y-108152359D01*
X117709992Y-108122415D01*
X117684865Y-108119500D01*
X115995143Y-108119500D01*
X115995117Y-108119502D01*
X115970012Y-108122413D01*
X115970008Y-108122415D01*
X115867235Y-108167793D01*
X115787794Y-108247234D01*
X115742415Y-108350006D01*
X115742415Y-108350008D01*
X115739500Y-108375131D01*
X112405354Y-108375131D01*
X112353153Y-108332291D01*
X112353151Y-108332290D01*
X112353150Y-108332289D01*
X112168569Y-108233628D01*
X112010578Y-108185702D01*
X111968284Y-108172872D01*
X111760000Y-108152359D01*
X111551715Y-108172872D01*
X111351428Y-108233629D01*
X111166846Y-108332291D01*
X111005063Y-108465063D01*
X110872291Y-108626846D01*
X110773629Y-108811428D01*
X110712869Y-109011725D01*
X110712660Y-109012779D01*
X110712398Y-109013278D01*
X110711105Y-109017543D01*
X110710295Y-109017297D01*
X110680266Y-109074686D01*
X110619545Y-109109251D01*
X110549776Y-109105502D01*
X110493110Y-109064627D01*
X110469713Y-109005136D01*
X110468514Y-109005348D01*
X110467573Y-109000013D01*
X110410424Y-108786729D01*
X110410420Y-108786720D01*
X110317096Y-108586586D01*
X110271741Y-108521811D01*
X110271740Y-108521810D01*
X109601000Y-109192551D01*
X109601000Y-109169840D01*
X109575036Y-109072939D01*
X109524876Y-108986060D01*
X109453940Y-108915124D01*
X109367061Y-108864964D01*
X109270160Y-108839000D01*
X109247448Y-108839000D01*
X109918188Y-108168259D01*
X109918187Y-108168258D01*
X109853411Y-108122901D01*
X109853405Y-108122898D01*
X109653284Y-108029580D01*
X109653270Y-108029575D01*
X109439986Y-107972426D01*
X109439976Y-107972424D01*
X109220001Y-107953179D01*
X109219999Y-107953179D01*
X109000023Y-107972424D01*
X109000013Y-107972426D01*
X108786729Y-108029575D01*
X108786720Y-108029579D01*
X108586590Y-108122901D01*
X108521811Y-108168258D01*
X109192553Y-108839000D01*
X109169840Y-108839000D01*
X109072939Y-108864964D01*
X108986060Y-108915124D01*
X108915124Y-108986060D01*
X108864964Y-109072939D01*
X108839000Y-109169840D01*
X108839000Y-109192553D01*
X108168258Y-108521811D01*
X108122901Y-108586590D01*
X108029579Y-108786720D01*
X108029575Y-108786729D01*
X107972426Y-109000013D01*
X107972424Y-109000023D01*
X107953179Y-109219999D01*
X102667641Y-109219999D01*
X102647127Y-109011714D01*
X102586372Y-108811431D01*
X102487711Y-108626850D01*
X102487708Y-108626846D01*
X102354936Y-108465063D01*
X102193153Y-108332291D01*
X102193151Y-108332290D01*
X102193150Y-108332289D01*
X102008569Y-108233628D01*
X101850578Y-108185702D01*
X101808284Y-108172872D01*
X101600000Y-108152359D01*
X101391715Y-108172872D01*
X101191428Y-108233629D01*
X101006846Y-108332291D01*
X100845063Y-108465063D01*
X100712291Y-108626846D01*
X100613629Y-108811428D01*
X100552872Y-109011715D01*
X100532359Y-109220000D01*
X93976821Y-109220000D01*
X93976821Y-109219999D01*
X93957575Y-109000023D01*
X93957573Y-109000013D01*
X93900424Y-108786729D01*
X93900420Y-108786720D01*
X93807096Y-108586586D01*
X93761741Y-108521811D01*
X93761740Y-108521810D01*
X93091000Y-109192551D01*
X93091000Y-109169840D01*
X93065036Y-109072939D01*
X93014876Y-108986060D01*
X92943940Y-108915124D01*
X92857061Y-108864964D01*
X92760160Y-108839000D01*
X92737448Y-108839000D01*
X93408188Y-108168259D01*
X93408187Y-108168258D01*
X93343411Y-108122901D01*
X93343405Y-108122898D01*
X93143284Y-108029580D01*
X93143270Y-108029575D01*
X92929986Y-107972426D01*
X92924652Y-107971486D01*
X92924872Y-107970233D01*
X92865550Y-107947027D01*
X92824573Y-107890436D01*
X92820696Y-107820674D01*
X92855150Y-107759890D01*
X92912685Y-107729649D01*
X92912457Y-107728895D01*
X92916392Y-107727701D01*
X92916998Y-107727383D01*
X92917239Y-107727335D01*
X92918276Y-107727127D01*
X92918286Y-107727127D01*
X93118569Y-107666372D01*
X93303150Y-107567711D01*
X93464936Y-107434936D01*
X93597711Y-107273150D01*
X93696372Y-107088569D01*
X93757127Y-106888286D01*
X93777641Y-106680000D01*
X93757127Y-106471714D01*
X93696372Y-106271431D01*
X93597711Y-106086850D01*
X93597708Y-106086846D01*
X93464936Y-105925063D01*
X93303153Y-105792291D01*
X93303151Y-105792290D01*
X93303150Y-105792289D01*
X93118569Y-105693628D01*
X92960578Y-105645702D01*
X92918284Y-105632872D01*
X92710000Y-105612359D01*
X92501715Y-105632872D01*
X92301428Y-105693629D01*
X92116846Y-105792291D01*
X91955063Y-105925063D01*
X91822291Y-106086846D01*
X91723629Y-106271428D01*
X91662872Y-106471715D01*
X91642359Y-106680000D01*
X91662872Y-106888284D01*
X91723629Y-107088571D01*
X91822291Y-107273153D01*
X91955063Y-107434936D01*
X92116846Y-107567708D01*
X92116850Y-107567711D01*
X92301431Y-107666372D01*
X92501714Y-107727127D01*
X92501716Y-107727127D01*
X92501719Y-107727128D01*
X92502763Y-107727336D01*
X92503259Y-107727595D01*
X92507543Y-107728895D01*
X92507296Y-107729707D01*
X92564674Y-107759721D01*
X92599248Y-107820437D01*
X92595508Y-107890207D01*
X92554641Y-107946878D01*
X92495137Y-107970290D01*
X92495348Y-107971486D01*
X92490013Y-107972426D01*
X92276729Y-108029575D01*
X92276720Y-108029579D01*
X92076590Y-108122901D01*
X92011811Y-108168258D01*
X92682553Y-108839000D01*
X92659840Y-108839000D01*
X92562939Y-108864964D01*
X92476060Y-108915124D01*
X92405124Y-108986060D01*
X92354964Y-109072939D01*
X92329000Y-109169840D01*
X92329000Y-109192553D01*
X91658258Y-108521811D01*
X91612901Y-108586590D01*
X91519579Y-108786720D01*
X91519575Y-108786729D01*
X91462426Y-109000013D01*
X91462424Y-109000023D01*
X91443179Y-109219999D01*
X61460500Y-109219999D01*
X61460500Y-104139999D01*
X100333179Y-104139999D01*
X100333179Y-104140000D01*
X100352424Y-104359976D01*
X100352426Y-104359986D01*
X100409575Y-104573270D01*
X100409580Y-104573284D01*
X100502898Y-104773405D01*
X100502901Y-104773411D01*
X100548258Y-104838187D01*
X100548259Y-104838188D01*
X101219000Y-104167447D01*
X101219000Y-104190160D01*
X101244964Y-104287061D01*
X101295124Y-104373940D01*
X101366060Y-104444876D01*
X101452939Y-104495036D01*
X101549840Y-104521000D01*
X101572553Y-104521000D01*
X100901810Y-105191740D01*
X100966590Y-105237099D01*
X100966592Y-105237100D01*
X101166715Y-105330419D01*
X101166729Y-105330424D01*
X101380013Y-105387573D01*
X101385348Y-105388514D01*
X101385126Y-105389771D01*
X101444430Y-105412957D01*
X101485418Y-105469541D01*
X101489309Y-105539302D01*
X101454866Y-105600092D01*
X101397315Y-105630354D01*
X101397543Y-105631105D01*
X101393633Y-105632290D01*
X101393025Y-105632611D01*
X101392779Y-105632660D01*
X101391725Y-105632869D01*
X101191428Y-105693629D01*
X101006846Y-105792291D01*
X100845063Y-105925063D01*
X100712291Y-106086846D01*
X100613629Y-106271428D01*
X100552872Y-106471715D01*
X100532359Y-106680000D01*
X100552872Y-106888284D01*
X100613629Y-107088571D01*
X100712291Y-107273153D01*
X100845063Y-107434936D01*
X101006846Y-107567708D01*
X101006850Y-107567711D01*
X101191431Y-107666372D01*
X101391714Y-107727127D01*
X101600000Y-107747641D01*
X101808286Y-107727127D01*
X102008569Y-107666372D01*
X102193150Y-107567711D01*
X102354936Y-107434936D01*
X102487711Y-107273150D01*
X102586372Y-107088569D01*
X102647127Y-106888286D01*
X102667641Y-106680000D01*
X125932359Y-106680000D01*
X125952872Y-106888284D01*
X126013629Y-107088571D01*
X126112291Y-107273153D01*
X126245063Y-107434936D01*
X126406846Y-107567708D01*
X126406850Y-107567711D01*
X126591431Y-107666372D01*
X126791714Y-107727127D01*
X127000000Y-107747641D01*
X127208286Y-107727127D01*
X127408569Y-107666372D01*
X127593150Y-107567711D01*
X127754936Y-107434936D01*
X127887711Y-107273150D01*
X127986372Y-107088569D01*
X128047127Y-106888286D01*
X128067641Y-106680000D01*
X128067641Y-106679998D01*
X131994843Y-106679998D01*
X131994843Y-106680001D01*
X132015430Y-106915315D01*
X132015432Y-106915326D01*
X132076566Y-107143483D01*
X132076570Y-107143492D01*
X132176400Y-107357579D01*
X132176402Y-107357583D01*
X132235072Y-107441373D01*
X132235073Y-107441373D01*
X132867037Y-106809409D01*
X132884075Y-106872993D01*
X132949901Y-106987007D01*
X133042993Y-107080099D01*
X133157007Y-107145925D01*
X133220590Y-107162962D01*
X132588625Y-107794925D01*
X132665031Y-107848425D01*
X132708655Y-107903002D01*
X132715848Y-107972501D01*
X132684326Y-108034855D01*
X132665029Y-108051576D01*
X132588625Y-108105072D01*
X133220590Y-108737037D01*
X133157007Y-108754075D01*
X133042993Y-108819901D01*
X132949901Y-108912993D01*
X132884075Y-109027007D01*
X132867037Y-109090590D01*
X132235072Y-108458625D01*
X132176401Y-108542419D01*
X132076570Y-108756507D01*
X132076566Y-108756516D01*
X132015432Y-108984673D01*
X132015430Y-108984684D01*
X131994843Y-109219998D01*
X131994843Y-109220001D01*
X132015430Y-109455315D01*
X132015432Y-109455326D01*
X132076566Y-109683483D01*
X132076570Y-109683492D01*
X132176400Y-109897579D01*
X132176402Y-109897583D01*
X132235072Y-109981373D01*
X132235073Y-109981373D01*
X132867037Y-109349409D01*
X132884075Y-109412993D01*
X132949901Y-109527007D01*
X133042993Y-109620099D01*
X133157007Y-109685925D01*
X133220590Y-109702962D01*
X132588625Y-110334925D01*
X132665031Y-110388425D01*
X132708655Y-110443002D01*
X132715848Y-110512501D01*
X132684326Y-110574855D01*
X132665029Y-110591576D01*
X132588625Y-110645072D01*
X133220590Y-111277037D01*
X133157007Y-111294075D01*
X133042993Y-111359901D01*
X132949901Y-111452993D01*
X132884075Y-111567007D01*
X132867037Y-111630590D01*
X132235072Y-110998625D01*
X132176401Y-111082419D01*
X132076570Y-111296507D01*
X132076566Y-111296516D01*
X132015432Y-111524673D01*
X132015430Y-111524684D01*
X131994843Y-111759998D01*
X131994843Y-111760001D01*
X132015430Y-111995315D01*
X132015432Y-111995326D01*
X132076566Y-112223483D01*
X132076570Y-112223492D01*
X132176400Y-112437579D01*
X132176402Y-112437583D01*
X132235072Y-112521373D01*
X132235073Y-112521373D01*
X132867037Y-111889409D01*
X132884075Y-111952993D01*
X132949901Y-112067007D01*
X133042993Y-112160099D01*
X133157007Y-112225925D01*
X133220590Y-112242962D01*
X132588625Y-112874925D01*
X132665031Y-112928425D01*
X132708655Y-112983002D01*
X132715848Y-113052501D01*
X132684326Y-113114855D01*
X132665029Y-113131576D01*
X132588625Y-113185072D01*
X133220590Y-113817037D01*
X133157007Y-113834075D01*
X133042993Y-113899901D01*
X132949901Y-113992993D01*
X132884075Y-114107007D01*
X132867037Y-114170590D01*
X132235072Y-113538625D01*
X132176401Y-113622419D01*
X132076570Y-113836507D01*
X132076566Y-113836516D01*
X132015432Y-114064673D01*
X132015430Y-114064684D01*
X131994843Y-114299998D01*
X131994843Y-114300001D01*
X132015430Y-114535315D01*
X132015432Y-114535326D01*
X132076566Y-114763483D01*
X132076570Y-114763492D01*
X132176400Y-114977579D01*
X132176402Y-114977583D01*
X132235072Y-115061373D01*
X132235073Y-115061373D01*
X132867037Y-114429409D01*
X132884075Y-114492993D01*
X132949901Y-114607007D01*
X133042993Y-114700099D01*
X133157007Y-114765925D01*
X133220590Y-114782962D01*
X132588625Y-115414925D01*
X132672421Y-115473599D01*
X132886507Y-115573429D01*
X132886516Y-115573433D01*
X133114673Y-115634567D01*
X133114684Y-115634569D01*
X133349998Y-115655157D01*
X133350002Y-115655157D01*
X133585315Y-115634569D01*
X133585326Y-115634567D01*
X133813483Y-115573433D01*
X133813492Y-115573429D01*
X134027578Y-115473600D01*
X134027582Y-115473598D01*
X134111373Y-115414926D01*
X134111373Y-115414925D01*
X133479409Y-114782962D01*
X133542993Y-114765925D01*
X133657007Y-114700099D01*
X133750099Y-114607007D01*
X133815925Y-114492993D01*
X133832962Y-114429410D01*
X134464925Y-115061373D01*
X134464926Y-115061373D01*
X134523598Y-114977582D01*
X134523602Y-114977574D01*
X134617294Y-114776652D01*
X134663466Y-114724212D01*
X134730660Y-114705060D01*
X134797541Y-114725276D01*
X134840676Y-114773785D01*
X134907632Y-114908253D01*
X135018403Y-115054936D01*
X135036128Y-115078407D01*
X135193698Y-115222052D01*
X135374981Y-115334298D01*
X135573802Y-115411321D01*
X135783390Y-115450500D01*
X135783392Y-115450500D01*
X135996608Y-115450500D01*
X135996610Y-115450500D01*
X136206198Y-115411321D01*
X136405019Y-115334298D01*
X136586302Y-115222052D01*
X136743872Y-115078407D01*
X136872366Y-114908255D01*
X136937896Y-114776652D01*
X136967403Y-114717394D01*
X136967403Y-114717393D01*
X136967405Y-114717389D01*
X137025756Y-114512310D01*
X137045429Y-114300000D01*
X137025756Y-114087690D01*
X136967405Y-113882611D01*
X136967403Y-113882606D01*
X136967403Y-113882605D01*
X136872367Y-113691746D01*
X136743872Y-113521593D01*
X136623974Y-113412291D01*
X136586302Y-113377948D01*
X136405019Y-113265702D01*
X136405017Y-113265701D01*
X136305608Y-113227190D01*
X136206198Y-113188679D01*
X136009385Y-113151888D01*
X135947106Y-113120221D01*
X135911833Y-113059908D01*
X135914767Y-112990100D01*
X135954976Y-112932960D01*
X136009384Y-112908111D01*
X136206198Y-112871321D01*
X136405019Y-112794298D01*
X136586302Y-112682052D01*
X136743872Y-112538407D01*
X136872366Y-112368255D01*
X136937896Y-112236652D01*
X136967403Y-112177394D01*
X136967403Y-112177393D01*
X136967405Y-112177389D01*
X137025756Y-111972310D01*
X137045429Y-111760000D01*
X137025756Y-111547690D01*
X136967405Y-111342611D01*
X136967403Y-111342606D01*
X136967403Y-111342605D01*
X136872367Y-111151746D01*
X136743872Y-110981593D01*
X136623974Y-110872291D01*
X136586302Y-110837948D01*
X136405019Y-110725702D01*
X136405017Y-110725701D01*
X136287285Y-110680092D01*
X136206198Y-110648679D01*
X136009385Y-110611888D01*
X135947106Y-110580221D01*
X135911833Y-110519908D01*
X135914767Y-110450100D01*
X135954976Y-110392960D01*
X136009384Y-110368111D01*
X136206198Y-110331321D01*
X136405019Y-110254298D01*
X136586302Y-110142052D01*
X136743872Y-109998407D01*
X136872366Y-109828255D01*
X136937896Y-109696652D01*
X136967403Y-109637394D01*
X136967403Y-109637393D01*
X136967405Y-109637389D01*
X137025756Y-109432310D01*
X137045429Y-109220000D01*
X137025756Y-109007690D01*
X136967405Y-108802611D01*
X136967403Y-108802606D01*
X136967403Y-108802605D01*
X136872367Y-108611746D01*
X136743872Y-108441593D01*
X136670980Y-108375143D01*
X136586302Y-108297948D01*
X136405019Y-108185702D01*
X136405017Y-108185701D01*
X136289559Y-108140973D01*
X136206198Y-108108679D01*
X136009385Y-108071888D01*
X135947106Y-108040221D01*
X135911833Y-107979908D01*
X135914767Y-107910100D01*
X135954976Y-107852960D01*
X136009384Y-107828111D01*
X136206198Y-107791321D01*
X136405019Y-107714298D01*
X136586302Y-107602052D01*
X136743872Y-107458407D01*
X136872366Y-107288255D01*
X136937896Y-107156652D01*
X136967403Y-107097394D01*
X136967403Y-107097393D01*
X136967405Y-107097389D01*
X137025756Y-106892310D01*
X137045429Y-106680000D01*
X137025756Y-106467690D01*
X136967405Y-106262611D01*
X136967403Y-106262606D01*
X136967403Y-106262605D01*
X136872367Y-106071746D01*
X136743872Y-105901593D01*
X136623974Y-105792291D01*
X136586302Y-105757948D01*
X136405019Y-105645702D01*
X136405017Y-105645701D01*
X136287285Y-105600092D01*
X136206198Y-105568679D01*
X136009385Y-105531888D01*
X135947106Y-105500221D01*
X135911833Y-105439908D01*
X135914767Y-105370100D01*
X135954976Y-105312960D01*
X136009384Y-105288111D01*
X136206198Y-105251321D01*
X136405019Y-105174298D01*
X136586302Y-105062052D01*
X136743872Y-104918407D01*
X136872366Y-104748255D01*
X136879887Y-104733150D01*
X136967403Y-104557394D01*
X136967403Y-104557393D01*
X136967405Y-104557389D01*
X137025756Y-104352310D01*
X137045429Y-104140000D01*
X137025756Y-103927690D01*
X136967405Y-103722611D01*
X136967403Y-103722606D01*
X136967403Y-103722605D01*
X136872367Y-103531746D01*
X136743872Y-103361593D01*
X136586302Y-103217948D01*
X136405019Y-103105702D01*
X136405017Y-103105701D01*
X136275790Y-103055639D01*
X136206198Y-103028679D01*
X135996610Y-102989500D01*
X135783390Y-102989500D01*
X135573802Y-103028679D01*
X135573799Y-103028679D01*
X135573799Y-103028680D01*
X135374982Y-103105701D01*
X135374980Y-103105702D01*
X135193699Y-103217947D01*
X135036127Y-103361593D01*
X134907632Y-103531746D01*
X134812596Y-103722605D01*
X134812596Y-103722607D01*
X134754244Y-103927689D01*
X134747971Y-103995387D01*
X134722185Y-104060324D01*
X134665384Y-104101012D01*
X134595604Y-104104532D01*
X134534997Y-104069767D01*
X134502807Y-104007754D01*
X134500500Y-103983946D01*
X134500500Y-103496903D01*
X134500500Y-103496898D01*
X134489877Y-103408436D01*
X134434361Y-103267658D01*
X134434360Y-103267657D01*
X134434360Y-103267656D01*
X134342922Y-103147077D01*
X134222343Y-103055639D01*
X134081561Y-103000122D01*
X134035926Y-102994642D01*
X133993102Y-102989500D01*
X132706898Y-102989500D01*
X132667853Y-102994188D01*
X132618438Y-103000122D01*
X132477656Y-103055639D01*
X132357077Y-103147077D01*
X132265639Y-103267656D01*
X132210122Y-103408438D01*
X132206115Y-103441810D01*
X132199500Y-103496898D01*
X132199500Y-104783102D01*
X132205126Y-104829954D01*
X132210122Y-104871561D01*
X132265639Y-105012343D01*
X132357077Y-105132922D01*
X132477656Y-105224360D01*
X132477657Y-105224360D01*
X132477658Y-105224361D01*
X132618436Y-105279877D01*
X132618649Y-105279902D01*
X132618813Y-105279972D01*
X132626148Y-105281827D01*
X132625853Y-105282991D01*
X132682865Y-105307433D01*
X132722004Y-105365311D01*
X132723638Y-105435162D01*
X132687248Y-105494807D01*
X132674999Y-105504594D01*
X132588626Y-105565072D01*
X132588625Y-105565072D01*
X133220590Y-106197037D01*
X133157007Y-106214075D01*
X133042993Y-106279901D01*
X132949901Y-106372993D01*
X132884075Y-106487007D01*
X132867037Y-106550590D01*
X132235072Y-105918625D01*
X132176401Y-106002419D01*
X132076570Y-106216507D01*
X132076566Y-106216516D01*
X132015432Y-106444673D01*
X132015430Y-106444684D01*
X131994843Y-106679998D01*
X128067641Y-106679998D01*
X128047127Y-106471714D01*
X127986372Y-106271431D01*
X127887711Y-106086850D01*
X127887708Y-106086846D01*
X127754936Y-105925063D01*
X127593153Y-105792291D01*
X127593151Y-105792290D01*
X127593150Y-105792289D01*
X127408569Y-105693628D01*
X127250578Y-105645702D01*
X127208284Y-105632872D01*
X127000000Y-105612359D01*
X126791715Y-105632872D01*
X126591428Y-105693629D01*
X126406846Y-105792291D01*
X126245063Y-105925063D01*
X126112291Y-106086846D01*
X126013629Y-106271428D01*
X125952872Y-106471715D01*
X125932359Y-106680000D01*
X102667641Y-106680000D01*
X102647127Y-106471714D01*
X102586372Y-106271431D01*
X102487711Y-106086850D01*
X102487708Y-106086846D01*
X102354936Y-105925063D01*
X102193153Y-105792291D01*
X102193151Y-105792290D01*
X102193150Y-105792289D01*
X102008569Y-105693628D01*
X101808286Y-105632873D01*
X101808285Y-105632872D01*
X101808279Y-105632871D01*
X101807223Y-105632661D01*
X101806721Y-105632398D01*
X101802457Y-105631105D01*
X101802702Y-105630295D01*
X101745315Y-105600268D01*
X101710748Y-105539549D01*
X101714496Y-105469780D01*
X101755369Y-105413112D01*
X101814863Y-105389711D01*
X101814652Y-105388514D01*
X101819986Y-105387573D01*
X102033270Y-105330424D01*
X102033284Y-105330419D01*
X102233407Y-105237100D01*
X102233417Y-105237094D01*
X102298188Y-105191741D01*
X101627448Y-104521000D01*
X101650160Y-104521000D01*
X101747061Y-104495036D01*
X101833940Y-104444876D01*
X101904876Y-104373940D01*
X101955036Y-104287061D01*
X101981000Y-104190160D01*
X101981000Y-104167447D01*
X102651741Y-104838188D01*
X102697094Y-104773417D01*
X102697100Y-104773407D01*
X102790419Y-104573284D01*
X102790424Y-104573270D01*
X102847573Y-104359986D01*
X102847575Y-104359976D01*
X102866821Y-104140000D01*
X125932359Y-104140000D01*
X125952872Y-104348284D01*
X126013629Y-104548571D01*
X126112291Y-104733153D01*
X126245063Y-104894936D01*
X126388124Y-105012343D01*
X126406850Y-105027711D01*
X126591431Y-105126372D01*
X126791714Y-105187127D01*
X127000000Y-105207641D01*
X127208286Y-105187127D01*
X127408569Y-105126372D01*
X127593150Y-105027711D01*
X127754936Y-104894936D01*
X127887711Y-104733150D01*
X127986372Y-104548569D01*
X128047127Y-104348286D01*
X128067641Y-104140000D01*
X128047127Y-103931714D01*
X127986372Y-103731431D01*
X127887711Y-103546850D01*
X127887708Y-103546846D01*
X127754936Y-103385063D01*
X127593153Y-103252291D01*
X127593151Y-103252290D01*
X127593150Y-103252289D01*
X127408569Y-103153628D01*
X127250578Y-103105702D01*
X127208284Y-103092872D01*
X127000000Y-103072359D01*
X126791715Y-103092872D01*
X126591428Y-103153629D01*
X126406846Y-103252291D01*
X126245063Y-103385063D01*
X126112291Y-103546846D01*
X126013629Y-103731428D01*
X125952872Y-103931715D01*
X125932359Y-104140000D01*
X102866821Y-104140000D01*
X102866821Y-104139999D01*
X102847575Y-103920023D01*
X102847573Y-103920013D01*
X102790424Y-103706729D01*
X102790420Y-103706720D01*
X102697096Y-103506586D01*
X102651741Y-103441811D01*
X102651740Y-103441810D01*
X101981000Y-104112551D01*
X101981000Y-104089840D01*
X101955036Y-103992939D01*
X101904876Y-103906060D01*
X101833940Y-103835124D01*
X101747061Y-103784964D01*
X101650160Y-103759000D01*
X101627448Y-103759000D01*
X102298188Y-103088259D01*
X102298187Y-103088258D01*
X102233411Y-103042901D01*
X102233405Y-103042898D01*
X102033284Y-102949580D01*
X102033270Y-102949575D01*
X101819986Y-102892426D01*
X101814652Y-102891486D01*
X101814872Y-102890233D01*
X101755550Y-102867027D01*
X101714573Y-102810436D01*
X101710696Y-102740674D01*
X101745150Y-102679890D01*
X101802685Y-102649649D01*
X101802457Y-102648895D01*
X101806392Y-102647701D01*
X101806998Y-102647383D01*
X101807239Y-102647335D01*
X101808276Y-102647127D01*
X101808286Y-102647127D01*
X102008569Y-102586372D01*
X102193150Y-102487711D01*
X102354936Y-102354936D01*
X102487711Y-102193150D01*
X102586372Y-102008569D01*
X102647127Y-101808286D01*
X102667641Y-101600000D01*
X125932359Y-101600000D01*
X125952872Y-101808284D01*
X126013629Y-102008571D01*
X126112291Y-102193153D01*
X126245063Y-102354936D01*
X126406846Y-102487708D01*
X126406850Y-102487711D01*
X126591431Y-102586372D01*
X126791714Y-102647127D01*
X127000000Y-102667641D01*
X127208286Y-102647127D01*
X127408569Y-102586372D01*
X127593150Y-102487711D01*
X127754936Y-102354936D01*
X127887711Y-102193150D01*
X127986372Y-102008569D01*
X128047127Y-101808286D01*
X128067641Y-101600000D01*
X128047127Y-101391714D01*
X127986372Y-101191431D01*
X127887711Y-101006850D01*
X127887708Y-101006846D01*
X127754936Y-100845063D01*
X127593153Y-100712291D01*
X127593151Y-100712290D01*
X127593150Y-100712289D01*
X127408569Y-100613628D01*
X127308427Y-100583250D01*
X127208284Y-100552872D01*
X127000000Y-100532359D01*
X126791715Y-100552872D01*
X126591428Y-100613629D01*
X126406846Y-100712291D01*
X126245063Y-100845063D01*
X126112291Y-101006846D01*
X126013629Y-101191428D01*
X125952872Y-101391715D01*
X125932359Y-101600000D01*
X102667641Y-101600000D01*
X102647127Y-101391714D01*
X102586372Y-101191431D01*
X102487711Y-101006850D01*
X102487708Y-101006846D01*
X102354936Y-100845063D01*
X102193153Y-100712291D01*
X102193151Y-100712290D01*
X102193150Y-100712289D01*
X102008569Y-100613628D01*
X101908427Y-100583250D01*
X101808284Y-100552872D01*
X101600000Y-100532359D01*
X101391715Y-100552872D01*
X101191428Y-100613629D01*
X101006846Y-100712291D01*
X100845063Y-100845063D01*
X100712291Y-101006846D01*
X100613629Y-101191428D01*
X100552872Y-101391715D01*
X100532359Y-101600000D01*
X100552872Y-101808284D01*
X100613629Y-102008571D01*
X100712291Y-102193153D01*
X100845063Y-102354936D01*
X101006846Y-102487708D01*
X101006850Y-102487711D01*
X101191431Y-102586372D01*
X101391714Y-102647127D01*
X101391716Y-102647127D01*
X101391719Y-102647128D01*
X101392763Y-102647336D01*
X101393259Y-102647595D01*
X101397543Y-102648895D01*
X101397296Y-102649707D01*
X101454674Y-102679721D01*
X101489248Y-102740437D01*
X101485508Y-102810207D01*
X101444641Y-102866878D01*
X101385137Y-102890290D01*
X101385348Y-102891486D01*
X101380013Y-102892426D01*
X101166729Y-102949575D01*
X101166720Y-102949579D01*
X100966590Y-103042901D01*
X100901811Y-103088258D01*
X101572553Y-103759000D01*
X101549840Y-103759000D01*
X101452939Y-103784964D01*
X101366060Y-103835124D01*
X101295124Y-103906060D01*
X101244964Y-103992939D01*
X101219000Y-104089840D01*
X101219000Y-104112553D01*
X100548258Y-103441811D01*
X100502901Y-103506590D01*
X100409579Y-103706720D01*
X100409575Y-103706729D01*
X100352426Y-103920013D01*
X100352424Y-103920023D01*
X100333179Y-104139999D01*
X61460500Y-104139999D01*
X61460500Y-99099997D01*
X71085034Y-99099997D01*
X71085034Y-99100002D01*
X71104858Y-99326599D01*
X71104860Y-99326610D01*
X71163730Y-99546317D01*
X71163735Y-99546331D01*
X71259863Y-99752478D01*
X71310974Y-99825472D01*
X71990000Y-99146446D01*
X71990000Y-99152661D01*
X72017259Y-99254394D01*
X72069920Y-99345606D01*
X72144394Y-99420080D01*
X72235606Y-99472741D01*
X72337339Y-99500000D01*
X72343553Y-99500000D01*
X71664526Y-100179025D01*
X71737512Y-100230131D01*
X71808252Y-100263117D01*
X71860691Y-100309289D01*
X71879844Y-100376482D01*
X71859629Y-100443364D01*
X71806464Y-100488699D01*
X71755849Y-100499500D01*
X71545143Y-100499500D01*
X71545117Y-100499502D01*
X71520012Y-100502413D01*
X71520008Y-100502415D01*
X71417235Y-100547793D01*
X71337794Y-100627234D01*
X71292415Y-100730006D01*
X71292415Y-100730008D01*
X71289500Y-100755131D01*
X71289500Y-102444856D01*
X71289502Y-102444882D01*
X71292413Y-102469987D01*
X71292415Y-102469991D01*
X71337793Y-102572764D01*
X71337794Y-102572765D01*
X71417235Y-102652206D01*
X71520009Y-102697585D01*
X71545135Y-102700500D01*
X73234864Y-102700499D01*
X73234879Y-102700497D01*
X73234882Y-102700497D01*
X73259987Y-102697586D01*
X73259988Y-102697585D01*
X73259991Y-102697585D01*
X73362765Y-102652206D01*
X73442206Y-102572765D01*
X73487585Y-102469991D01*
X73490500Y-102444865D01*
X73490499Y-100755136D01*
X73490497Y-100755117D01*
X73487586Y-100730012D01*
X73487585Y-100730010D01*
X73487585Y-100730009D01*
X73442206Y-100627235D01*
X73362765Y-100547794D01*
X73327808Y-100532359D01*
X73259992Y-100502415D01*
X73234868Y-100499500D01*
X73024153Y-100499500D01*
X72957114Y-100479815D01*
X72911359Y-100427011D01*
X72901415Y-100357853D01*
X72930440Y-100294297D01*
X72971749Y-100263118D01*
X73042478Y-100230136D01*
X73115471Y-100179024D01*
X72436447Y-99500000D01*
X72442661Y-99500000D01*
X72544394Y-99472741D01*
X72635606Y-99420080D01*
X72710080Y-99345606D01*
X72762741Y-99254394D01*
X72790000Y-99152661D01*
X72790000Y-99146447D01*
X73469024Y-99825471D01*
X73520136Y-99752478D01*
X73616264Y-99546331D01*
X73616269Y-99546317D01*
X73675139Y-99326610D01*
X73675141Y-99326599D01*
X73694966Y-99100002D01*
X73694966Y-99099997D01*
X73691467Y-99059999D01*
X76203179Y-99059999D01*
X76203179Y-99060000D01*
X76222424Y-99279976D01*
X76222426Y-99279986D01*
X76279575Y-99493270D01*
X76279580Y-99493284D01*
X76372898Y-99693405D01*
X76372901Y-99693411D01*
X76418258Y-99758187D01*
X76418259Y-99758188D01*
X77089000Y-99087447D01*
X77089000Y-99110160D01*
X77114964Y-99207061D01*
X77165124Y-99293940D01*
X77236060Y-99364876D01*
X77322939Y-99415036D01*
X77419840Y-99441000D01*
X77442553Y-99441000D01*
X76771810Y-100111740D01*
X76836590Y-100157099D01*
X76836592Y-100157100D01*
X77036715Y-100250419D01*
X77036729Y-100250424D01*
X77250013Y-100307573D01*
X77255348Y-100308514D01*
X77255126Y-100309771D01*
X77314430Y-100332957D01*
X77355418Y-100389541D01*
X77359309Y-100459302D01*
X77324866Y-100520092D01*
X77267315Y-100550354D01*
X77267543Y-100551105D01*
X77263633Y-100552290D01*
X77263025Y-100552611D01*
X77262779Y-100552660D01*
X77261725Y-100552869D01*
X77061428Y-100613629D01*
X76876846Y-100712291D01*
X76715063Y-100845063D01*
X76582291Y-101006846D01*
X76483629Y-101191428D01*
X76422872Y-101391715D01*
X76402359Y-101600000D01*
X76422872Y-101808284D01*
X76483629Y-102008571D01*
X76582291Y-102193153D01*
X76715063Y-102354936D01*
X76876846Y-102487708D01*
X76876850Y-102487711D01*
X77061431Y-102586372D01*
X77261714Y-102647127D01*
X77470000Y-102667641D01*
X77678286Y-102647127D01*
X77878569Y-102586372D01*
X78063150Y-102487711D01*
X78224936Y-102354936D01*
X78357711Y-102193150D01*
X78456372Y-102008569D01*
X78517127Y-101808286D01*
X78537641Y-101600000D01*
X78517127Y-101391714D01*
X78456372Y-101191431D01*
X78357711Y-101006850D01*
X78357708Y-101006846D01*
X78224936Y-100845063D01*
X78063153Y-100712291D01*
X78063151Y-100712290D01*
X78063150Y-100712289D01*
X77878569Y-100613628D01*
X77678286Y-100552873D01*
X77678285Y-100552872D01*
X77678279Y-100552871D01*
X77677223Y-100552661D01*
X77676721Y-100552398D01*
X77672457Y-100551105D01*
X77672702Y-100550295D01*
X77615315Y-100520268D01*
X77580748Y-100459549D01*
X77584496Y-100389780D01*
X77625369Y-100333112D01*
X77684863Y-100309711D01*
X77684652Y-100308514D01*
X77689986Y-100307573D01*
X77903270Y-100250424D01*
X77903284Y-100250419D01*
X78103407Y-100157100D01*
X78103417Y-100157094D01*
X78168188Y-100111741D01*
X77497448Y-99441000D01*
X77520160Y-99441000D01*
X77617061Y-99415036D01*
X77703940Y-99364876D01*
X77774876Y-99293940D01*
X77825036Y-99207061D01*
X77851000Y-99110160D01*
X77851000Y-99087447D01*
X78521741Y-99758188D01*
X78567094Y-99693417D01*
X78567100Y-99693407D01*
X78660419Y-99493284D01*
X78660424Y-99493270D01*
X78717573Y-99279986D01*
X78717575Y-99279976D01*
X78736821Y-99060000D01*
X78736821Y-99059999D01*
X88903179Y-99059999D01*
X88903179Y-99060000D01*
X88922424Y-99279976D01*
X88922426Y-99279986D01*
X88979575Y-99493270D01*
X88979580Y-99493284D01*
X89072898Y-99693405D01*
X89072901Y-99693411D01*
X89118258Y-99758187D01*
X89118259Y-99758188D01*
X89789000Y-99087447D01*
X89789000Y-99110160D01*
X89814964Y-99207061D01*
X89865124Y-99293940D01*
X89936060Y-99364876D01*
X90022939Y-99415036D01*
X90119840Y-99441000D01*
X90142553Y-99441000D01*
X89471810Y-100111740D01*
X89536590Y-100157099D01*
X89536592Y-100157100D01*
X89736715Y-100250419D01*
X89736729Y-100250424D01*
X89950013Y-100307573D01*
X89955348Y-100308514D01*
X89955126Y-100309771D01*
X90014430Y-100332957D01*
X90055418Y-100389541D01*
X90059309Y-100459302D01*
X90024866Y-100520092D01*
X89967315Y-100550354D01*
X89967543Y-100551105D01*
X89963633Y-100552290D01*
X89963025Y-100552611D01*
X89962779Y-100552660D01*
X89961725Y-100552869D01*
X89761428Y-100613629D01*
X89576846Y-100712291D01*
X89415063Y-100845063D01*
X89282291Y-101006846D01*
X89183629Y-101191428D01*
X89122872Y-101391715D01*
X89102359Y-101600000D01*
X89122872Y-101808284D01*
X89183629Y-102008571D01*
X89282291Y-102193153D01*
X89415063Y-102354936D01*
X89576846Y-102487708D01*
X89576850Y-102487711D01*
X89761431Y-102586372D01*
X89961714Y-102647127D01*
X90170000Y-102667641D01*
X90378286Y-102647127D01*
X90578569Y-102586372D01*
X90763150Y-102487711D01*
X90924936Y-102354936D01*
X91057711Y-102193150D01*
X91156372Y-102008569D01*
X91217127Y-101808286D01*
X91237641Y-101600000D01*
X91217127Y-101391714D01*
X91156372Y-101191431D01*
X91057711Y-101006850D01*
X91057708Y-101006846D01*
X90924936Y-100845063D01*
X90763153Y-100712291D01*
X90763151Y-100712290D01*
X90763150Y-100712289D01*
X90578569Y-100613628D01*
X90378286Y-100552873D01*
X90378285Y-100552872D01*
X90378279Y-100552871D01*
X90377223Y-100552661D01*
X90376721Y-100552398D01*
X90372457Y-100551105D01*
X90372702Y-100550295D01*
X90315315Y-100520268D01*
X90280748Y-100459549D01*
X90284496Y-100389780D01*
X90325369Y-100333112D01*
X90384863Y-100309711D01*
X90384652Y-100308514D01*
X90389986Y-100307573D01*
X90603270Y-100250424D01*
X90603284Y-100250419D01*
X90803407Y-100157100D01*
X90803417Y-100157094D01*
X90868188Y-100111741D01*
X90197448Y-99441000D01*
X90220160Y-99441000D01*
X90317061Y-99415036D01*
X90403940Y-99364876D01*
X90474876Y-99293940D01*
X90525036Y-99207061D01*
X90551000Y-99110160D01*
X90551000Y-99087447D01*
X91221741Y-99758188D01*
X91267094Y-99693417D01*
X91267100Y-99693407D01*
X91360419Y-99493284D01*
X91360424Y-99493270D01*
X91417573Y-99279986D01*
X91417575Y-99279976D01*
X91436821Y-99060000D01*
X100532359Y-99060000D01*
X100552872Y-99268284D01*
X100613629Y-99468571D01*
X100712291Y-99653153D01*
X100845063Y-99814936D01*
X101006846Y-99947708D01*
X101006850Y-99947711D01*
X101191431Y-100046372D01*
X101391714Y-100107127D01*
X101600000Y-100127641D01*
X101808286Y-100107127D01*
X102008569Y-100046372D01*
X102193150Y-99947711D01*
X102354936Y-99814936D01*
X102487711Y-99653150D01*
X102586372Y-99468569D01*
X102647127Y-99268286D01*
X102667641Y-99060000D01*
X125932359Y-99060000D01*
X125952872Y-99268284D01*
X126013629Y-99468571D01*
X126112291Y-99653153D01*
X126245063Y-99814936D01*
X126406846Y-99947708D01*
X126406850Y-99947711D01*
X126591431Y-100046372D01*
X126791714Y-100107127D01*
X127000000Y-100127641D01*
X127208286Y-100107127D01*
X127408569Y-100046372D01*
X127593150Y-99947711D01*
X127754936Y-99814936D01*
X127887711Y-99653150D01*
X127986372Y-99468569D01*
X128047127Y-99268286D01*
X128067641Y-99060000D01*
X128047127Y-98851714D01*
X127986372Y-98651431D01*
X127887711Y-98466850D01*
X127871844Y-98447516D01*
X127754936Y-98305063D01*
X127593153Y-98172291D01*
X127593151Y-98172290D01*
X127593150Y-98172289D01*
X127408569Y-98073628D01*
X127308427Y-98043250D01*
X127208284Y-98012872D01*
X127000000Y-97992359D01*
X126791715Y-98012872D01*
X126591428Y-98073629D01*
X126406846Y-98172291D01*
X126245063Y-98305063D01*
X126112291Y-98466846D01*
X126013629Y-98651428D01*
X125952872Y-98851715D01*
X125932359Y-99060000D01*
X102667641Y-99060000D01*
X102647127Y-98851714D01*
X102586372Y-98651431D01*
X102487711Y-98466850D01*
X102471844Y-98447516D01*
X102354936Y-98305063D01*
X102193153Y-98172291D01*
X102193151Y-98172290D01*
X102193150Y-98172289D01*
X102008569Y-98073628D01*
X101908427Y-98043250D01*
X101808284Y-98012872D01*
X101600000Y-97992359D01*
X101391715Y-98012872D01*
X101191428Y-98073629D01*
X101006846Y-98172291D01*
X100845063Y-98305063D01*
X100712291Y-98466846D01*
X100613629Y-98651428D01*
X100552872Y-98851715D01*
X100532359Y-99060000D01*
X91436821Y-99060000D01*
X91436821Y-99059999D01*
X91417575Y-98840023D01*
X91417573Y-98840013D01*
X91360424Y-98626729D01*
X91360420Y-98626720D01*
X91267096Y-98426586D01*
X91221741Y-98361811D01*
X91221740Y-98361810D01*
X90551000Y-99032551D01*
X90551000Y-99009840D01*
X90525036Y-98912939D01*
X90474876Y-98826060D01*
X90403940Y-98755124D01*
X90317061Y-98704964D01*
X90220160Y-98679000D01*
X90197448Y-98679000D01*
X90868188Y-98008259D01*
X90868187Y-98008258D01*
X90803411Y-97962901D01*
X90803405Y-97962898D01*
X90603284Y-97869580D01*
X90603270Y-97869575D01*
X90389986Y-97812426D01*
X90389976Y-97812424D01*
X90170001Y-97793179D01*
X90169999Y-97793179D01*
X89950023Y-97812424D01*
X89950013Y-97812426D01*
X89736729Y-97869575D01*
X89736720Y-97869579D01*
X89536590Y-97962901D01*
X89471811Y-98008258D01*
X90142553Y-98679000D01*
X90119840Y-98679000D01*
X90022939Y-98704964D01*
X89936060Y-98755124D01*
X89865124Y-98826060D01*
X89814964Y-98912939D01*
X89789000Y-99009840D01*
X89789000Y-99032553D01*
X89118258Y-98361811D01*
X89072901Y-98426590D01*
X88979579Y-98626720D01*
X88979575Y-98626729D01*
X88922426Y-98840013D01*
X88922424Y-98840023D01*
X88903179Y-99059999D01*
X78736821Y-99059999D01*
X78717575Y-98840023D01*
X78717573Y-98840013D01*
X78660424Y-98626729D01*
X78660420Y-98626720D01*
X78567096Y-98426586D01*
X78521741Y-98361811D01*
X78521740Y-98361810D01*
X77851000Y-99032551D01*
X77851000Y-99009840D01*
X77825036Y-98912939D01*
X77774876Y-98826060D01*
X77703940Y-98755124D01*
X77617061Y-98704964D01*
X77520160Y-98679000D01*
X77497448Y-98679000D01*
X78168188Y-98008259D01*
X78168187Y-98008258D01*
X78103411Y-97962901D01*
X78103405Y-97962898D01*
X77903284Y-97869580D01*
X77903270Y-97869575D01*
X77689986Y-97812426D01*
X77689976Y-97812424D01*
X77470001Y-97793179D01*
X77469999Y-97793179D01*
X77250023Y-97812424D01*
X77250013Y-97812426D01*
X77036729Y-97869575D01*
X77036720Y-97869579D01*
X76836590Y-97962901D01*
X76771811Y-98008258D01*
X77442553Y-98679000D01*
X77419840Y-98679000D01*
X77322939Y-98704964D01*
X77236060Y-98755124D01*
X77165124Y-98826060D01*
X77114964Y-98912939D01*
X77089000Y-99009840D01*
X77089000Y-99032553D01*
X76418258Y-98361811D01*
X76372901Y-98426590D01*
X76279579Y-98626720D01*
X76279575Y-98626729D01*
X76222426Y-98840013D01*
X76222424Y-98840023D01*
X76203179Y-99059999D01*
X73691467Y-99059999D01*
X73675141Y-98873400D01*
X73675139Y-98873389D01*
X73616269Y-98653682D01*
X73616264Y-98653668D01*
X73520136Y-98447521D01*
X73520132Y-98447513D01*
X73469025Y-98374526D01*
X72790000Y-99053551D01*
X72790000Y-99047339D01*
X72762741Y-98945606D01*
X72710080Y-98854394D01*
X72635606Y-98779920D01*
X72544394Y-98727259D01*
X72442661Y-98700000D01*
X72436448Y-98700000D01*
X73115472Y-98020974D01*
X73042478Y-97969863D01*
X72836331Y-97873735D01*
X72836317Y-97873730D01*
X72616610Y-97814860D01*
X72616599Y-97814858D01*
X72390002Y-97795034D01*
X72389998Y-97795034D01*
X72163400Y-97814858D01*
X72163389Y-97814860D01*
X71943682Y-97873730D01*
X71943673Y-97873734D01*
X71737516Y-97969866D01*
X71737512Y-97969868D01*
X71664526Y-98020973D01*
X71664526Y-98020974D01*
X72343553Y-98700000D01*
X72337339Y-98700000D01*
X72235606Y-98727259D01*
X72144394Y-98779920D01*
X72069920Y-98854394D01*
X72017259Y-98945606D01*
X71990000Y-99047339D01*
X71990000Y-99053552D01*
X71310974Y-98374526D01*
X71310973Y-98374526D01*
X71259868Y-98447512D01*
X71259866Y-98447516D01*
X71163734Y-98653673D01*
X71163730Y-98653682D01*
X71104860Y-98873389D01*
X71104858Y-98873400D01*
X71085034Y-99099997D01*
X61460500Y-99099997D01*
X61460500Y-96520000D01*
X100532359Y-96520000D01*
X100552872Y-96728284D01*
X100613629Y-96928571D01*
X100712291Y-97113153D01*
X100845063Y-97274936D01*
X101006846Y-97407708D01*
X101006850Y-97407711D01*
X101191431Y-97506372D01*
X101391714Y-97567127D01*
X101600000Y-97587641D01*
X101808286Y-97567127D01*
X102008569Y-97506372D01*
X102193150Y-97407711D01*
X102354936Y-97274936D01*
X102487711Y-97113150D01*
X102586372Y-96928569D01*
X102647127Y-96728286D01*
X102667641Y-96520000D01*
X102667641Y-96519999D01*
X107953179Y-96519999D01*
X107953179Y-96520000D01*
X107972424Y-96739976D01*
X107972426Y-96739986D01*
X108029575Y-96953270D01*
X108029580Y-96953284D01*
X108122898Y-97153405D01*
X108122901Y-97153411D01*
X108168258Y-97218187D01*
X108168259Y-97218188D01*
X108839000Y-96547447D01*
X108839000Y-96570160D01*
X108864964Y-96667061D01*
X108915124Y-96753940D01*
X108986060Y-96824876D01*
X109072939Y-96875036D01*
X109169840Y-96901000D01*
X109192553Y-96901000D01*
X108521810Y-97571740D01*
X108586590Y-97617099D01*
X108586592Y-97617100D01*
X108786715Y-97710419D01*
X108786729Y-97710424D01*
X109000013Y-97767573D01*
X109000023Y-97767575D01*
X109219999Y-97786821D01*
X109220001Y-97786821D01*
X109439976Y-97767575D01*
X109439986Y-97767573D01*
X109653270Y-97710424D01*
X109653284Y-97710419D01*
X109853407Y-97617100D01*
X109853417Y-97617094D01*
X109918188Y-97571741D01*
X109247448Y-96901000D01*
X109270160Y-96901000D01*
X109367061Y-96875036D01*
X109453940Y-96824876D01*
X109524876Y-96753940D01*
X109575036Y-96667061D01*
X109601000Y-96570160D01*
X109601000Y-96547447D01*
X110271741Y-97218188D01*
X110317094Y-97153417D01*
X110317100Y-97153407D01*
X110410419Y-96953284D01*
X110410424Y-96953270D01*
X110467573Y-96739986D01*
X110468514Y-96734652D01*
X110469771Y-96734873D01*
X110492956Y-96675571D01*
X110549539Y-96634581D01*
X110619300Y-96630690D01*
X110680091Y-96665132D01*
X110710355Y-96722684D01*
X110711105Y-96722457D01*
X110712290Y-96726363D01*
X110712610Y-96726972D01*
X110712661Y-96727223D01*
X110712871Y-96728279D01*
X110773629Y-96928571D01*
X110872291Y-97113153D01*
X111005063Y-97274936D01*
X111166846Y-97407708D01*
X111166850Y-97407711D01*
X111351431Y-97506372D01*
X111551714Y-97567127D01*
X111760000Y-97587641D01*
X111968286Y-97567127D01*
X112168569Y-97506372D01*
X112353150Y-97407711D01*
X112514936Y-97274936D01*
X112647711Y-97113150D01*
X112746372Y-96928569D01*
X112807127Y-96728286D01*
X112827641Y-96520000D01*
X125932359Y-96520000D01*
X125952872Y-96728284D01*
X126013629Y-96928571D01*
X126112291Y-97113153D01*
X126245063Y-97274936D01*
X126406846Y-97407708D01*
X126406850Y-97407711D01*
X126591431Y-97506372D01*
X126791714Y-97567127D01*
X127000000Y-97587641D01*
X127208286Y-97567127D01*
X127408569Y-97506372D01*
X127593150Y-97407711D01*
X127754936Y-97274936D01*
X127887711Y-97113150D01*
X127986372Y-96928569D01*
X128047127Y-96728286D01*
X128067641Y-96520000D01*
X128047127Y-96311714D01*
X127986372Y-96111431D01*
X127887711Y-95926850D01*
X127887708Y-95926846D01*
X127754936Y-95765063D01*
X127593153Y-95632291D01*
X127593151Y-95632290D01*
X127593150Y-95632289D01*
X127408569Y-95533628D01*
X127308427Y-95503250D01*
X127208284Y-95472872D01*
X127000000Y-95452359D01*
X126791715Y-95472872D01*
X126591428Y-95533629D01*
X126406846Y-95632291D01*
X126245063Y-95765063D01*
X126112291Y-95926846D01*
X126013629Y-96111428D01*
X125952872Y-96311715D01*
X125932359Y-96520000D01*
X112827641Y-96520000D01*
X112807127Y-96311714D01*
X112746372Y-96111431D01*
X112647711Y-95926850D01*
X112647708Y-95926846D01*
X112514936Y-95765063D01*
X112353153Y-95632291D01*
X112353151Y-95632290D01*
X112353150Y-95632289D01*
X112168569Y-95533628D01*
X112068427Y-95503250D01*
X111968284Y-95472872D01*
X111760000Y-95452359D01*
X111551715Y-95472872D01*
X111351428Y-95533629D01*
X111166846Y-95632291D01*
X111005063Y-95765063D01*
X110872291Y-95926846D01*
X110773629Y-96111428D01*
X110712869Y-96311725D01*
X110712660Y-96312779D01*
X110712398Y-96313278D01*
X110711105Y-96317543D01*
X110710295Y-96317297D01*
X110680266Y-96374686D01*
X110619545Y-96409251D01*
X110549776Y-96405502D01*
X110493110Y-96364627D01*
X110469713Y-96305136D01*
X110468514Y-96305348D01*
X110467573Y-96300013D01*
X110410424Y-96086729D01*
X110410420Y-96086720D01*
X110317096Y-95886586D01*
X110271741Y-95821811D01*
X110271740Y-95821810D01*
X109601000Y-96492551D01*
X109601000Y-96469840D01*
X109575036Y-96372939D01*
X109524876Y-96286060D01*
X109453940Y-96215124D01*
X109367061Y-96164964D01*
X109270160Y-96139000D01*
X109247448Y-96139000D01*
X109918188Y-95468259D01*
X109918187Y-95468258D01*
X109853411Y-95422901D01*
X109853405Y-95422898D01*
X109653284Y-95329580D01*
X109653270Y-95329575D01*
X109439986Y-95272426D01*
X109439976Y-95272424D01*
X109220001Y-95253179D01*
X109219999Y-95253179D01*
X109000023Y-95272424D01*
X109000013Y-95272426D01*
X108786729Y-95329575D01*
X108786720Y-95329579D01*
X108586590Y-95422901D01*
X108521811Y-95468258D01*
X109192553Y-96139000D01*
X109169840Y-96139000D01*
X109072939Y-96164964D01*
X108986060Y-96215124D01*
X108915124Y-96286060D01*
X108864964Y-96372939D01*
X108839000Y-96469840D01*
X108839000Y-96492553D01*
X108168258Y-95821811D01*
X108122901Y-95886590D01*
X108029579Y-96086720D01*
X108029575Y-96086729D01*
X107972426Y-96300013D01*
X107972424Y-96300023D01*
X107953179Y-96519999D01*
X102667641Y-96519999D01*
X102647127Y-96311714D01*
X102586372Y-96111431D01*
X102487711Y-95926850D01*
X102487708Y-95926846D01*
X102354936Y-95765063D01*
X102193153Y-95632291D01*
X102193151Y-95632290D01*
X102193150Y-95632289D01*
X102008569Y-95533628D01*
X101908427Y-95503250D01*
X101808284Y-95472872D01*
X101600000Y-95452359D01*
X101391715Y-95472872D01*
X101191428Y-95533629D01*
X101006846Y-95632291D01*
X100845063Y-95765063D01*
X100712291Y-95926846D01*
X100613629Y-96111428D01*
X100552872Y-96311715D01*
X100532359Y-96520000D01*
X61460500Y-96520000D01*
X61460500Y-93980000D01*
X64972359Y-93980000D01*
X64992872Y-94188284D01*
X65053629Y-94388571D01*
X65152291Y-94573153D01*
X65285063Y-94734936D01*
X65446846Y-94867708D01*
X65446850Y-94867711D01*
X65631431Y-94966372D01*
X65831714Y-95027127D01*
X66040000Y-95047641D01*
X66248286Y-95027127D01*
X66448569Y-94966372D01*
X66633150Y-94867711D01*
X66794936Y-94734936D01*
X66927711Y-94573150D01*
X67026372Y-94388569D01*
X67087127Y-94188286D01*
X67107641Y-93980000D01*
X67512359Y-93980000D01*
X67532872Y-94188284D01*
X67593629Y-94388571D01*
X67692291Y-94573153D01*
X67825063Y-94734936D01*
X67986846Y-94867708D01*
X67986850Y-94867711D01*
X68171431Y-94966372D01*
X68371714Y-95027127D01*
X68580000Y-95047641D01*
X68788286Y-95027127D01*
X68988569Y-94966372D01*
X69173150Y-94867711D01*
X69334936Y-94734936D01*
X69467711Y-94573150D01*
X69566372Y-94388569D01*
X69627127Y-94188286D01*
X69647641Y-93980000D01*
X70052359Y-93980000D01*
X70072872Y-94188284D01*
X70133629Y-94388571D01*
X70232291Y-94573153D01*
X70365063Y-94734936D01*
X70526846Y-94867708D01*
X70526850Y-94867711D01*
X70711431Y-94966372D01*
X70911714Y-95027127D01*
X71120000Y-95047641D01*
X71328286Y-95027127D01*
X71528569Y-94966372D01*
X71713150Y-94867711D01*
X71874936Y-94734936D01*
X72007711Y-94573150D01*
X72106372Y-94388569D01*
X72167127Y-94188286D01*
X72187641Y-93980000D01*
X77672359Y-93980000D01*
X77692872Y-94188284D01*
X77753629Y-94388571D01*
X77852291Y-94573153D01*
X77985063Y-94734936D01*
X78146846Y-94867708D01*
X78146850Y-94867711D01*
X78331431Y-94966372D01*
X78531714Y-95027127D01*
X78740000Y-95047641D01*
X78948286Y-95027127D01*
X79148569Y-94966372D01*
X79333150Y-94867711D01*
X79494936Y-94734936D01*
X79627711Y-94573150D01*
X79726372Y-94388569D01*
X79787127Y-94188286D01*
X79787127Y-94188276D01*
X79787335Y-94187239D01*
X79787595Y-94186741D01*
X79788895Y-94182457D01*
X79789707Y-94182703D01*
X79819719Y-94125328D01*
X79880434Y-94090752D01*
X79950203Y-94094490D01*
X80006876Y-94135355D01*
X80030290Y-94194862D01*
X80031486Y-94194652D01*
X80032426Y-94199986D01*
X80089575Y-94413270D01*
X80089580Y-94413284D01*
X80182898Y-94613405D01*
X80182901Y-94613411D01*
X80228258Y-94678187D01*
X80228259Y-94678188D01*
X80899000Y-94007447D01*
X80899000Y-94030160D01*
X80924964Y-94127061D01*
X80975124Y-94213940D01*
X81046060Y-94284876D01*
X81132939Y-94335036D01*
X81229840Y-94361000D01*
X81252553Y-94361000D01*
X80581810Y-95031740D01*
X80646590Y-95077099D01*
X80646592Y-95077100D01*
X80846715Y-95170419D01*
X80846729Y-95170424D01*
X81060013Y-95227573D01*
X81060023Y-95227575D01*
X81279999Y-95246821D01*
X81280001Y-95246821D01*
X81499976Y-95227575D01*
X81499986Y-95227573D01*
X81713270Y-95170424D01*
X81713284Y-95170419D01*
X81913407Y-95077100D01*
X81913417Y-95077094D01*
X81978188Y-95031741D01*
X81307448Y-94361000D01*
X81330160Y-94361000D01*
X81427061Y-94335036D01*
X81513940Y-94284876D01*
X81584876Y-94213940D01*
X81635036Y-94127061D01*
X81661000Y-94030160D01*
X81661000Y-94007447D01*
X82331741Y-94678188D01*
X82377094Y-94613417D01*
X82377100Y-94613407D01*
X82470419Y-94413284D01*
X82470424Y-94413270D01*
X82527573Y-94199986D01*
X82527575Y-94199976D01*
X82546821Y-93980000D01*
X100532359Y-93980000D01*
X100552872Y-94188284D01*
X100613629Y-94388571D01*
X100712291Y-94573153D01*
X100845063Y-94734936D01*
X101006846Y-94867708D01*
X101006850Y-94867711D01*
X101191431Y-94966372D01*
X101391714Y-95027127D01*
X101600000Y-95047641D01*
X101808286Y-95027127D01*
X102008569Y-94966372D01*
X102193150Y-94867711D01*
X102354936Y-94734936D01*
X102487711Y-94573150D01*
X102586372Y-94388569D01*
X102647127Y-94188286D01*
X102667641Y-93980000D01*
X125932359Y-93980000D01*
X125952872Y-94188284D01*
X126013629Y-94388571D01*
X126112291Y-94573153D01*
X126245063Y-94734936D01*
X126406846Y-94867708D01*
X126406850Y-94867711D01*
X126591431Y-94966372D01*
X126791714Y-95027127D01*
X127000000Y-95047641D01*
X127208286Y-95027127D01*
X127408569Y-94966372D01*
X127593150Y-94867711D01*
X127754936Y-94734936D01*
X127887711Y-94573150D01*
X127986372Y-94388569D01*
X128047127Y-94188286D01*
X128067641Y-93980000D01*
X128047127Y-93771714D01*
X127986372Y-93571431D01*
X127887711Y-93386850D01*
X127887708Y-93386846D01*
X127754936Y-93225063D01*
X127593153Y-93092291D01*
X127593151Y-93092290D01*
X127593150Y-93092289D01*
X127408569Y-92993628D01*
X127308427Y-92963250D01*
X127208284Y-92932872D01*
X127000000Y-92912359D01*
X126791715Y-92932872D01*
X126591428Y-92993629D01*
X126406846Y-93092291D01*
X126245063Y-93225063D01*
X126112291Y-93386846D01*
X126013629Y-93571428D01*
X125952872Y-93771715D01*
X125932359Y-93980000D01*
X102667641Y-93980000D01*
X102647127Y-93771714D01*
X102586372Y-93571431D01*
X102487711Y-93386850D01*
X102487708Y-93386846D01*
X102354936Y-93225063D01*
X102193153Y-93092291D01*
X102193151Y-93092290D01*
X102193150Y-93092289D01*
X102008569Y-92993628D01*
X101908427Y-92963250D01*
X101808284Y-92932872D01*
X101600000Y-92912359D01*
X101391715Y-92932872D01*
X101191428Y-92993629D01*
X101006846Y-93092291D01*
X100845063Y-93225063D01*
X100712291Y-93386846D01*
X100613629Y-93571428D01*
X100552872Y-93771715D01*
X100532359Y-93980000D01*
X82546821Y-93980000D01*
X82546821Y-93979999D01*
X82527575Y-93760023D01*
X82527573Y-93760013D01*
X82470424Y-93546729D01*
X82470420Y-93546720D01*
X82377096Y-93346586D01*
X82331741Y-93281811D01*
X82331740Y-93281810D01*
X81661000Y-93952551D01*
X81661000Y-93929840D01*
X81635036Y-93832939D01*
X81584876Y-93746060D01*
X81513940Y-93675124D01*
X81427061Y-93624964D01*
X81330160Y-93599000D01*
X81307448Y-93599000D01*
X81978188Y-92928259D01*
X81978187Y-92928258D01*
X81913411Y-92882901D01*
X81913405Y-92882898D01*
X81713284Y-92789580D01*
X81713270Y-92789575D01*
X81499986Y-92732426D01*
X81499976Y-92732424D01*
X81280001Y-92713179D01*
X81279999Y-92713179D01*
X81060023Y-92732424D01*
X81060013Y-92732426D01*
X80846729Y-92789575D01*
X80846720Y-92789579D01*
X80646590Y-92882901D01*
X80581811Y-92928258D01*
X81252553Y-93599000D01*
X81229840Y-93599000D01*
X81132939Y-93624964D01*
X81046060Y-93675124D01*
X80975124Y-93746060D01*
X80924964Y-93832939D01*
X80899000Y-93929840D01*
X80899000Y-93952553D01*
X80228258Y-93281811D01*
X80182901Y-93346590D01*
X80089579Y-93546720D01*
X80089575Y-93546729D01*
X80032426Y-93760013D01*
X80031486Y-93765348D01*
X80030233Y-93765127D01*
X80007026Y-93824450D01*
X79950434Y-93865427D01*
X79880672Y-93869303D01*
X79819889Y-93834847D01*
X79789650Y-93777313D01*
X79788895Y-93777543D01*
X79787698Y-93773600D01*
X79787383Y-93772999D01*
X79787336Y-93772763D01*
X79787128Y-93771719D01*
X79787127Y-93771715D01*
X79787127Y-93771714D01*
X79726372Y-93571431D01*
X79627711Y-93386850D01*
X79627708Y-93386846D01*
X79494936Y-93225063D01*
X79333153Y-93092291D01*
X79333151Y-93092290D01*
X79333150Y-93092289D01*
X79148569Y-92993628D01*
X79048427Y-92963250D01*
X78948284Y-92932872D01*
X78740000Y-92912359D01*
X78531715Y-92932872D01*
X78331428Y-92993629D01*
X78146846Y-93092291D01*
X77985063Y-93225063D01*
X77852291Y-93386846D01*
X77753629Y-93571428D01*
X77692872Y-93771715D01*
X77672359Y-93980000D01*
X72187641Y-93980000D01*
X72167127Y-93771714D01*
X72106372Y-93571431D01*
X72007711Y-93386850D01*
X72007708Y-93386846D01*
X71874936Y-93225063D01*
X71713153Y-93092291D01*
X71713151Y-93092290D01*
X71713150Y-93092289D01*
X71528569Y-92993628D01*
X71428427Y-92963250D01*
X71328284Y-92932872D01*
X71120000Y-92912359D01*
X70911715Y-92932872D01*
X70711428Y-92993629D01*
X70526846Y-93092291D01*
X70365063Y-93225063D01*
X70232291Y-93386846D01*
X70133629Y-93571428D01*
X70072872Y-93771715D01*
X70052359Y-93980000D01*
X69647641Y-93980000D01*
X69627127Y-93771714D01*
X69566372Y-93571431D01*
X69467711Y-93386850D01*
X69467708Y-93386846D01*
X69334936Y-93225063D01*
X69173153Y-93092291D01*
X69173151Y-93092290D01*
X69173150Y-93092289D01*
X68988569Y-92993628D01*
X68888427Y-92963250D01*
X68788284Y-92932872D01*
X68580000Y-92912359D01*
X68371715Y-92932872D01*
X68171428Y-92993629D01*
X67986846Y-93092291D01*
X67825063Y-93225063D01*
X67692291Y-93386846D01*
X67593629Y-93571428D01*
X67532872Y-93771715D01*
X67512359Y-93980000D01*
X67107641Y-93980000D01*
X67087127Y-93771714D01*
X67026372Y-93571431D01*
X66927711Y-93386850D01*
X66927708Y-93386846D01*
X66794936Y-93225063D01*
X66633153Y-93092291D01*
X66633151Y-93092290D01*
X66633150Y-93092289D01*
X66448569Y-92993628D01*
X66348427Y-92963250D01*
X66248284Y-92932872D01*
X66040000Y-92912359D01*
X65831715Y-92932872D01*
X65631428Y-92993629D01*
X65446846Y-93092291D01*
X65285063Y-93225063D01*
X65152291Y-93386846D01*
X65053629Y-93571428D01*
X64992872Y-93771715D01*
X64972359Y-93980000D01*
X61460500Y-93980000D01*
X61460500Y-91440000D01*
X100532359Y-91440000D01*
X100552872Y-91648284D01*
X100613629Y-91848571D01*
X100712291Y-92033153D01*
X100845063Y-92194936D01*
X101006846Y-92327708D01*
X101006850Y-92327711D01*
X101191431Y-92426372D01*
X101391714Y-92487127D01*
X101600000Y-92507641D01*
X101808286Y-92487127D01*
X102008569Y-92426372D01*
X102193150Y-92327711D01*
X102354936Y-92194936D01*
X102487711Y-92033150D01*
X102586372Y-91848569D01*
X102647127Y-91648286D01*
X102667641Y-91440000D01*
X125932359Y-91440000D01*
X125952872Y-91648284D01*
X126013629Y-91848571D01*
X126112291Y-92033153D01*
X126245063Y-92194936D01*
X126406846Y-92327708D01*
X126406850Y-92327711D01*
X126591431Y-92426372D01*
X126791714Y-92487127D01*
X127000000Y-92507641D01*
X127208286Y-92487127D01*
X127408569Y-92426372D01*
X127593150Y-92327711D01*
X127754936Y-92194936D01*
X127887711Y-92033150D01*
X127986372Y-91848569D01*
X128047127Y-91648286D01*
X128067641Y-91440000D01*
X128047127Y-91231714D01*
X127986372Y-91031431D01*
X127887711Y-90846850D01*
X127887708Y-90846846D01*
X127754936Y-90685063D01*
X127593153Y-90552291D01*
X127593151Y-90552290D01*
X127593150Y-90552289D01*
X127408569Y-90453628D01*
X127308427Y-90423250D01*
X127208284Y-90392872D01*
X127000000Y-90372359D01*
X126791715Y-90392872D01*
X126591428Y-90453629D01*
X126406846Y-90552291D01*
X126245063Y-90685063D01*
X126112291Y-90846846D01*
X126013629Y-91031428D01*
X125952872Y-91231715D01*
X125932359Y-91440000D01*
X102667641Y-91440000D01*
X102647127Y-91231714D01*
X102586372Y-91031431D01*
X102487711Y-90846850D01*
X102487708Y-90846846D01*
X102354936Y-90685063D01*
X102193153Y-90552291D01*
X102193151Y-90552290D01*
X102193150Y-90552289D01*
X102008569Y-90453628D01*
X101908427Y-90423250D01*
X101808284Y-90392872D01*
X101600000Y-90372359D01*
X101391715Y-90392872D01*
X101191428Y-90453629D01*
X101006846Y-90552291D01*
X100845063Y-90685063D01*
X100712291Y-90846846D01*
X100613629Y-91031428D01*
X100552872Y-91231715D01*
X100532359Y-91440000D01*
X61460500Y-91440000D01*
X61460500Y-88900000D01*
X100532359Y-88900000D01*
X100552872Y-89108284D01*
X100613629Y-89308571D01*
X100712291Y-89493153D01*
X100845063Y-89654936D01*
X100887181Y-89689501D01*
X101006850Y-89787711D01*
X101191431Y-89886372D01*
X101391714Y-89947127D01*
X101600000Y-89967641D01*
X101808286Y-89947127D01*
X102008569Y-89886372D01*
X102193150Y-89787711D01*
X102354936Y-89654936D01*
X102487711Y-89493150D01*
X102586372Y-89308569D01*
X102647127Y-89108286D01*
X102667641Y-88900000D01*
X102647127Y-88691714D01*
X102586372Y-88491431D01*
X102487711Y-88306850D01*
X102392224Y-88190499D01*
X102354936Y-88145063D01*
X102193153Y-88012291D01*
X102193151Y-88012290D01*
X102193150Y-88012289D01*
X102008569Y-87913628D01*
X101877234Y-87873788D01*
X101808284Y-87852872D01*
X101600000Y-87832359D01*
X101391715Y-87852872D01*
X101191428Y-87913629D01*
X101006846Y-88012291D01*
X100845063Y-88145063D01*
X100712291Y-88306846D01*
X100613629Y-88491428D01*
X100552872Y-88691715D01*
X100532359Y-88900000D01*
X61460500Y-88900000D01*
X61460500Y-86339994D01*
X84864859Y-86339994D01*
X84864859Y-86340005D01*
X84885385Y-86587729D01*
X84885387Y-86587738D01*
X84946412Y-86828717D01*
X85046266Y-87056364D01*
X85146564Y-87209882D01*
X85887037Y-86469409D01*
X85904075Y-86532993D01*
X85969901Y-86647007D01*
X86062993Y-86740099D01*
X86177007Y-86805925D01*
X86240590Y-86822962D01*
X85499942Y-87563609D01*
X85546768Y-87600055D01*
X85546770Y-87600056D01*
X85765385Y-87718364D01*
X85765396Y-87718369D01*
X86000506Y-87799083D01*
X86245707Y-87840000D01*
X86494293Y-87840000D01*
X86739493Y-87799083D01*
X86974603Y-87718369D01*
X86974614Y-87718364D01*
X87193228Y-87600057D01*
X87193231Y-87600055D01*
X87240056Y-87563609D01*
X86499409Y-86822962D01*
X86562993Y-86805925D01*
X86677007Y-86740099D01*
X86770099Y-86647007D01*
X86835925Y-86532993D01*
X86852962Y-86469410D01*
X87593434Y-87209882D01*
X87693731Y-87056369D01*
X87793587Y-86828717D01*
X87854612Y-86587738D01*
X87854614Y-86587729D01*
X87875141Y-86340005D01*
X87875141Y-86339994D01*
X87854614Y-86092270D01*
X87854612Y-86092261D01*
X87793587Y-85851282D01*
X87693731Y-85623630D01*
X87593434Y-85470116D01*
X86852962Y-86210589D01*
X86835925Y-86147007D01*
X86770099Y-86032993D01*
X86677007Y-85939901D01*
X86562993Y-85874075D01*
X86499410Y-85857037D01*
X87061316Y-85295131D01*
X88869500Y-85295131D01*
X88869500Y-87384856D01*
X88869502Y-87384882D01*
X88872413Y-87409987D01*
X88872415Y-87409991D01*
X88917793Y-87512764D01*
X88917794Y-87512765D01*
X88997235Y-87592206D01*
X89100009Y-87637585D01*
X89125135Y-87640500D01*
X91214864Y-87640499D01*
X91214879Y-87640497D01*
X91214882Y-87640497D01*
X91239987Y-87637586D01*
X91239988Y-87637585D01*
X91239991Y-87637585D01*
X91342765Y-87592206D01*
X91422206Y-87512765D01*
X91467585Y-87409991D01*
X91470500Y-87384865D01*
X91470500Y-86360000D01*
X100532359Y-86360000D01*
X100552872Y-86568284D01*
X100560655Y-86593940D01*
X100613628Y-86768569D01*
X100674065Y-86881639D01*
X100712291Y-86953153D01*
X100845063Y-87114936D01*
X100935921Y-87189501D01*
X101006850Y-87247711D01*
X101191431Y-87346372D01*
X101391714Y-87407127D01*
X101600000Y-87427641D01*
X101808286Y-87407127D01*
X102008569Y-87346372D01*
X102193150Y-87247711D01*
X102354936Y-87114936D01*
X102487711Y-86953150D01*
X102586372Y-86768569D01*
X102647127Y-86568286D01*
X102667641Y-86360000D01*
X102667641Y-86359999D01*
X125733179Y-86359999D01*
X125733179Y-86360000D01*
X125752424Y-86579976D01*
X125752426Y-86579986D01*
X125809575Y-86793270D01*
X125809580Y-86793284D01*
X125902898Y-86993405D01*
X125902901Y-86993411D01*
X125948258Y-87058187D01*
X125948259Y-87058188D01*
X126619000Y-86387447D01*
X126619000Y-86410160D01*
X126644964Y-86507061D01*
X126695124Y-86593940D01*
X126766060Y-86664876D01*
X126852939Y-86715036D01*
X126949840Y-86741000D01*
X126972553Y-86741000D01*
X126301810Y-87411740D01*
X126366590Y-87457099D01*
X126366592Y-87457100D01*
X126566715Y-87550419D01*
X126566729Y-87550424D01*
X126780013Y-87607573D01*
X126785348Y-87608514D01*
X126785126Y-87609771D01*
X126844430Y-87632957D01*
X126885418Y-87689541D01*
X126889309Y-87759302D01*
X126854866Y-87820092D01*
X126797315Y-87850354D01*
X126797543Y-87851105D01*
X126793633Y-87852290D01*
X126793025Y-87852611D01*
X126792779Y-87852660D01*
X126791725Y-87852869D01*
X126591428Y-87913629D01*
X126406846Y-88012291D01*
X126245063Y-88145063D01*
X126112291Y-88306846D01*
X126013629Y-88491428D01*
X125952872Y-88691715D01*
X125932359Y-88900000D01*
X125952872Y-89108284D01*
X126013629Y-89308571D01*
X126112291Y-89493153D01*
X126245063Y-89654936D01*
X126287181Y-89689501D01*
X126406850Y-89787711D01*
X126591431Y-89886372D01*
X126791714Y-89947127D01*
X127000000Y-89967641D01*
X127208286Y-89947127D01*
X127408569Y-89886372D01*
X127593150Y-89787711D01*
X127754936Y-89654936D01*
X127887711Y-89493150D01*
X127986372Y-89308569D01*
X128047127Y-89108286D01*
X128067641Y-88900000D01*
X128047127Y-88691714D01*
X127986372Y-88491431D01*
X127887711Y-88306850D01*
X127792224Y-88190499D01*
X127754936Y-88145063D01*
X127593153Y-88012291D01*
X127593151Y-88012290D01*
X127593150Y-88012289D01*
X127408569Y-87913628D01*
X127208286Y-87852873D01*
X127208285Y-87852872D01*
X127208279Y-87852871D01*
X127207223Y-87852661D01*
X127206721Y-87852398D01*
X127202457Y-87851105D01*
X127202702Y-87850295D01*
X127145315Y-87820268D01*
X127110748Y-87759549D01*
X127114496Y-87689780D01*
X127155369Y-87633112D01*
X127214863Y-87609711D01*
X127214652Y-87608514D01*
X127219986Y-87607573D01*
X127433270Y-87550424D01*
X127433284Y-87550419D01*
X127633407Y-87457100D01*
X127633417Y-87457094D01*
X127698188Y-87411741D01*
X127027448Y-86741000D01*
X127050160Y-86741000D01*
X127147061Y-86715036D01*
X127233940Y-86664876D01*
X127304876Y-86593940D01*
X127355036Y-86507061D01*
X127381000Y-86410160D01*
X127381000Y-86387447D01*
X128051741Y-87058188D01*
X128097094Y-86993417D01*
X128097100Y-86993407D01*
X128190419Y-86793284D01*
X128190424Y-86793270D01*
X128247573Y-86579986D01*
X128247575Y-86579976D01*
X128266821Y-86360000D01*
X128266821Y-86359999D01*
X128247575Y-86140023D01*
X128247573Y-86140013D01*
X128190424Y-85926729D01*
X128190420Y-85926720D01*
X128097096Y-85726586D01*
X128051741Y-85661811D01*
X128051740Y-85661810D01*
X127381000Y-86332551D01*
X127381000Y-86309840D01*
X127355036Y-86212939D01*
X127304876Y-86126060D01*
X127233940Y-86055124D01*
X127147061Y-86004964D01*
X127050160Y-85979000D01*
X127027448Y-85979000D01*
X127698188Y-85308259D01*
X127698187Y-85308258D01*
X127633411Y-85262901D01*
X127633405Y-85262898D01*
X127433284Y-85169580D01*
X127433270Y-85169575D01*
X127219986Y-85112426D01*
X127214652Y-85111486D01*
X127214872Y-85110233D01*
X127155550Y-85087027D01*
X127114573Y-85030436D01*
X127110696Y-84960674D01*
X127145150Y-84899890D01*
X127202685Y-84869649D01*
X127202457Y-84868895D01*
X127206392Y-84867701D01*
X127206998Y-84867383D01*
X127207239Y-84867335D01*
X127208276Y-84867127D01*
X127208286Y-84867127D01*
X127408569Y-84806372D01*
X127593150Y-84707711D01*
X127754936Y-84574936D01*
X127887711Y-84413150D01*
X127986372Y-84228569D01*
X128047127Y-84028286D01*
X128067641Y-83820000D01*
X128047127Y-83611714D01*
X127986372Y-83411431D01*
X127887711Y-83226850D01*
X127887708Y-83226846D01*
X127754936Y-83065063D01*
X127593153Y-82932291D01*
X127593151Y-82932290D01*
X127593150Y-82932289D01*
X127408569Y-82833628D01*
X127308427Y-82803250D01*
X127208284Y-82772872D01*
X127000000Y-82752359D01*
X126791715Y-82772872D01*
X126591428Y-82833629D01*
X126406846Y-82932291D01*
X126245063Y-83065063D01*
X126112291Y-83226846D01*
X126013629Y-83411428D01*
X125952872Y-83611715D01*
X125932359Y-83820000D01*
X125952872Y-84028284D01*
X125953560Y-84030551D01*
X126013628Y-84228569D01*
X126095444Y-84381636D01*
X126112291Y-84413153D01*
X126245063Y-84574936D01*
X126384661Y-84689501D01*
X126406850Y-84707711D01*
X126591431Y-84806372D01*
X126791714Y-84867127D01*
X126791716Y-84867127D01*
X126791719Y-84867128D01*
X126792763Y-84867336D01*
X126793259Y-84867595D01*
X126797543Y-84868895D01*
X126797296Y-84869707D01*
X126854674Y-84899721D01*
X126889248Y-84960437D01*
X126885508Y-85030207D01*
X126844641Y-85086878D01*
X126785137Y-85110290D01*
X126785348Y-85111486D01*
X126780013Y-85112426D01*
X126566729Y-85169575D01*
X126566720Y-85169579D01*
X126366590Y-85262901D01*
X126301811Y-85308258D01*
X126972553Y-85979000D01*
X126949840Y-85979000D01*
X126852939Y-86004964D01*
X126766060Y-86055124D01*
X126695124Y-86126060D01*
X126644964Y-86212939D01*
X126619000Y-86309840D01*
X126619000Y-86332553D01*
X125948258Y-85661811D01*
X125902901Y-85726590D01*
X125809579Y-85926720D01*
X125809575Y-85926729D01*
X125752426Y-86140013D01*
X125752424Y-86140023D01*
X125733179Y-86359999D01*
X102667641Y-86359999D01*
X102647127Y-86151714D01*
X102586372Y-85951431D01*
X102487711Y-85766850D01*
X102487708Y-85766846D01*
X102354936Y-85605063D01*
X102193153Y-85472291D01*
X102193151Y-85472290D01*
X102193150Y-85472289D01*
X102008868Y-85373788D01*
X102008571Y-85373629D01*
X102008570Y-85373628D01*
X102008569Y-85373628D01*
X101908427Y-85343250D01*
X101808284Y-85312872D01*
X101600000Y-85292359D01*
X101391715Y-85312872D01*
X101191428Y-85373629D01*
X101006846Y-85472291D01*
X100845063Y-85605063D01*
X100712291Y-85766846D01*
X100613629Y-85951428D01*
X100552872Y-86151715D01*
X100532359Y-86360000D01*
X91470500Y-86360000D01*
X91470499Y-85295136D01*
X91470177Y-85292359D01*
X91467586Y-85270012D01*
X91467585Y-85270010D01*
X91467585Y-85270009D01*
X91422206Y-85167235D01*
X91342765Y-85087794D01*
X91324984Y-85079943D01*
X91239992Y-85042415D01*
X91214865Y-85039500D01*
X89125143Y-85039500D01*
X89125117Y-85039502D01*
X89100012Y-85042413D01*
X89100008Y-85042415D01*
X88997235Y-85087793D01*
X88917794Y-85167234D01*
X88872415Y-85270006D01*
X88872415Y-85270008D01*
X88869500Y-85295131D01*
X87061316Y-85295131D01*
X87240057Y-85116390D01*
X87240056Y-85116389D01*
X87193229Y-85079943D01*
X86974614Y-84961635D01*
X86974603Y-84961630D01*
X86739493Y-84880916D01*
X86494293Y-84840000D01*
X86245707Y-84840000D01*
X86000506Y-84880916D01*
X85765396Y-84961630D01*
X85765390Y-84961632D01*
X85546761Y-85079949D01*
X85499942Y-85116388D01*
X85499942Y-85116390D01*
X86240590Y-85857037D01*
X86177007Y-85874075D01*
X86062993Y-85939901D01*
X85969901Y-86032993D01*
X85904075Y-86147007D01*
X85887037Y-86210589D01*
X85146564Y-85470116D01*
X85046267Y-85623632D01*
X84946412Y-85851282D01*
X84885387Y-86092261D01*
X84885385Y-86092270D01*
X84864859Y-86339994D01*
X61460500Y-86339994D01*
X61460500Y-83820000D01*
X100532359Y-83820000D01*
X100552872Y-84028284D01*
X100553560Y-84030551D01*
X100613628Y-84228569D01*
X100695444Y-84381636D01*
X100712291Y-84413153D01*
X100845063Y-84574936D01*
X100984661Y-84689501D01*
X101006850Y-84707711D01*
X101191431Y-84806372D01*
X101391714Y-84867127D01*
X101600000Y-84887641D01*
X101808286Y-84867127D01*
X102008569Y-84806372D01*
X102193150Y-84707711D01*
X102354936Y-84574936D01*
X102487711Y-84413150D01*
X102586372Y-84228569D01*
X102647127Y-84028286D01*
X102667641Y-83820000D01*
X102647127Y-83611714D01*
X102586372Y-83411431D01*
X102487711Y-83226850D01*
X102487708Y-83226846D01*
X102354936Y-83065063D01*
X102193153Y-82932291D01*
X102193151Y-82932290D01*
X102193150Y-82932289D01*
X102008569Y-82833628D01*
X101908427Y-82803250D01*
X101808284Y-82772872D01*
X101600000Y-82752359D01*
X101391715Y-82772872D01*
X101191428Y-82833629D01*
X101006846Y-82932291D01*
X100845063Y-83065063D01*
X100712291Y-83226846D01*
X100613629Y-83411428D01*
X100552872Y-83611715D01*
X100532359Y-83820000D01*
X61460500Y-83820000D01*
X61460500Y-81280000D01*
X100532359Y-81280000D01*
X100552872Y-81488284D01*
X100552873Y-81488286D01*
X100613628Y-81688569D01*
X100683930Y-81820095D01*
X100712291Y-81873153D01*
X100845063Y-82034936D01*
X100912126Y-82089973D01*
X101006850Y-82167711D01*
X101191431Y-82266372D01*
X101391714Y-82327127D01*
X101600000Y-82347641D01*
X101808286Y-82327127D01*
X102008569Y-82266372D01*
X102193150Y-82167711D01*
X102354936Y-82034936D01*
X102487711Y-81873150D01*
X102586372Y-81688569D01*
X102647127Y-81488286D01*
X102667641Y-81280000D01*
X125932359Y-81280000D01*
X125952872Y-81488284D01*
X125952873Y-81488286D01*
X126013628Y-81688569D01*
X126083930Y-81820095D01*
X126112291Y-81873153D01*
X126245063Y-82034936D01*
X126312126Y-82089973D01*
X126406850Y-82167711D01*
X126591431Y-82266372D01*
X126791714Y-82327127D01*
X127000000Y-82347641D01*
X127208286Y-82327127D01*
X127408569Y-82266372D01*
X127593150Y-82167711D01*
X127754936Y-82034936D01*
X127887711Y-81873150D01*
X127986372Y-81688569D01*
X128047127Y-81488286D01*
X128067641Y-81280000D01*
X128047127Y-81071714D01*
X127986372Y-80871431D01*
X127942853Y-80790013D01*
X133145000Y-80790013D01*
X133145000Y-81190000D01*
X134215854Y-81190000D01*
X134177370Y-81256657D01*
X134145000Y-81377465D01*
X134145000Y-81502535D01*
X134177370Y-81623343D01*
X134215854Y-81690000D01*
X133145001Y-81690000D01*
X133145001Y-82089986D01*
X133155494Y-82192697D01*
X133210641Y-82359119D01*
X133210643Y-82359124D01*
X133302684Y-82508345D01*
X133426654Y-82632315D01*
X133575875Y-82724356D01*
X133575880Y-82724358D01*
X133742302Y-82779505D01*
X133742309Y-82779506D01*
X133763769Y-82781699D01*
X133828460Y-82808095D01*
X133868612Y-82865276D01*
X133871475Y-82935087D01*
X133836141Y-82995364D01*
X133824051Y-83005375D01*
X133745505Y-83062441D01*
X133745500Y-83062445D01*
X133617445Y-83190500D01*
X133617441Y-83190505D01*
X133511006Y-83337002D01*
X133428788Y-83498360D01*
X133428787Y-83498363D01*
X133372829Y-83670589D01*
X133344500Y-83849448D01*
X133344500Y-84030551D01*
X133372829Y-84209410D01*
X133428787Y-84381636D01*
X133428788Y-84381639D01*
X133511006Y-84542997D01*
X133617441Y-84689494D01*
X133617445Y-84689499D01*
X133745500Y-84817554D01*
X133745505Y-84817558D01*
X133817203Y-84869649D01*
X133892006Y-84923996D01*
X133997484Y-84977740D01*
X134053360Y-85006211D01*
X134053363Y-85006212D01*
X134127214Y-85030207D01*
X134225591Y-85062171D01*
X134250291Y-85066083D01*
X134259406Y-85067527D01*
X134322540Y-85097457D01*
X134359471Y-85156768D01*
X134358473Y-85226631D01*
X134319863Y-85284863D01*
X134259406Y-85312473D01*
X134225589Y-85317829D01*
X134053363Y-85373787D01*
X134053360Y-85373788D01*
X133892002Y-85456006D01*
X133745505Y-85562441D01*
X133745500Y-85562445D01*
X133617445Y-85690500D01*
X133617441Y-85690505D01*
X133511006Y-85837002D01*
X133428788Y-85998360D01*
X133428787Y-85998363D01*
X133372829Y-86170589D01*
X133344500Y-86349448D01*
X133344500Y-86530551D01*
X133372829Y-86709410D01*
X133428787Y-86881636D01*
X133428788Y-86881639D01*
X133511006Y-87042997D01*
X133617441Y-87189494D01*
X133617445Y-87189499D01*
X133745500Y-87317554D01*
X133745505Y-87317558D01*
X133838170Y-87384882D01*
X133892006Y-87423996D01*
X133997484Y-87477740D01*
X134053360Y-87506211D01*
X134053363Y-87506212D01*
X134073529Y-87512764D01*
X134225591Y-87562171D01*
X134250291Y-87566083D01*
X134259406Y-87567527D01*
X134322540Y-87597457D01*
X134359471Y-87656768D01*
X134358473Y-87726631D01*
X134319863Y-87784863D01*
X134259406Y-87812473D01*
X134225589Y-87817829D01*
X134053363Y-87873787D01*
X134053360Y-87873788D01*
X133892002Y-87956006D01*
X133745505Y-88062441D01*
X133745500Y-88062445D01*
X133617445Y-88190500D01*
X133617441Y-88190505D01*
X133511006Y-88337002D01*
X133428788Y-88498360D01*
X133428787Y-88498363D01*
X133372829Y-88670589D01*
X133344500Y-88849448D01*
X133344500Y-89030551D01*
X133372829Y-89209410D01*
X133428787Y-89381636D01*
X133428788Y-89381639D01*
X133511006Y-89542997D01*
X133617441Y-89689494D01*
X133617445Y-89689499D01*
X133745500Y-89817554D01*
X133745505Y-89817558D01*
X133840218Y-89886370D01*
X133892006Y-89923996D01*
X133977662Y-89967640D01*
X134053360Y-90006211D01*
X134053363Y-90006212D01*
X134139476Y-90034191D01*
X134225591Y-90062171D01*
X134250291Y-90066083D01*
X134259406Y-90067527D01*
X134322540Y-90097457D01*
X134359471Y-90156768D01*
X134358473Y-90226631D01*
X134319863Y-90284863D01*
X134259406Y-90312473D01*
X134225589Y-90317829D01*
X134053363Y-90373787D01*
X134053360Y-90373788D01*
X133892002Y-90456006D01*
X133745505Y-90562441D01*
X133745500Y-90562445D01*
X133617445Y-90690500D01*
X133617441Y-90690505D01*
X133511006Y-90837002D01*
X133428788Y-90998360D01*
X133428787Y-90998363D01*
X133372829Y-91170589D01*
X133344500Y-91349448D01*
X133344500Y-91530551D01*
X133372829Y-91709410D01*
X133428787Y-91881636D01*
X133428788Y-91881639D01*
X133484664Y-91991300D01*
X133505988Y-92033150D01*
X133511006Y-92042997D01*
X133617441Y-92189494D01*
X133617445Y-92189499D01*
X133745500Y-92317554D01*
X133745505Y-92317558D01*
X133759480Y-92327711D01*
X133892006Y-92423996D01*
X133997484Y-92477740D01*
X134053360Y-92506211D01*
X134053363Y-92506212D01*
X134139476Y-92534191D01*
X134225591Y-92562171D01*
X134308429Y-92575291D01*
X134404449Y-92590500D01*
X134404454Y-92590500D01*
X134835551Y-92590500D01*
X134922259Y-92576765D01*
X135014409Y-92562171D01*
X135186639Y-92506211D01*
X135347994Y-92423996D01*
X135494501Y-92317553D01*
X135622553Y-92189501D01*
X135728996Y-92042994D01*
X135811211Y-91881639D01*
X135867171Y-91709409D01*
X135881765Y-91617259D01*
X135895500Y-91530551D01*
X135895500Y-91349448D01*
X135876852Y-91231714D01*
X135867171Y-91170591D01*
X135811211Y-90998361D01*
X135811211Y-90998360D01*
X135782740Y-90942484D01*
X135728996Y-90837006D01*
X135715396Y-90818287D01*
X135622558Y-90690505D01*
X135622554Y-90690500D01*
X135494499Y-90562445D01*
X135494494Y-90562441D01*
X135347997Y-90456006D01*
X135347996Y-90456005D01*
X135347994Y-90456004D01*
X135296300Y-90429664D01*
X135186639Y-90373788D01*
X135186636Y-90373787D01*
X135014410Y-90317829D01*
X134980594Y-90312473D01*
X134917459Y-90282544D01*
X134880528Y-90223232D01*
X134881526Y-90153370D01*
X134920136Y-90095137D01*
X134980594Y-90067527D01*
X134988388Y-90066292D01*
X135014409Y-90062171D01*
X135186639Y-90006211D01*
X135347994Y-89923996D01*
X135494501Y-89817553D01*
X135622553Y-89689501D01*
X135728996Y-89542994D01*
X135811211Y-89381639D01*
X135867171Y-89209409D01*
X135883188Y-89108284D01*
X135895500Y-89030551D01*
X135895500Y-88849448D01*
X135879019Y-88745397D01*
X135867171Y-88670591D01*
X135811211Y-88498361D01*
X135811211Y-88498360D01*
X135782740Y-88442484D01*
X135728996Y-88337006D01*
X135707084Y-88306846D01*
X135622558Y-88190505D01*
X135622554Y-88190500D01*
X135494499Y-88062445D01*
X135494494Y-88062441D01*
X135347997Y-87956006D01*
X135347996Y-87956005D01*
X135347994Y-87956004D01*
X135264829Y-87913629D01*
X135186639Y-87873788D01*
X135186636Y-87873787D01*
X135014410Y-87817829D01*
X134980594Y-87812473D01*
X134917459Y-87782544D01*
X134880528Y-87723232D01*
X134881526Y-87653370D01*
X134920136Y-87595137D01*
X134980594Y-87567527D01*
X134988388Y-87566292D01*
X135014409Y-87562171D01*
X135186639Y-87506211D01*
X135347994Y-87423996D01*
X135494501Y-87317553D01*
X135622553Y-87189501D01*
X135728996Y-87042994D01*
X135811211Y-86881639D01*
X135867171Y-86709409D01*
X135881765Y-86617259D01*
X135895500Y-86530551D01*
X135895500Y-86349448D01*
X135873878Y-86212939D01*
X135867171Y-86170591D01*
X135829654Y-86055124D01*
X135811212Y-85998363D01*
X135811211Y-85998360D01*
X135774708Y-85926720D01*
X135728996Y-85837006D01*
X135648772Y-85726586D01*
X135622558Y-85690505D01*
X135622554Y-85690500D01*
X135494499Y-85562445D01*
X135494494Y-85562441D01*
X135347997Y-85456006D01*
X135347996Y-85456005D01*
X135347994Y-85456004D01*
X135296300Y-85429664D01*
X135186639Y-85373788D01*
X135186636Y-85373787D01*
X135014410Y-85317829D01*
X134980594Y-85312473D01*
X134917459Y-85282544D01*
X134880528Y-85223232D01*
X134881526Y-85153370D01*
X134920136Y-85095137D01*
X134980594Y-85067527D01*
X134988388Y-85066292D01*
X135014409Y-85062171D01*
X135186639Y-85006211D01*
X135347994Y-84923996D01*
X135494501Y-84817553D01*
X135622553Y-84689501D01*
X135728996Y-84542994D01*
X135811211Y-84381639D01*
X135867171Y-84209409D01*
X135881765Y-84117259D01*
X135895500Y-84030551D01*
X135895500Y-83849448D01*
X135879019Y-83745397D01*
X135867171Y-83670591D01*
X135811211Y-83498361D01*
X135811211Y-83498360D01*
X135782740Y-83442484D01*
X135728996Y-83337006D01*
X135715396Y-83318287D01*
X135622558Y-83190505D01*
X135622554Y-83190500D01*
X135494499Y-83062445D01*
X135494494Y-83062441D01*
X135415948Y-83005374D01*
X135373282Y-82950044D01*
X135367303Y-82880431D01*
X135399909Y-82818636D01*
X135460747Y-82784279D01*
X135476235Y-82781698D01*
X135497696Y-82779506D01*
X135664119Y-82724358D01*
X135664124Y-82724356D01*
X135813345Y-82632315D01*
X135937315Y-82508345D01*
X136029356Y-82359124D01*
X136029358Y-82359119D01*
X136084505Y-82192697D01*
X136084506Y-82192690D01*
X136094999Y-82089986D01*
X136095000Y-82089973D01*
X136095000Y-81690000D01*
X135024146Y-81690000D01*
X135062630Y-81623343D01*
X135095000Y-81502535D01*
X135095000Y-81377465D01*
X135062630Y-81256657D01*
X135024146Y-81190000D01*
X136094999Y-81190000D01*
X136094999Y-80790028D01*
X136094998Y-80790013D01*
X136084505Y-80687302D01*
X136029358Y-80520880D01*
X136029356Y-80520875D01*
X135937315Y-80371654D01*
X135813345Y-80247684D01*
X135664124Y-80155643D01*
X135664119Y-80155641D01*
X135497697Y-80100494D01*
X135497690Y-80100493D01*
X135394986Y-80090000D01*
X134870000Y-80090000D01*
X134870000Y-81035854D01*
X134803343Y-80997370D01*
X134682535Y-80965000D01*
X134557465Y-80965000D01*
X134436657Y-80997370D01*
X134370000Y-81035854D01*
X134370000Y-80090000D01*
X133845028Y-80090000D01*
X133845012Y-80090001D01*
X133742302Y-80100494D01*
X133575880Y-80155641D01*
X133575875Y-80155643D01*
X133426654Y-80247684D01*
X133302684Y-80371654D01*
X133210643Y-80520875D01*
X133210641Y-80520880D01*
X133155494Y-80687302D01*
X133155493Y-80687309D01*
X133145000Y-80790013D01*
X127942853Y-80790013D01*
X127887711Y-80686850D01*
X127887708Y-80686846D01*
X127754936Y-80525063D01*
X127593153Y-80392291D01*
X127593151Y-80392290D01*
X127593150Y-80392289D01*
X127408569Y-80293628D01*
X127308427Y-80263250D01*
X127208284Y-80232872D01*
X127000000Y-80212359D01*
X126791715Y-80232872D01*
X126591428Y-80293629D01*
X126406846Y-80392291D01*
X126245063Y-80525063D01*
X126112291Y-80686846D01*
X126013629Y-80871428D01*
X125952872Y-81071715D01*
X125932359Y-81280000D01*
X102667641Y-81280000D01*
X102647127Y-81071714D01*
X102586372Y-80871431D01*
X102487711Y-80686850D01*
X102487708Y-80686846D01*
X102354936Y-80525063D01*
X102193153Y-80392291D01*
X102193151Y-80392290D01*
X102193150Y-80392289D01*
X102008569Y-80293628D01*
X101908427Y-80263250D01*
X101808284Y-80232872D01*
X101600000Y-80212359D01*
X101391715Y-80232872D01*
X101191428Y-80293629D01*
X101006846Y-80392291D01*
X100845063Y-80525063D01*
X100712291Y-80686846D01*
X100613629Y-80871428D01*
X100552872Y-81071715D01*
X100532359Y-81280000D01*
X61460500Y-81280000D01*
X61460500Y-78740000D01*
X100532359Y-78740000D01*
X100552872Y-78948284D01*
X100613629Y-79148571D01*
X100712291Y-79333153D01*
X100845063Y-79494936D01*
X101006846Y-79627708D01*
X101006850Y-79627711D01*
X101191431Y-79726372D01*
X101391714Y-79787127D01*
X101600000Y-79807641D01*
X101808286Y-79787127D01*
X102008569Y-79726372D01*
X102193150Y-79627711D01*
X102354936Y-79494936D01*
X102487711Y-79333150D01*
X102586372Y-79148569D01*
X102647127Y-78948286D01*
X102667641Y-78740000D01*
X125932359Y-78740000D01*
X125952872Y-78948284D01*
X126013629Y-79148571D01*
X126112291Y-79333153D01*
X126245063Y-79494936D01*
X126406846Y-79627708D01*
X126406850Y-79627711D01*
X126591431Y-79726372D01*
X126791714Y-79787127D01*
X127000000Y-79807641D01*
X127208286Y-79787127D01*
X127408569Y-79726372D01*
X127593150Y-79627711D01*
X127754936Y-79494936D01*
X127887711Y-79333150D01*
X127986372Y-79148569D01*
X128047127Y-78948286D01*
X128067641Y-78740000D01*
X128047127Y-78531714D01*
X127986372Y-78331431D01*
X127887711Y-78146850D01*
X127887708Y-78146846D01*
X127754936Y-77985063D01*
X127593153Y-77852291D01*
X127593151Y-77852290D01*
X127593150Y-77852289D01*
X127408569Y-77753628D01*
X127308427Y-77723250D01*
X127208284Y-77692872D01*
X127000000Y-77672359D01*
X126791715Y-77692872D01*
X126591428Y-77753629D01*
X126406846Y-77852291D01*
X126245063Y-77985063D01*
X126112291Y-78146846D01*
X126013629Y-78331428D01*
X125952872Y-78531715D01*
X125932359Y-78740000D01*
X102667641Y-78740000D01*
X102647127Y-78531714D01*
X102586372Y-78331431D01*
X102487711Y-78146850D01*
X102487708Y-78146846D01*
X102354936Y-77985063D01*
X102193153Y-77852291D01*
X102193151Y-77852290D01*
X102193150Y-77852289D01*
X102008569Y-77753628D01*
X101908427Y-77723250D01*
X101808284Y-77692872D01*
X101600000Y-77672359D01*
X101391715Y-77692872D01*
X101191428Y-77753629D01*
X101006846Y-77852291D01*
X100845063Y-77985063D01*
X100712291Y-78146846D01*
X100613629Y-78331428D01*
X100552872Y-78531715D01*
X100532359Y-78740000D01*
X61460500Y-78740000D01*
X61460500Y-76199999D01*
X84024785Y-76199999D01*
X84024785Y-76200000D01*
X84043602Y-76403082D01*
X84099417Y-76599247D01*
X84099422Y-76599260D01*
X84190327Y-76781821D01*
X84313237Y-76944581D01*
X84463958Y-77081980D01*
X84463960Y-77081982D01*
X84473208Y-77087708D01*
X84637363Y-77189348D01*
X84827544Y-77263024D01*
X85028024Y-77300500D01*
X85028026Y-77300500D01*
X85231974Y-77300500D01*
X85231976Y-77300500D01*
X85432456Y-77263024D01*
X85622637Y-77189348D01*
X85796041Y-77081981D01*
X85946764Y-76944579D01*
X86069673Y-76781821D01*
X86160582Y-76599250D01*
X86216397Y-76403083D01*
X86235215Y-76200000D01*
X86235215Y-76199999D01*
X89024785Y-76199999D01*
X89024785Y-76200000D01*
X89043602Y-76403082D01*
X89099417Y-76599247D01*
X89099422Y-76599260D01*
X89190327Y-76781821D01*
X89313237Y-76944581D01*
X89463958Y-77081980D01*
X89463960Y-77081982D01*
X89473208Y-77087708D01*
X89637363Y-77189348D01*
X89827544Y-77263024D01*
X90028024Y-77300500D01*
X90028026Y-77300500D01*
X90231974Y-77300500D01*
X90231976Y-77300500D01*
X90432456Y-77263024D01*
X90622637Y-77189348D01*
X90796041Y-77081981D01*
X90946764Y-76944579D01*
X91069673Y-76781821D01*
X91160582Y-76599250D01*
X91216397Y-76403083D01*
X91235215Y-76200000D01*
X100532359Y-76200000D01*
X100552872Y-76408284D01*
X100552873Y-76408286D01*
X100613628Y-76608569D01*
X100706233Y-76781821D01*
X100712291Y-76793153D01*
X100845063Y-76954936D01*
X100999868Y-77081981D01*
X101006850Y-77087711D01*
X101191431Y-77186372D01*
X101391714Y-77247127D01*
X101600000Y-77267641D01*
X101808286Y-77247127D01*
X102008569Y-77186372D01*
X102193150Y-77087711D01*
X102354936Y-76954936D01*
X102487711Y-76793150D01*
X102586372Y-76608569D01*
X102647127Y-76408286D01*
X102667641Y-76200000D01*
X125932359Y-76200000D01*
X125952872Y-76408284D01*
X125952873Y-76408286D01*
X126013628Y-76608569D01*
X126106233Y-76781821D01*
X126112291Y-76793153D01*
X126245063Y-76954936D01*
X126399868Y-77081981D01*
X126406850Y-77087711D01*
X126591431Y-77186372D01*
X126791714Y-77247127D01*
X127000000Y-77267641D01*
X127208286Y-77247127D01*
X127408569Y-77186372D01*
X127593150Y-77087711D01*
X127754936Y-76954936D01*
X127887711Y-76793150D01*
X127986372Y-76608569D01*
X128047127Y-76408286D01*
X128067641Y-76200000D01*
X128047127Y-75991714D01*
X127986372Y-75791431D01*
X127887711Y-75606850D01*
X127887708Y-75606846D01*
X127754936Y-75445063D01*
X127593153Y-75312291D01*
X127593151Y-75312290D01*
X127593150Y-75312289D01*
X127408569Y-75213628D01*
X127308427Y-75183250D01*
X127208284Y-75152872D01*
X127000000Y-75132359D01*
X126791715Y-75152872D01*
X126591428Y-75213629D01*
X126406846Y-75312291D01*
X126245063Y-75445063D01*
X126112291Y-75606846D01*
X126013629Y-75791428D01*
X126013628Y-75791430D01*
X126013628Y-75791431D01*
X126010801Y-75800750D01*
X125952872Y-75991715D01*
X125932359Y-76200000D01*
X102667641Y-76200000D01*
X102647127Y-75991714D01*
X102586372Y-75791431D01*
X102487711Y-75606850D01*
X102487708Y-75606846D01*
X102354936Y-75445063D01*
X102193153Y-75312291D01*
X102193151Y-75312290D01*
X102193150Y-75312289D01*
X102008569Y-75213628D01*
X101908427Y-75183250D01*
X101808284Y-75152872D01*
X101600000Y-75132359D01*
X101391715Y-75152872D01*
X101191428Y-75213629D01*
X101006846Y-75312291D01*
X100845063Y-75445063D01*
X100712291Y-75606846D01*
X100613629Y-75791428D01*
X100613628Y-75791430D01*
X100613628Y-75791431D01*
X100610801Y-75800750D01*
X100552872Y-75991715D01*
X100532359Y-76200000D01*
X91235215Y-76200000D01*
X91216397Y-75996917D01*
X91160582Y-75800750D01*
X91155940Y-75791428D01*
X91102914Y-75684936D01*
X91069673Y-75618179D01*
X90946764Y-75455421D01*
X90946762Y-75455418D01*
X90796041Y-75318019D01*
X90796039Y-75318017D01*
X90622642Y-75210655D01*
X90622635Y-75210651D01*
X90473491Y-75152873D01*
X90432456Y-75136976D01*
X90231976Y-75099500D01*
X90028024Y-75099500D01*
X89827544Y-75136976D01*
X89827541Y-75136976D01*
X89827541Y-75136977D01*
X89637364Y-75210651D01*
X89637357Y-75210655D01*
X89463960Y-75318017D01*
X89463958Y-75318019D01*
X89313237Y-75455418D01*
X89190327Y-75618178D01*
X89099422Y-75800739D01*
X89099417Y-75800752D01*
X89043602Y-75996917D01*
X89024785Y-76199999D01*
X86235215Y-76199999D01*
X86216397Y-75996917D01*
X86160582Y-75800750D01*
X86155940Y-75791428D01*
X86102914Y-75684936D01*
X86069673Y-75618179D01*
X85946764Y-75455421D01*
X85946762Y-75455418D01*
X85796041Y-75318019D01*
X85796039Y-75318017D01*
X85622642Y-75210655D01*
X85622635Y-75210651D01*
X85473491Y-75152873D01*
X85432456Y-75136976D01*
X85231976Y-75099500D01*
X85028024Y-75099500D01*
X84827544Y-75136976D01*
X84827541Y-75136976D01*
X84827541Y-75136977D01*
X84637364Y-75210651D01*
X84637357Y-75210655D01*
X84463960Y-75318017D01*
X84463958Y-75318019D01*
X84313237Y-75455418D01*
X84190327Y-75618178D01*
X84099422Y-75800739D01*
X84099417Y-75800752D01*
X84043602Y-75996917D01*
X84024785Y-76199999D01*
X61460500Y-76199999D01*
X61460500Y-74930000D01*
X64972359Y-74930000D01*
X64992872Y-75138284D01*
X64997298Y-75152873D01*
X65053628Y-75338569D01*
X65116085Y-75455418D01*
X65152291Y-75523153D01*
X65285063Y-75684936D01*
X65446846Y-75817708D01*
X65446850Y-75817711D01*
X65631431Y-75916372D01*
X65831714Y-75977127D01*
X66040000Y-75997641D01*
X66248286Y-75977127D01*
X66448569Y-75916372D01*
X66633150Y-75817711D01*
X66794936Y-75684936D01*
X66927711Y-75523150D01*
X67026372Y-75338569D01*
X67087127Y-75138286D01*
X67107641Y-74930000D01*
X67512359Y-74930000D01*
X67532872Y-75138284D01*
X67537298Y-75152873D01*
X67593628Y-75338569D01*
X67656085Y-75455418D01*
X67692291Y-75523153D01*
X67825063Y-75684936D01*
X67986846Y-75817708D01*
X67986850Y-75817711D01*
X68171431Y-75916372D01*
X68371714Y-75977127D01*
X68580000Y-75997641D01*
X68788286Y-75977127D01*
X68988569Y-75916372D01*
X69173150Y-75817711D01*
X69334936Y-75684936D01*
X69467711Y-75523150D01*
X69566372Y-75338569D01*
X69627127Y-75138286D01*
X69647641Y-74930000D01*
X77672359Y-74930000D01*
X77692872Y-75138284D01*
X77697298Y-75152873D01*
X77753628Y-75338569D01*
X77816085Y-75455418D01*
X77852291Y-75523153D01*
X77985063Y-75684936D01*
X78146846Y-75817708D01*
X78146850Y-75817711D01*
X78331431Y-75916372D01*
X78531714Y-75977127D01*
X78740000Y-75997641D01*
X78948286Y-75977127D01*
X79148569Y-75916372D01*
X79333150Y-75817711D01*
X79494936Y-75684936D01*
X79627711Y-75523150D01*
X79726372Y-75338569D01*
X79787127Y-75138286D01*
X79807641Y-74930000D01*
X80212359Y-74930000D01*
X80232872Y-75138284D01*
X80237298Y-75152873D01*
X80293628Y-75338569D01*
X80356085Y-75455418D01*
X80392291Y-75523153D01*
X80525063Y-75684936D01*
X80686846Y-75817708D01*
X80686850Y-75817711D01*
X80871431Y-75916372D01*
X81071714Y-75977127D01*
X81280000Y-75997641D01*
X81488286Y-75977127D01*
X81688569Y-75916372D01*
X81873150Y-75817711D01*
X82034936Y-75684936D01*
X82167711Y-75523150D01*
X82266372Y-75338569D01*
X82327127Y-75138286D01*
X82347641Y-74930000D01*
X82327127Y-74721714D01*
X82266372Y-74521431D01*
X82167711Y-74336850D01*
X82167708Y-74336846D01*
X82034936Y-74175063D01*
X81873153Y-74042291D01*
X81873151Y-74042290D01*
X81873150Y-74042289D01*
X81688569Y-73943628D01*
X81563227Y-73905606D01*
X81488284Y-73882872D01*
X81280000Y-73862359D01*
X81071715Y-73882872D01*
X80871428Y-73943629D01*
X80686846Y-74042291D01*
X80525063Y-74175063D01*
X80392291Y-74336846D01*
X80293629Y-74521428D01*
X80232872Y-74721715D01*
X80212359Y-74930000D01*
X79807641Y-74930000D01*
X79787127Y-74721714D01*
X79726372Y-74521431D01*
X79627711Y-74336850D01*
X79627708Y-74336846D01*
X79494936Y-74175063D01*
X79333153Y-74042291D01*
X79333151Y-74042290D01*
X79333150Y-74042289D01*
X79148569Y-73943628D01*
X79023227Y-73905606D01*
X78948284Y-73882872D01*
X78740000Y-73862359D01*
X78531715Y-73882872D01*
X78331428Y-73943629D01*
X78146846Y-74042291D01*
X77985063Y-74175063D01*
X77852291Y-74336846D01*
X77753629Y-74521428D01*
X77692872Y-74721715D01*
X77672359Y-74930000D01*
X69647641Y-74930000D01*
X69627127Y-74721714D01*
X69566372Y-74521431D01*
X69467711Y-74336850D01*
X69467708Y-74336846D01*
X69334936Y-74175063D01*
X69173153Y-74042291D01*
X69173151Y-74042290D01*
X69173150Y-74042289D01*
X68988569Y-73943628D01*
X68863227Y-73905606D01*
X68788284Y-73882872D01*
X68580000Y-73862359D01*
X68371715Y-73882872D01*
X68171428Y-73943629D01*
X67986846Y-74042291D01*
X67825063Y-74175063D01*
X67692291Y-74336846D01*
X67593629Y-74521428D01*
X67532872Y-74721715D01*
X67512359Y-74930000D01*
X67107641Y-74930000D01*
X67087127Y-74721714D01*
X67026372Y-74521431D01*
X66927711Y-74336850D01*
X66927708Y-74336846D01*
X66794936Y-74175063D01*
X66633153Y-74042291D01*
X66633151Y-74042290D01*
X66633150Y-74042289D01*
X66448569Y-73943628D01*
X66323227Y-73905606D01*
X66248284Y-73882872D01*
X66040000Y-73862359D01*
X65831715Y-73882872D01*
X65631428Y-73943629D01*
X65446846Y-74042291D01*
X65285063Y-74175063D01*
X65152291Y-74336846D01*
X65053629Y-74521428D01*
X64992872Y-74721715D01*
X64972359Y-74930000D01*
X61460500Y-74930000D01*
X61460500Y-73660000D01*
X100532359Y-73660000D01*
X100552872Y-73868284D01*
X100564194Y-73905606D01*
X100613628Y-74068569D01*
X100670550Y-74175063D01*
X100712291Y-74253153D01*
X100845063Y-74414936D01*
X101006846Y-74547708D01*
X101006850Y-74547711D01*
X101191431Y-74646372D01*
X101391714Y-74707127D01*
X101600000Y-74727641D01*
X101808286Y-74707127D01*
X102008569Y-74646372D01*
X102193150Y-74547711D01*
X102354936Y-74414936D01*
X102487711Y-74253150D01*
X102586372Y-74068569D01*
X102647127Y-73868286D01*
X102667641Y-73660000D01*
X102647127Y-73451714D01*
X102586372Y-73251431D01*
X102487711Y-73066850D01*
X102439017Y-73007516D01*
X102354936Y-72905063D01*
X102245354Y-72815131D01*
X105579500Y-72815131D01*
X105579500Y-74504856D01*
X105579502Y-74504882D01*
X105582413Y-74529987D01*
X105582415Y-74529991D01*
X105627793Y-74632764D01*
X105627794Y-74632765D01*
X105707235Y-74712206D01*
X105810009Y-74757585D01*
X105835135Y-74760500D01*
X107524864Y-74760499D01*
X107524879Y-74760497D01*
X107524882Y-74760497D01*
X107549987Y-74757586D01*
X107549988Y-74757585D01*
X107549991Y-74757585D01*
X107652765Y-74712206D01*
X107732206Y-74632765D01*
X107777585Y-74529991D01*
X107780500Y-74504865D01*
X107780499Y-73659997D01*
X110375034Y-73659997D01*
X110375034Y-73660002D01*
X110394858Y-73886599D01*
X110394860Y-73886610D01*
X110453730Y-74106317D01*
X110453735Y-74106331D01*
X110549863Y-74312478D01*
X110600974Y-74385472D01*
X111280000Y-73706446D01*
X111280000Y-73712661D01*
X111307259Y-73814394D01*
X111359920Y-73905606D01*
X111434394Y-73980080D01*
X111525606Y-74032741D01*
X111627339Y-74060000D01*
X111633553Y-74060000D01*
X110954526Y-74739025D01*
X111027513Y-74790132D01*
X111027521Y-74790136D01*
X111233668Y-74886264D01*
X111233682Y-74886269D01*
X111453389Y-74945139D01*
X111453400Y-74945141D01*
X111679998Y-74964966D01*
X111680002Y-74964966D01*
X111906599Y-74945141D01*
X111906610Y-74945139D01*
X112126317Y-74886269D01*
X112126331Y-74886264D01*
X112332478Y-74790136D01*
X112405471Y-74739024D01*
X111726447Y-74060000D01*
X111732661Y-74060000D01*
X111834394Y-74032741D01*
X111925606Y-73980080D01*
X112000080Y-73905606D01*
X112052741Y-73814394D01*
X112080000Y-73712661D01*
X112080000Y-73706447D01*
X112759024Y-74385471D01*
X112810136Y-74312478D01*
X112906264Y-74106331D01*
X112906269Y-74106317D01*
X112965139Y-73886610D01*
X112965141Y-73886599D01*
X112984966Y-73660002D01*
X112984966Y-73659997D01*
X112965141Y-73433400D01*
X112965139Y-73433389D01*
X112906269Y-73213682D01*
X112906264Y-73213668D01*
X112810136Y-73007521D01*
X112810132Y-73007513D01*
X112759025Y-72934526D01*
X112080000Y-73613551D01*
X112080000Y-73607339D01*
X112052741Y-73505606D01*
X112000080Y-73414394D01*
X111925606Y-73339920D01*
X111834394Y-73287259D01*
X111732661Y-73260000D01*
X111726448Y-73260000D01*
X112405472Y-72580974D01*
X112332478Y-72529863D01*
X112126331Y-72433735D01*
X112126317Y-72433730D01*
X111906610Y-72374860D01*
X111906599Y-72374858D01*
X111680002Y-72355034D01*
X111679998Y-72355034D01*
X111453400Y-72374858D01*
X111453389Y-72374860D01*
X111233682Y-72433730D01*
X111233673Y-72433734D01*
X111027516Y-72529866D01*
X111027512Y-72529868D01*
X110954526Y-72580973D01*
X110954526Y-72580974D01*
X111633553Y-73260000D01*
X111627339Y-73260000D01*
X111525606Y-73287259D01*
X111434394Y-73339920D01*
X111359920Y-73414394D01*
X111307259Y-73505606D01*
X111280000Y-73607339D01*
X111280000Y-73613552D01*
X110600974Y-72934526D01*
X110600973Y-72934526D01*
X110549868Y-73007512D01*
X110549866Y-73007516D01*
X110453734Y-73213673D01*
X110453730Y-73213682D01*
X110394860Y-73433389D01*
X110394858Y-73433400D01*
X110375034Y-73659997D01*
X107780499Y-73659997D01*
X107780499Y-72815136D01*
X107780497Y-72815117D01*
X107777586Y-72790012D01*
X107777585Y-72790010D01*
X107777585Y-72790009D01*
X107732206Y-72687235D01*
X107652765Y-72607794D01*
X107617808Y-72592359D01*
X107549992Y-72562415D01*
X107524865Y-72559500D01*
X105835143Y-72559500D01*
X105835117Y-72559502D01*
X105810012Y-72562413D01*
X105810008Y-72562415D01*
X105707235Y-72607793D01*
X105627794Y-72687234D01*
X105582415Y-72790006D01*
X105582415Y-72790008D01*
X105579500Y-72815131D01*
X102245354Y-72815131D01*
X102193153Y-72772291D01*
X102193151Y-72772290D01*
X102193150Y-72772289D01*
X102008569Y-72673628D01*
X101908427Y-72643250D01*
X101808284Y-72612872D01*
X101600000Y-72592359D01*
X101391715Y-72612872D01*
X101191428Y-72673629D01*
X101006846Y-72772291D01*
X100845063Y-72905063D01*
X100712291Y-73066846D01*
X100613629Y-73251428D01*
X100552872Y-73451715D01*
X100532359Y-73660000D01*
X61460500Y-73660000D01*
X61460500Y-72390000D01*
X62496166Y-72390000D01*
X62515453Y-72585836D01*
X62523655Y-72612873D01*
X62572578Y-72774151D01*
X62665343Y-72947700D01*
X62665345Y-72947702D01*
X62790181Y-73099818D01*
X62882063Y-73175222D01*
X62942300Y-73224657D01*
X63115849Y-73317422D01*
X63304162Y-73374546D01*
X63500000Y-73393834D01*
X63695838Y-73374546D01*
X63884151Y-73317422D01*
X64057700Y-73224657D01*
X64209818Y-73099818D01*
X64334657Y-72947700D01*
X64427422Y-72774151D01*
X64484546Y-72585838D01*
X64503834Y-72390000D01*
X84086166Y-72390000D01*
X84105453Y-72585836D01*
X84113655Y-72612873D01*
X84162578Y-72774151D01*
X84255343Y-72947700D01*
X84255345Y-72947702D01*
X84380181Y-73099818D01*
X84472063Y-73175222D01*
X84532300Y-73224657D01*
X84705849Y-73317422D01*
X84894162Y-73374546D01*
X85090000Y-73393834D01*
X85285838Y-73374546D01*
X85474151Y-73317422D01*
X85647700Y-73224657D01*
X85799818Y-73099818D01*
X85924657Y-72947700D01*
X86017422Y-72774151D01*
X86074546Y-72585838D01*
X86093834Y-72390000D01*
X86074546Y-72194162D01*
X86017422Y-72005849D01*
X85924657Y-71832300D01*
X85859910Y-71753405D01*
X85799818Y-71680181D01*
X85647702Y-71555345D01*
X85647703Y-71555345D01*
X85647700Y-71555343D01*
X85474151Y-71462578D01*
X85349864Y-71424876D01*
X85285836Y-71405453D01*
X85090000Y-71386166D01*
X84894163Y-71405453D01*
X84705846Y-71462579D01*
X84633967Y-71501000D01*
X84532300Y-71555343D01*
X84532298Y-71555344D01*
X84532297Y-71555345D01*
X84380181Y-71680181D01*
X84266925Y-71818187D01*
X84255343Y-71832300D01*
X84238088Y-71864581D01*
X84162579Y-72005846D01*
X84105453Y-72194163D01*
X84086166Y-72390000D01*
X64503834Y-72390000D01*
X64484546Y-72194162D01*
X64427422Y-72005849D01*
X64334657Y-71832300D01*
X64269910Y-71753405D01*
X64209818Y-71680181D01*
X64057702Y-71555345D01*
X64057703Y-71555345D01*
X64057700Y-71555343D01*
X63884151Y-71462578D01*
X63759864Y-71424876D01*
X63695836Y-71405453D01*
X63500000Y-71386166D01*
X63304163Y-71405453D01*
X63115846Y-71462579D01*
X63043967Y-71501000D01*
X62942300Y-71555343D01*
X62942298Y-71555344D01*
X62942297Y-71555345D01*
X62790181Y-71680181D01*
X62676925Y-71818187D01*
X62665343Y-71832300D01*
X62648088Y-71864581D01*
X62572579Y-72005846D01*
X62515453Y-72194163D01*
X62496166Y-72390000D01*
X61460500Y-72390000D01*
X61460500Y-71119999D01*
X67474785Y-71119999D01*
X67474785Y-71120000D01*
X67493602Y-71323082D01*
X67549417Y-71519247D01*
X67549422Y-71519260D01*
X67640327Y-71701821D01*
X67763237Y-71864581D01*
X67913958Y-72001980D01*
X67913960Y-72001982D01*
X67923208Y-72007708D01*
X68087363Y-72109348D01*
X68277544Y-72183024D01*
X68478024Y-72220500D01*
X68478026Y-72220500D01*
X68681974Y-72220500D01*
X68681976Y-72220500D01*
X68882456Y-72183024D01*
X69072637Y-72109348D01*
X69246041Y-72001981D01*
X69396764Y-71864579D01*
X69519673Y-71701821D01*
X69610582Y-71519250D01*
X69666397Y-71323083D01*
X69685215Y-71120000D01*
X69685215Y-71119999D01*
X77634785Y-71119999D01*
X77634785Y-71120000D01*
X77653602Y-71323082D01*
X77709417Y-71519247D01*
X77709422Y-71519260D01*
X77800327Y-71701821D01*
X77923237Y-71864581D01*
X78073958Y-72001980D01*
X78073960Y-72001982D01*
X78083208Y-72007708D01*
X78247363Y-72109348D01*
X78437544Y-72183024D01*
X78638024Y-72220500D01*
X78638026Y-72220500D01*
X78841974Y-72220500D01*
X78841976Y-72220500D01*
X79042456Y-72183024D01*
X79232637Y-72109348D01*
X79406041Y-72001981D01*
X79556764Y-71864579D01*
X79679673Y-71701821D01*
X79770582Y-71519250D01*
X79826397Y-71323083D01*
X79845215Y-71120000D01*
X79845215Y-71119999D01*
X88903179Y-71119999D01*
X88903179Y-71120000D01*
X88922424Y-71339976D01*
X88922426Y-71339986D01*
X88979575Y-71553270D01*
X88979580Y-71553284D01*
X89072898Y-71753405D01*
X89072901Y-71753411D01*
X89118258Y-71818187D01*
X89118259Y-71818188D01*
X89789000Y-71147447D01*
X89789000Y-71170160D01*
X89814964Y-71267061D01*
X89865124Y-71353940D01*
X89936060Y-71424876D01*
X90022939Y-71475036D01*
X90119840Y-71501000D01*
X90142553Y-71501000D01*
X89471810Y-72171740D01*
X89536590Y-72217099D01*
X89536592Y-72217100D01*
X89736715Y-72310419D01*
X89736729Y-72310424D01*
X89950013Y-72367573D01*
X89950023Y-72367575D01*
X90169999Y-72386821D01*
X90170001Y-72386821D01*
X90389976Y-72367575D01*
X90389986Y-72367573D01*
X90603270Y-72310424D01*
X90603284Y-72310419D01*
X90803407Y-72217100D01*
X90803417Y-72217094D01*
X90868188Y-72171741D01*
X90197448Y-71501000D01*
X90220160Y-71501000D01*
X90317061Y-71475036D01*
X90403940Y-71424876D01*
X90474876Y-71353940D01*
X90525036Y-71267061D01*
X90551000Y-71170160D01*
X90551000Y-71147447D01*
X91221741Y-71818188D01*
X91267094Y-71753417D01*
X91267100Y-71753407D01*
X91360419Y-71553284D01*
X91360424Y-71553270D01*
X91417573Y-71339986D01*
X91418514Y-71334652D01*
X91419771Y-71334873D01*
X91442956Y-71275571D01*
X91499539Y-71234581D01*
X91569300Y-71230690D01*
X91630091Y-71265132D01*
X91660355Y-71322684D01*
X91661105Y-71322457D01*
X91662290Y-71326363D01*
X91662610Y-71326972D01*
X91662661Y-71327223D01*
X91662871Y-71328279D01*
X91662873Y-71328284D01*
X91662873Y-71328286D01*
X91723628Y-71528569D01*
X91816233Y-71701821D01*
X91822291Y-71713153D01*
X91955063Y-71874936D01*
X92114581Y-72005849D01*
X92116850Y-72007711D01*
X92301431Y-72106372D01*
X92501714Y-72167127D01*
X92710000Y-72187641D01*
X92918286Y-72167127D01*
X93118569Y-72106372D01*
X93303150Y-72007711D01*
X93464936Y-71874936D01*
X93597711Y-71713150D01*
X93696372Y-71528569D01*
X93757127Y-71328286D01*
X93777641Y-71120000D01*
X93757127Y-70911714D01*
X93696372Y-70711431D01*
X93597711Y-70526850D01*
X93597708Y-70526846D01*
X93464936Y-70365063D01*
X93401657Y-70313131D01*
X100537500Y-70313131D01*
X100537500Y-71926856D01*
X100537502Y-71926882D01*
X100540413Y-71951987D01*
X100540415Y-71951991D01*
X100585793Y-72054764D01*
X100585794Y-72054765D01*
X100665235Y-72134206D01*
X100768009Y-72179585D01*
X100793135Y-72182500D01*
X102406864Y-72182499D01*
X102406879Y-72182497D01*
X102406882Y-72182497D01*
X102431987Y-72179586D01*
X102431988Y-72179585D01*
X102431991Y-72179585D01*
X102534765Y-72134206D01*
X102614206Y-72054765D01*
X102659585Y-71951991D01*
X102662500Y-71926865D01*
X102662499Y-71119999D01*
X125733179Y-71119999D01*
X125733179Y-71120000D01*
X125752424Y-71339976D01*
X125752426Y-71339986D01*
X125809575Y-71553270D01*
X125809580Y-71553284D01*
X125902898Y-71753405D01*
X125902901Y-71753411D01*
X125948258Y-71818187D01*
X125948259Y-71818188D01*
X126619000Y-71147447D01*
X126619000Y-71170160D01*
X126644964Y-71267061D01*
X126695124Y-71353940D01*
X126766060Y-71424876D01*
X126852939Y-71475036D01*
X126949840Y-71501000D01*
X126972553Y-71501000D01*
X126301810Y-72171740D01*
X126366590Y-72217099D01*
X126366592Y-72217100D01*
X126566715Y-72310419D01*
X126566729Y-72310424D01*
X126780013Y-72367573D01*
X126785348Y-72368514D01*
X126785126Y-72369771D01*
X126844430Y-72392957D01*
X126885418Y-72449541D01*
X126889309Y-72519302D01*
X126854866Y-72580092D01*
X126797315Y-72610354D01*
X126797543Y-72611105D01*
X126793633Y-72612290D01*
X126793025Y-72612611D01*
X126792779Y-72612660D01*
X126791725Y-72612869D01*
X126591428Y-72673629D01*
X126406846Y-72772291D01*
X126245063Y-72905063D01*
X126112291Y-73066846D01*
X126013629Y-73251428D01*
X125952872Y-73451715D01*
X125932359Y-73660000D01*
X125952872Y-73868284D01*
X125964194Y-73905606D01*
X126013628Y-74068569D01*
X126070550Y-74175063D01*
X126112291Y-74253153D01*
X126245063Y-74414936D01*
X126406846Y-74547708D01*
X126406850Y-74547711D01*
X126591431Y-74646372D01*
X126791714Y-74707127D01*
X127000000Y-74727641D01*
X127208286Y-74707127D01*
X127408569Y-74646372D01*
X127593150Y-74547711D01*
X127754936Y-74414936D01*
X127887711Y-74253150D01*
X127986372Y-74068569D01*
X128047127Y-73868286D01*
X128067641Y-73660000D01*
X128047127Y-73451714D01*
X127986372Y-73251431D01*
X127887711Y-73066850D01*
X127839017Y-73007516D01*
X127754936Y-72905063D01*
X127593153Y-72772291D01*
X127593151Y-72772290D01*
X127593150Y-72772289D01*
X127408569Y-72673628D01*
X127208286Y-72612873D01*
X127208285Y-72612872D01*
X127208279Y-72612871D01*
X127207223Y-72612661D01*
X127206721Y-72612398D01*
X127202457Y-72611105D01*
X127202702Y-72610295D01*
X127145315Y-72580268D01*
X127110748Y-72519549D01*
X127114496Y-72449780D01*
X127155369Y-72393112D01*
X127214863Y-72369711D01*
X127214652Y-72368514D01*
X127219986Y-72367573D01*
X127433270Y-72310424D01*
X127433284Y-72310419D01*
X127633407Y-72217100D01*
X127633417Y-72217094D01*
X127698188Y-72171741D01*
X127027448Y-71501000D01*
X127050160Y-71501000D01*
X127147061Y-71475036D01*
X127233940Y-71424876D01*
X127304876Y-71353940D01*
X127355036Y-71267061D01*
X127381000Y-71170160D01*
X127381000Y-71147447D01*
X128051741Y-71818188D01*
X128097094Y-71753417D01*
X128097100Y-71753407D01*
X128190419Y-71553284D01*
X128190424Y-71553270D01*
X128247573Y-71339986D01*
X128247575Y-71339976D01*
X128266821Y-71120000D01*
X128266821Y-71119999D01*
X128247575Y-70900023D01*
X128247573Y-70900013D01*
X128190424Y-70686729D01*
X128190420Y-70686720D01*
X128097096Y-70486586D01*
X128051741Y-70421811D01*
X128051740Y-70421810D01*
X127381000Y-71092551D01*
X127381000Y-71069840D01*
X127355036Y-70972939D01*
X127304876Y-70886060D01*
X127233940Y-70815124D01*
X127147061Y-70764964D01*
X127050160Y-70739000D01*
X127027448Y-70739000D01*
X127698188Y-70068259D01*
X127698187Y-70068258D01*
X127633411Y-70022901D01*
X127633405Y-70022898D01*
X127433284Y-69929580D01*
X127433270Y-69929575D01*
X127219986Y-69872426D01*
X127219976Y-69872424D01*
X127000001Y-69853179D01*
X126999999Y-69853179D01*
X126780023Y-69872424D01*
X126780013Y-69872426D01*
X126566729Y-69929575D01*
X126566720Y-69929579D01*
X126366590Y-70022901D01*
X126301811Y-70068258D01*
X126972553Y-70739000D01*
X126949840Y-70739000D01*
X126852939Y-70764964D01*
X126766060Y-70815124D01*
X126695124Y-70886060D01*
X126644964Y-70972939D01*
X126619000Y-71069840D01*
X126619000Y-71092553D01*
X125948258Y-70421811D01*
X125902901Y-70486590D01*
X125809579Y-70686720D01*
X125809575Y-70686729D01*
X125752426Y-70900013D01*
X125752424Y-70900023D01*
X125733179Y-71119999D01*
X102662499Y-71119999D01*
X102662499Y-70313136D01*
X102662497Y-70313117D01*
X102659586Y-70288012D01*
X102659585Y-70288010D01*
X102659585Y-70288009D01*
X102614206Y-70185235D01*
X102534765Y-70105794D01*
X102534763Y-70105793D01*
X102431992Y-70060415D01*
X102406865Y-70057500D01*
X100793143Y-70057500D01*
X100793117Y-70057502D01*
X100768012Y-70060413D01*
X100768008Y-70060415D01*
X100665235Y-70105793D01*
X100585794Y-70185234D01*
X100540415Y-70288006D01*
X100540415Y-70288008D01*
X100537500Y-70313131D01*
X93401657Y-70313131D01*
X93303153Y-70232291D01*
X93303151Y-70232290D01*
X93303150Y-70232289D01*
X93118569Y-70133628D01*
X93018427Y-70103250D01*
X92918284Y-70072872D01*
X92710000Y-70052359D01*
X92501715Y-70072872D01*
X92301428Y-70133629D01*
X92116846Y-70232291D01*
X91955063Y-70365063D01*
X91822291Y-70526846D01*
X91723629Y-70711428D01*
X91723628Y-70711430D01*
X91723628Y-70711431D01*
X91720801Y-70720750D01*
X91662869Y-70911725D01*
X91662660Y-70912779D01*
X91662398Y-70913278D01*
X91661105Y-70917543D01*
X91660295Y-70917297D01*
X91630266Y-70974686D01*
X91569545Y-71009251D01*
X91499776Y-71005502D01*
X91443110Y-70964627D01*
X91419713Y-70905136D01*
X91418514Y-70905348D01*
X91417573Y-70900013D01*
X91360424Y-70686729D01*
X91360420Y-70686720D01*
X91267096Y-70486586D01*
X91221741Y-70421811D01*
X91221740Y-70421810D01*
X90551000Y-71092551D01*
X90551000Y-71069840D01*
X90525036Y-70972939D01*
X90474876Y-70886060D01*
X90403940Y-70815124D01*
X90317061Y-70764964D01*
X90220160Y-70739000D01*
X90197448Y-70739000D01*
X90868188Y-70068259D01*
X90868187Y-70068258D01*
X90803411Y-70022901D01*
X90803405Y-70022898D01*
X90603284Y-69929580D01*
X90603270Y-69929575D01*
X90389986Y-69872426D01*
X90389976Y-69872424D01*
X90170001Y-69853179D01*
X90169999Y-69853179D01*
X89950023Y-69872424D01*
X89950013Y-69872426D01*
X89736729Y-69929575D01*
X89736720Y-69929579D01*
X89536590Y-70022901D01*
X89471811Y-70068258D01*
X90142553Y-70739000D01*
X90119840Y-70739000D01*
X90022939Y-70764964D01*
X89936060Y-70815124D01*
X89865124Y-70886060D01*
X89814964Y-70972939D01*
X89789000Y-71069840D01*
X89789000Y-71092553D01*
X89118258Y-70421811D01*
X89072901Y-70486590D01*
X88979579Y-70686720D01*
X88979575Y-70686729D01*
X88922426Y-70900013D01*
X88922424Y-70900023D01*
X88903179Y-71119999D01*
X79845215Y-71119999D01*
X79826397Y-70916917D01*
X79770582Y-70720750D01*
X79765940Y-70711428D01*
X79726272Y-70631764D01*
X79679673Y-70538179D01*
X79556764Y-70375421D01*
X79556762Y-70375418D01*
X79406041Y-70238019D01*
X79406039Y-70238017D01*
X79232642Y-70130655D01*
X79232635Y-70130651D01*
X79083491Y-70072873D01*
X79042456Y-70056976D01*
X78841976Y-70019500D01*
X78638024Y-70019500D01*
X78437544Y-70056976D01*
X78437541Y-70056976D01*
X78437541Y-70056977D01*
X78247364Y-70130651D01*
X78247357Y-70130655D01*
X78073960Y-70238017D01*
X78073958Y-70238019D01*
X77923237Y-70375418D01*
X77800327Y-70538178D01*
X77709422Y-70720739D01*
X77709417Y-70720752D01*
X77653602Y-70916917D01*
X77634785Y-71119999D01*
X69685215Y-71119999D01*
X69666397Y-70916917D01*
X69610582Y-70720750D01*
X69605940Y-70711428D01*
X69566272Y-70631764D01*
X69519673Y-70538179D01*
X69396764Y-70375421D01*
X69396762Y-70375418D01*
X69246041Y-70238019D01*
X69246039Y-70238017D01*
X69072642Y-70130655D01*
X69072635Y-70130651D01*
X68923491Y-70072873D01*
X68882456Y-70056976D01*
X68681976Y-70019500D01*
X68478024Y-70019500D01*
X68277544Y-70056976D01*
X68277541Y-70056976D01*
X68277541Y-70056977D01*
X68087364Y-70130651D01*
X68087357Y-70130655D01*
X67913960Y-70238017D01*
X67913958Y-70238019D01*
X67763237Y-70375418D01*
X67640327Y-70538178D01*
X67549422Y-70720739D01*
X67549417Y-70720752D01*
X67493602Y-70916917D01*
X67474785Y-71119999D01*
X61460500Y-71119999D01*
X61460500Y-68579999D01*
X67474785Y-68579999D01*
X67474785Y-68580000D01*
X67493602Y-68783082D01*
X67549417Y-68979247D01*
X67549422Y-68979260D01*
X67640327Y-69161821D01*
X67763237Y-69324581D01*
X67913958Y-69461980D01*
X67913960Y-69461982D01*
X68013141Y-69523392D01*
X68087363Y-69569348D01*
X68277544Y-69643024D01*
X68478024Y-69680500D01*
X68478026Y-69680500D01*
X68681974Y-69680500D01*
X68681976Y-69680500D01*
X68882456Y-69643024D01*
X69072637Y-69569348D01*
X69246041Y-69461981D01*
X69396764Y-69324579D01*
X69519673Y-69161821D01*
X69610582Y-68979250D01*
X69666397Y-68783083D01*
X69685215Y-68580000D01*
X69685215Y-68579999D01*
X77634785Y-68579999D01*
X77634785Y-68580000D01*
X77653602Y-68783082D01*
X77709417Y-68979247D01*
X77709422Y-68979260D01*
X77800327Y-69161821D01*
X77923237Y-69324581D01*
X78073958Y-69461980D01*
X78073960Y-69461982D01*
X78173141Y-69523392D01*
X78247363Y-69569348D01*
X78437544Y-69643024D01*
X78638024Y-69680500D01*
X78638026Y-69680500D01*
X78841974Y-69680500D01*
X78841976Y-69680500D01*
X79042456Y-69643024D01*
X79232637Y-69569348D01*
X79406041Y-69461981D01*
X79556764Y-69324579D01*
X79679673Y-69161821D01*
X79770582Y-68979250D01*
X79826397Y-68783083D01*
X79845215Y-68580000D01*
X79826397Y-68376917D01*
X79770582Y-68180750D01*
X79752608Y-68144654D01*
X79726272Y-68091764D01*
X79679673Y-67998179D01*
X79620704Y-67920091D01*
X79556762Y-67835418D01*
X79406041Y-67698019D01*
X79406039Y-67698017D01*
X79232642Y-67590655D01*
X79232635Y-67590651D01*
X79137546Y-67553814D01*
X79042456Y-67516976D01*
X78841976Y-67479500D01*
X78638024Y-67479500D01*
X78437544Y-67516976D01*
X78437541Y-67516976D01*
X78437541Y-67516977D01*
X78247364Y-67590651D01*
X78247357Y-67590655D01*
X78073960Y-67698017D01*
X78073958Y-67698019D01*
X77923237Y-67835418D01*
X77800327Y-67998178D01*
X77709422Y-68180739D01*
X77709417Y-68180752D01*
X77653602Y-68376917D01*
X77634785Y-68579999D01*
X69685215Y-68579999D01*
X69666397Y-68376917D01*
X69610582Y-68180750D01*
X69592608Y-68144654D01*
X69566272Y-68091764D01*
X69519673Y-67998179D01*
X69460704Y-67920091D01*
X69396762Y-67835418D01*
X69246041Y-67698019D01*
X69246039Y-67698017D01*
X69072642Y-67590655D01*
X69072635Y-67590651D01*
X68977546Y-67553814D01*
X68882456Y-67516976D01*
X68681976Y-67479500D01*
X68478024Y-67479500D01*
X68277544Y-67516976D01*
X68277541Y-67516976D01*
X68277541Y-67516977D01*
X68087364Y-67590651D01*
X68087357Y-67590655D01*
X67913960Y-67698017D01*
X67913958Y-67698019D01*
X67763237Y-67835418D01*
X67640327Y-67998178D01*
X67549422Y-68180739D01*
X67549417Y-68180752D01*
X67493602Y-68376917D01*
X67474785Y-68579999D01*
X61460500Y-68579999D01*
X61460500Y-67310000D01*
X62496166Y-67310000D01*
X62515453Y-67505836D01*
X62572579Y-67694153D01*
X62578983Y-67706134D01*
X62665343Y-67867700D01*
X62665345Y-67867702D01*
X62790181Y-68019818D01*
X62882063Y-68095222D01*
X62942300Y-68144657D01*
X63115849Y-68237422D01*
X63304162Y-68294546D01*
X63500000Y-68313834D01*
X63695838Y-68294546D01*
X63884151Y-68237422D01*
X64057700Y-68144657D01*
X64209818Y-68019818D01*
X64334657Y-67867700D01*
X64427422Y-67694151D01*
X64484546Y-67505838D01*
X64503834Y-67310000D01*
X84086166Y-67310000D01*
X84105453Y-67505836D01*
X84162579Y-67694153D01*
X84168983Y-67706134D01*
X84255343Y-67867700D01*
X84255345Y-67867702D01*
X84380181Y-68019818D01*
X84472063Y-68095222D01*
X84532300Y-68144657D01*
X84705849Y-68237422D01*
X84894162Y-68294546D01*
X85090000Y-68313834D01*
X85285838Y-68294546D01*
X85474151Y-68237422D01*
X85647700Y-68144657D01*
X85799818Y-68019818D01*
X85924657Y-67867700D01*
X86017422Y-67694151D01*
X86074546Y-67505838D01*
X86093834Y-67310000D01*
X86074546Y-67114162D01*
X86017422Y-66925849D01*
X85924657Y-66752300D01*
X85875222Y-66692063D01*
X85799818Y-66600181D01*
X85647702Y-66475345D01*
X85647703Y-66475345D01*
X85647700Y-66475343D01*
X85474151Y-66382578D01*
X85379994Y-66354016D01*
X85285836Y-66325453D01*
X85090000Y-66306166D01*
X84894163Y-66325453D01*
X84705846Y-66382579D01*
X84601100Y-66438568D01*
X84532300Y-66475343D01*
X84532298Y-66475344D01*
X84532297Y-66475345D01*
X84380181Y-66600181D01*
X84255345Y-66752297D01*
X84162579Y-66925846D01*
X84105453Y-67114163D01*
X84086166Y-67310000D01*
X64503834Y-67310000D01*
X64484546Y-67114162D01*
X64427422Y-66925849D01*
X64334657Y-66752300D01*
X64285222Y-66692063D01*
X64209818Y-66600181D01*
X64057702Y-66475345D01*
X64057703Y-66475345D01*
X64057700Y-66475343D01*
X63884151Y-66382578D01*
X63789994Y-66354016D01*
X63695836Y-66325453D01*
X63500000Y-66306166D01*
X63304163Y-66325453D01*
X63115846Y-66382579D01*
X63011100Y-66438568D01*
X62942300Y-66475343D01*
X62942298Y-66475344D01*
X62942297Y-66475345D01*
X62790181Y-66600181D01*
X62665345Y-66752297D01*
X62572579Y-66925846D01*
X62515453Y-67114163D01*
X62496166Y-67310000D01*
X61460500Y-67310000D01*
X61460500Y-62706898D01*
X64929500Y-62706898D01*
X64929500Y-64293102D01*
X64935126Y-64339954D01*
X64940122Y-64381561D01*
X64940122Y-64381563D01*
X64940123Y-64381564D01*
X64957722Y-64426192D01*
X64995639Y-64522343D01*
X65087077Y-64642922D01*
X65207656Y-64734360D01*
X65207657Y-64734360D01*
X65207658Y-64734361D01*
X65348436Y-64789877D01*
X65436898Y-64800500D01*
X65436903Y-64800500D01*
X66723097Y-64800500D01*
X66723102Y-64800500D01*
X66811564Y-64789877D01*
X66952342Y-64734361D01*
X67072922Y-64642922D01*
X67164361Y-64522342D01*
X67219877Y-64381564D01*
X67230500Y-64293102D01*
X67230500Y-64002669D01*
X67250185Y-63935630D01*
X67302989Y-63889875D01*
X67372147Y-63879931D01*
X67435703Y-63908956D01*
X67472431Y-63964351D01*
X67513787Y-64091636D01*
X67513788Y-64091639D01*
X67596006Y-64252997D01*
X67702441Y-64399494D01*
X67702445Y-64399499D01*
X67830500Y-64527554D01*
X67830505Y-64527558D01*
X67958287Y-64620396D01*
X67977006Y-64633996D01*
X68082484Y-64687740D01*
X68138360Y-64716211D01*
X68138363Y-64716212D01*
X68224476Y-64744191D01*
X68310591Y-64772171D01*
X68393429Y-64785291D01*
X68489449Y-64800500D01*
X68489454Y-64800500D01*
X68670551Y-64800500D01*
X68757259Y-64786765D01*
X68849409Y-64772171D01*
X69021639Y-64716211D01*
X69182994Y-64633996D01*
X69329501Y-64527553D01*
X69457553Y-64399501D01*
X69563996Y-64252994D01*
X69646211Y-64091639D01*
X69702171Y-63919409D01*
X69716765Y-63827259D01*
X69730500Y-63740551D01*
X69730500Y-63259448D01*
X69706608Y-63108608D01*
X69702171Y-63080591D01*
X69646211Y-62908361D01*
X69646211Y-62908360D01*
X69617740Y-62852484D01*
X69563996Y-62747006D01*
X69534856Y-62706898D01*
X77629500Y-62706898D01*
X77629500Y-64293102D01*
X77635126Y-64339954D01*
X77640122Y-64381561D01*
X77640122Y-64381563D01*
X77640123Y-64381564D01*
X77657722Y-64426192D01*
X77695639Y-64522343D01*
X77787077Y-64642922D01*
X77907656Y-64734360D01*
X77907657Y-64734360D01*
X77907658Y-64734361D01*
X78048436Y-64789877D01*
X78136898Y-64800500D01*
X78136903Y-64800500D01*
X79423097Y-64800500D01*
X79423102Y-64800500D01*
X79511564Y-64789877D01*
X79652342Y-64734361D01*
X79772922Y-64642922D01*
X79864361Y-64522342D01*
X79919877Y-64381564D01*
X79930500Y-64293102D01*
X79930500Y-64002669D01*
X79950185Y-63935630D01*
X80002989Y-63889875D01*
X80072147Y-63879931D01*
X80135703Y-63908956D01*
X80172431Y-63964351D01*
X80213787Y-64091636D01*
X80213788Y-64091639D01*
X80296006Y-64252997D01*
X80402441Y-64399494D01*
X80402445Y-64399499D01*
X80530500Y-64527554D01*
X80530505Y-64527558D01*
X80658287Y-64620396D01*
X80677006Y-64633996D01*
X80782484Y-64687740D01*
X80838360Y-64716211D01*
X80838363Y-64716212D01*
X80924476Y-64744191D01*
X81010591Y-64772171D01*
X81093429Y-64785291D01*
X81189449Y-64800500D01*
X81189454Y-64800500D01*
X81370551Y-64800500D01*
X81457259Y-64786765D01*
X81549409Y-64772171D01*
X81721639Y-64716211D01*
X81882994Y-64633996D01*
X82029501Y-64527553D01*
X82157553Y-64399501D01*
X82263996Y-64252994D01*
X82346211Y-64091639D01*
X82402171Y-63919409D01*
X82416765Y-63827259D01*
X82430500Y-63740551D01*
X82430500Y-63500000D01*
X103072359Y-63500000D01*
X103092872Y-63708284D01*
X103092873Y-63708286D01*
X103153628Y-63908569D01*
X103251481Y-64091639D01*
X103252291Y-64093153D01*
X103385063Y-64254936D01*
X103539356Y-64381561D01*
X103546850Y-64387711D01*
X103731431Y-64486372D01*
X103931714Y-64547127D01*
X104140000Y-64567641D01*
X104348286Y-64547127D01*
X104548569Y-64486372D01*
X104733150Y-64387711D01*
X104894936Y-64254936D01*
X105027711Y-64093150D01*
X105126372Y-63908569D01*
X105187127Y-63708286D01*
X105207641Y-63500000D01*
X105612359Y-63500000D01*
X105632872Y-63708284D01*
X105632873Y-63708286D01*
X105693628Y-63908569D01*
X105791481Y-64091639D01*
X105792291Y-64093153D01*
X105925063Y-64254936D01*
X106079356Y-64381561D01*
X106086850Y-64387711D01*
X106271431Y-64486372D01*
X106471714Y-64547127D01*
X106680000Y-64567641D01*
X106888286Y-64547127D01*
X107088569Y-64486372D01*
X107273150Y-64387711D01*
X107434936Y-64254936D01*
X107567711Y-64093150D01*
X107666372Y-63908569D01*
X107727127Y-63708286D01*
X107747641Y-63500000D01*
X108152359Y-63500000D01*
X108172872Y-63708284D01*
X108172873Y-63708286D01*
X108233628Y-63908569D01*
X108331481Y-64091639D01*
X108332291Y-64093153D01*
X108465063Y-64254936D01*
X108619356Y-64381561D01*
X108626850Y-64387711D01*
X108811431Y-64486372D01*
X109011714Y-64547127D01*
X109220000Y-64567641D01*
X109428286Y-64547127D01*
X109628569Y-64486372D01*
X109813150Y-64387711D01*
X109974936Y-64254936D01*
X110107711Y-64093150D01*
X110206372Y-63908569D01*
X110267127Y-63708286D01*
X110287641Y-63500000D01*
X110692359Y-63500000D01*
X110712872Y-63708284D01*
X110712873Y-63708286D01*
X110773628Y-63908569D01*
X110871481Y-64091639D01*
X110872291Y-64093153D01*
X111005063Y-64254936D01*
X111159356Y-64381561D01*
X111166850Y-64387711D01*
X111351431Y-64486372D01*
X111551714Y-64547127D01*
X111760000Y-64567641D01*
X111968286Y-64547127D01*
X112168569Y-64486372D01*
X112353150Y-64387711D01*
X112514936Y-64254936D01*
X112647711Y-64093150D01*
X112746372Y-63908569D01*
X112807127Y-63708286D01*
X112827641Y-63500000D01*
X113232359Y-63500000D01*
X113252872Y-63708284D01*
X113252873Y-63708286D01*
X113313628Y-63908569D01*
X113411481Y-64091639D01*
X113412291Y-64093153D01*
X113545063Y-64254936D01*
X113699356Y-64381561D01*
X113706850Y-64387711D01*
X113891431Y-64486372D01*
X114091714Y-64547127D01*
X114300000Y-64567641D01*
X114508286Y-64547127D01*
X114708569Y-64486372D01*
X114893150Y-64387711D01*
X115054936Y-64254936D01*
X115187711Y-64093150D01*
X115286372Y-63908569D01*
X115347127Y-63708286D01*
X115367641Y-63500000D01*
X115347127Y-63291714D01*
X115286372Y-63091431D01*
X115187711Y-62906850D01*
X115187708Y-62906846D01*
X115054936Y-62745063D01*
X114893153Y-62612291D01*
X114893151Y-62612290D01*
X114893150Y-62612289D01*
X114708569Y-62513628D01*
X114608427Y-62483250D01*
X114508284Y-62452872D01*
X114300000Y-62432359D01*
X114091715Y-62452872D01*
X113891428Y-62513629D01*
X113706846Y-62612291D01*
X113545063Y-62745063D01*
X113412291Y-62906846D01*
X113313629Y-63091428D01*
X113252872Y-63291715D01*
X113232359Y-63500000D01*
X112827641Y-63500000D01*
X112807127Y-63291714D01*
X112746372Y-63091431D01*
X112647711Y-62906850D01*
X112647708Y-62906846D01*
X112514936Y-62745063D01*
X112353153Y-62612291D01*
X112353151Y-62612290D01*
X112353150Y-62612289D01*
X112168569Y-62513628D01*
X112068427Y-62483250D01*
X111968284Y-62452872D01*
X111760000Y-62432359D01*
X111551715Y-62452872D01*
X111351428Y-62513629D01*
X111166846Y-62612291D01*
X111005063Y-62745063D01*
X110872291Y-62906846D01*
X110773629Y-63091428D01*
X110712872Y-63291715D01*
X110692359Y-63500000D01*
X110287641Y-63500000D01*
X110267127Y-63291714D01*
X110206372Y-63091431D01*
X110107711Y-62906850D01*
X110107708Y-62906846D01*
X109974936Y-62745063D01*
X109813153Y-62612291D01*
X109813151Y-62612290D01*
X109813150Y-62612289D01*
X109628569Y-62513628D01*
X109528427Y-62483250D01*
X109428284Y-62452872D01*
X109220000Y-62432359D01*
X109011715Y-62452872D01*
X108811428Y-62513629D01*
X108626846Y-62612291D01*
X108465063Y-62745063D01*
X108332291Y-62906846D01*
X108233629Y-63091428D01*
X108172872Y-63291715D01*
X108152359Y-63500000D01*
X107747641Y-63500000D01*
X107727127Y-63291714D01*
X107666372Y-63091431D01*
X107567711Y-62906850D01*
X107567708Y-62906846D01*
X107434936Y-62745063D01*
X107273153Y-62612291D01*
X107273151Y-62612290D01*
X107273150Y-62612289D01*
X107088569Y-62513628D01*
X106988427Y-62483250D01*
X106888284Y-62452872D01*
X106680000Y-62432359D01*
X106471715Y-62452872D01*
X106271428Y-62513629D01*
X106086846Y-62612291D01*
X105925063Y-62745063D01*
X105792291Y-62906846D01*
X105693629Y-63091428D01*
X105632872Y-63291715D01*
X105612359Y-63500000D01*
X105207641Y-63500000D01*
X105187127Y-63291714D01*
X105126372Y-63091431D01*
X105027711Y-62906850D01*
X105027708Y-62906846D01*
X104894936Y-62745063D01*
X104733153Y-62612291D01*
X104733151Y-62612290D01*
X104733150Y-62612289D01*
X104548569Y-62513628D01*
X104448427Y-62483250D01*
X104348284Y-62452872D01*
X104140000Y-62432359D01*
X103931715Y-62452872D01*
X103731428Y-62513629D01*
X103546846Y-62612291D01*
X103385063Y-62745063D01*
X103252291Y-62906846D01*
X103153629Y-63091428D01*
X103092872Y-63291715D01*
X103072359Y-63500000D01*
X82430500Y-63500000D01*
X82430500Y-63259448D01*
X82406608Y-63108608D01*
X82402171Y-63080591D01*
X82346211Y-62908361D01*
X82346211Y-62908360D01*
X82317740Y-62852484D01*
X82263996Y-62747006D01*
X82234856Y-62706898D01*
X82157558Y-62600505D01*
X82157554Y-62600500D01*
X82029499Y-62472445D01*
X82029494Y-62472441D01*
X81882997Y-62366006D01*
X81882996Y-62366005D01*
X81882994Y-62366004D01*
X81831300Y-62339664D01*
X81721639Y-62283788D01*
X81721636Y-62283787D01*
X81549410Y-62227829D01*
X81370551Y-62199500D01*
X81370546Y-62199500D01*
X81189454Y-62199500D01*
X81189449Y-62199500D01*
X81010589Y-62227829D01*
X80838363Y-62283787D01*
X80838360Y-62283788D01*
X80677002Y-62366006D01*
X80530505Y-62472441D01*
X80530500Y-62472445D01*
X80402445Y-62600500D01*
X80402441Y-62600505D01*
X80296006Y-62747002D01*
X80213788Y-62908360D01*
X80213787Y-62908363D01*
X80172431Y-63035648D01*
X80132994Y-63093323D01*
X80068635Y-63120522D01*
X79999789Y-63108608D01*
X79948313Y-63061364D01*
X79930500Y-62997330D01*
X79930500Y-62706903D01*
X79930500Y-62706898D01*
X79919877Y-62618436D01*
X79864361Y-62477658D01*
X79864360Y-62477657D01*
X79864360Y-62477656D01*
X79772922Y-62357077D01*
X79652343Y-62265639D01*
X79511561Y-62210122D01*
X79465926Y-62204642D01*
X79423102Y-62199500D01*
X78136898Y-62199500D01*
X78097853Y-62204188D01*
X78048438Y-62210122D01*
X77907656Y-62265639D01*
X77787077Y-62357077D01*
X77695639Y-62477656D01*
X77640122Y-62618438D01*
X77634188Y-62667853D01*
X77629500Y-62706898D01*
X69534856Y-62706898D01*
X69457558Y-62600505D01*
X69457554Y-62600500D01*
X69329499Y-62472445D01*
X69329494Y-62472441D01*
X69182997Y-62366006D01*
X69182996Y-62366005D01*
X69182994Y-62366004D01*
X69131300Y-62339664D01*
X69021639Y-62283788D01*
X69021636Y-62283787D01*
X68849410Y-62227829D01*
X68670551Y-62199500D01*
X68670546Y-62199500D01*
X68489454Y-62199500D01*
X68489449Y-62199500D01*
X68310589Y-62227829D01*
X68138363Y-62283787D01*
X68138360Y-62283788D01*
X67977002Y-62366006D01*
X67830505Y-62472441D01*
X67830500Y-62472445D01*
X67702445Y-62600500D01*
X67702441Y-62600505D01*
X67596006Y-62747002D01*
X67513788Y-62908360D01*
X67513787Y-62908363D01*
X67472431Y-63035648D01*
X67432994Y-63093323D01*
X67368635Y-63120522D01*
X67299789Y-63108608D01*
X67248313Y-63061364D01*
X67230500Y-62997330D01*
X67230500Y-62706903D01*
X67230500Y-62706898D01*
X67219877Y-62618436D01*
X67164361Y-62477658D01*
X67164360Y-62477657D01*
X67164360Y-62477656D01*
X67072922Y-62357077D01*
X66952343Y-62265639D01*
X66811561Y-62210122D01*
X66765926Y-62204642D01*
X66723102Y-62199500D01*
X65436898Y-62199500D01*
X65397853Y-62204188D01*
X65348438Y-62210122D01*
X65207656Y-62265639D01*
X65087077Y-62357077D01*
X64995639Y-62477656D01*
X64940122Y-62618438D01*
X64934188Y-62667853D01*
X64929500Y-62706898D01*
X61460500Y-62706898D01*
X61460500Y-61584500D01*
X61480185Y-61517461D01*
X61532989Y-61471706D01*
X61584500Y-61460500D01*
X81345890Y-61460500D01*
X81345892Y-61460500D01*
X81473186Y-61426392D01*
X81587314Y-61360500D01*
X81680500Y-61267314D01*
X81746392Y-61153186D01*
X81780500Y-61025892D01*
X81780500Y-58419999D01*
X88903179Y-58419999D01*
X88903179Y-58420000D01*
X88922424Y-58639976D01*
X88922426Y-58639986D01*
X88979575Y-58853270D01*
X88979580Y-58853284D01*
X89072898Y-59053405D01*
X89072901Y-59053411D01*
X89118258Y-59118187D01*
X89118259Y-59118188D01*
X89789000Y-58447447D01*
X89789000Y-58470160D01*
X89814964Y-58567061D01*
X89865124Y-58653940D01*
X89936060Y-58724876D01*
X90022939Y-58775036D01*
X90119840Y-58801000D01*
X90142553Y-58801000D01*
X89471810Y-59471740D01*
X89536590Y-59517099D01*
X89536592Y-59517100D01*
X89736715Y-59610419D01*
X89736729Y-59610424D01*
X89950013Y-59667573D01*
X89950023Y-59667575D01*
X90169999Y-59686821D01*
X90170001Y-59686821D01*
X90389976Y-59667575D01*
X90389986Y-59667573D01*
X90603270Y-59610424D01*
X90603284Y-59610419D01*
X90803407Y-59517100D01*
X90803417Y-59517094D01*
X90868188Y-59471741D01*
X90197448Y-58801000D01*
X90220160Y-58801000D01*
X90317061Y-58775036D01*
X90403940Y-58724876D01*
X90474876Y-58653940D01*
X90525036Y-58567061D01*
X90551000Y-58470160D01*
X90551000Y-58447447D01*
X91221741Y-59118188D01*
X91267094Y-59053417D01*
X91267100Y-59053407D01*
X91360419Y-58853284D01*
X91360424Y-58853270D01*
X91417573Y-58639986D01*
X91418514Y-58634652D01*
X91419771Y-58634873D01*
X91442956Y-58575571D01*
X91499539Y-58534581D01*
X91569300Y-58530690D01*
X91630091Y-58565132D01*
X91660355Y-58622684D01*
X91661105Y-58622457D01*
X91662290Y-58626363D01*
X91662610Y-58626972D01*
X91662661Y-58627223D01*
X91662871Y-58628279D01*
X91723629Y-58828571D01*
X91822291Y-59013153D01*
X91955063Y-59174936D01*
X92116846Y-59307708D01*
X92116850Y-59307711D01*
X92301431Y-59406372D01*
X92501714Y-59467127D01*
X92710000Y-59487641D01*
X92918286Y-59467127D01*
X93118569Y-59406372D01*
X93303150Y-59307711D01*
X93464936Y-59174936D01*
X93597711Y-59013150D01*
X93696372Y-58828569D01*
X93757127Y-58628286D01*
X93777641Y-58420000D01*
X93757127Y-58211714D01*
X93696372Y-58011431D01*
X93597711Y-57826850D01*
X93597708Y-57826846D01*
X93464936Y-57665063D01*
X93303153Y-57532291D01*
X93303151Y-57532290D01*
X93303150Y-57532289D01*
X93118569Y-57433628D01*
X93018427Y-57403250D01*
X92918284Y-57372872D01*
X92710000Y-57352359D01*
X92501715Y-57372872D01*
X92301428Y-57433629D01*
X92116846Y-57532291D01*
X91955063Y-57665063D01*
X91822291Y-57826846D01*
X91723629Y-58011428D01*
X91662869Y-58211725D01*
X91662660Y-58212779D01*
X91662398Y-58213278D01*
X91661105Y-58217543D01*
X91660295Y-58217297D01*
X91630266Y-58274686D01*
X91569545Y-58309251D01*
X91499776Y-58305502D01*
X91443110Y-58264627D01*
X91419713Y-58205136D01*
X91418514Y-58205348D01*
X91417573Y-58200013D01*
X91360424Y-57986729D01*
X91360420Y-57986720D01*
X91267096Y-57786586D01*
X91221741Y-57721811D01*
X91221740Y-57721810D01*
X90551000Y-58392551D01*
X90551000Y-58369840D01*
X90525036Y-58272939D01*
X90474876Y-58186060D01*
X90403940Y-58115124D01*
X90317061Y-58064964D01*
X90220160Y-58039000D01*
X90197448Y-58039000D01*
X90868188Y-57368259D01*
X90868187Y-57368258D01*
X90803411Y-57322901D01*
X90803405Y-57322898D01*
X90603284Y-57229580D01*
X90603270Y-57229575D01*
X90389986Y-57172426D01*
X90389976Y-57172424D01*
X90170001Y-57153179D01*
X90169999Y-57153179D01*
X89950023Y-57172424D01*
X89950013Y-57172426D01*
X89736729Y-57229575D01*
X89736720Y-57229579D01*
X89536590Y-57322901D01*
X89471811Y-57368258D01*
X90142553Y-58039000D01*
X90119840Y-58039000D01*
X90022939Y-58064964D01*
X89936060Y-58115124D01*
X89865124Y-58186060D01*
X89814964Y-58272939D01*
X89789000Y-58369840D01*
X89789000Y-58392553D01*
X89118258Y-57721811D01*
X89072901Y-57786590D01*
X88979579Y-57986720D01*
X88979575Y-57986729D01*
X88922426Y-58200013D01*
X88922424Y-58200023D01*
X88903179Y-58419999D01*
X81780500Y-58419999D01*
X81780500Y-55880000D01*
X103072359Y-55880000D01*
X103092872Y-56088284D01*
X103153629Y-56288571D01*
X103252291Y-56473153D01*
X103385063Y-56634936D01*
X103546846Y-56767708D01*
X103546850Y-56767711D01*
X103731431Y-56866372D01*
X103931714Y-56927127D01*
X104140000Y-56947641D01*
X104348286Y-56927127D01*
X104548569Y-56866372D01*
X104733150Y-56767711D01*
X104894936Y-56634936D01*
X105027711Y-56473150D01*
X105126372Y-56288569D01*
X105187127Y-56088286D01*
X105207641Y-55880000D01*
X105612359Y-55880000D01*
X105632872Y-56088284D01*
X105693629Y-56288571D01*
X105792291Y-56473153D01*
X105925063Y-56634936D01*
X106086846Y-56767708D01*
X106086850Y-56767711D01*
X106271431Y-56866372D01*
X106471714Y-56927127D01*
X106680000Y-56947641D01*
X106888286Y-56927127D01*
X107088569Y-56866372D01*
X107273150Y-56767711D01*
X107434936Y-56634936D01*
X107567711Y-56473150D01*
X107666372Y-56288569D01*
X107727127Y-56088286D01*
X107747641Y-55880000D01*
X108152359Y-55880000D01*
X108172872Y-56088284D01*
X108233629Y-56288571D01*
X108332291Y-56473153D01*
X108465063Y-56634936D01*
X108626846Y-56767708D01*
X108626850Y-56767711D01*
X108811431Y-56866372D01*
X109011714Y-56927127D01*
X109220000Y-56947641D01*
X109428286Y-56927127D01*
X109628569Y-56866372D01*
X109813150Y-56767711D01*
X109974936Y-56634936D01*
X110107711Y-56473150D01*
X110206372Y-56288569D01*
X110267127Y-56088286D01*
X110287641Y-55880000D01*
X110692359Y-55880000D01*
X110712872Y-56088284D01*
X110773629Y-56288571D01*
X110872291Y-56473153D01*
X111005063Y-56634936D01*
X111166846Y-56767708D01*
X111166850Y-56767711D01*
X111351431Y-56866372D01*
X111551714Y-56927127D01*
X111760000Y-56947641D01*
X111968286Y-56927127D01*
X112168569Y-56866372D01*
X112353150Y-56767711D01*
X112514936Y-56634936D01*
X112647711Y-56473150D01*
X112746372Y-56288569D01*
X112807127Y-56088286D01*
X112827641Y-55880000D01*
X113232359Y-55880000D01*
X113252872Y-56088284D01*
X113313629Y-56288571D01*
X113412291Y-56473153D01*
X113545063Y-56634936D01*
X113706846Y-56767708D01*
X113706850Y-56767711D01*
X113891431Y-56866372D01*
X114091714Y-56927127D01*
X114300000Y-56947641D01*
X114508286Y-56927127D01*
X114708569Y-56866372D01*
X114893150Y-56767711D01*
X115054936Y-56634936D01*
X115187711Y-56473150D01*
X115286372Y-56288569D01*
X115347127Y-56088286D01*
X115367641Y-55880000D01*
X115347127Y-55671714D01*
X115286372Y-55471431D01*
X115187711Y-55286850D01*
X115187708Y-55286846D01*
X115054936Y-55125063D01*
X114893153Y-54992291D01*
X114893151Y-54992290D01*
X114893150Y-54992289D01*
X114708569Y-54893628D01*
X114608427Y-54863250D01*
X114508284Y-54832872D01*
X114300000Y-54812359D01*
X114091715Y-54832872D01*
X113891428Y-54893629D01*
X113706846Y-54992291D01*
X113545063Y-55125063D01*
X113412291Y-55286846D01*
X113313629Y-55471428D01*
X113252872Y-55671715D01*
X113232359Y-55880000D01*
X112827641Y-55880000D01*
X112807127Y-55671714D01*
X112746372Y-55471431D01*
X112647711Y-55286850D01*
X112647708Y-55286846D01*
X112514936Y-55125063D01*
X112353153Y-54992291D01*
X112353151Y-54992290D01*
X112353150Y-54992289D01*
X112168569Y-54893628D01*
X112068427Y-54863250D01*
X111968284Y-54832872D01*
X111760000Y-54812359D01*
X111551715Y-54832872D01*
X111351428Y-54893629D01*
X111166846Y-54992291D01*
X111005063Y-55125063D01*
X110872291Y-55286846D01*
X110773629Y-55471428D01*
X110712872Y-55671715D01*
X110692359Y-55880000D01*
X110287641Y-55880000D01*
X110267127Y-55671714D01*
X110206372Y-55471431D01*
X110107711Y-55286850D01*
X110107708Y-55286846D01*
X109974936Y-55125063D01*
X109813153Y-54992291D01*
X109813151Y-54992290D01*
X109813150Y-54992289D01*
X109628569Y-54893628D01*
X109528427Y-54863250D01*
X109428284Y-54832872D01*
X109220000Y-54812359D01*
X109011715Y-54832872D01*
X108811428Y-54893629D01*
X108626846Y-54992291D01*
X108465063Y-55125063D01*
X108332291Y-55286846D01*
X108233629Y-55471428D01*
X108172872Y-55671715D01*
X108152359Y-55880000D01*
X107747641Y-55880000D01*
X107727127Y-55671714D01*
X107666372Y-55471431D01*
X107567711Y-55286850D01*
X107567708Y-55286846D01*
X107434936Y-55125063D01*
X107273153Y-54992291D01*
X107273151Y-54992290D01*
X107273150Y-54992289D01*
X107088569Y-54893628D01*
X106988427Y-54863250D01*
X106888284Y-54832872D01*
X106680000Y-54812359D01*
X106471715Y-54832872D01*
X106271428Y-54893629D01*
X106086846Y-54992291D01*
X105925063Y-55125063D01*
X105792291Y-55286846D01*
X105693629Y-55471428D01*
X105632872Y-55671715D01*
X105612359Y-55880000D01*
X105207641Y-55880000D01*
X105187127Y-55671714D01*
X105126372Y-55471431D01*
X105027711Y-55286850D01*
X105027708Y-55286846D01*
X104894936Y-55125063D01*
X104733153Y-54992291D01*
X104733151Y-54992290D01*
X104733150Y-54992289D01*
X104548569Y-54893628D01*
X104448427Y-54863250D01*
X104348284Y-54832872D01*
X104140000Y-54812359D01*
X103931715Y-54832872D01*
X103731428Y-54893629D01*
X103546846Y-54992291D01*
X103385063Y-55125063D01*
X103252291Y-55286846D01*
X103153629Y-55471428D01*
X103092872Y-55671715D01*
X103072359Y-55880000D01*
X81780500Y-55880000D01*
X81780500Y-54339997D01*
X96485034Y-54339997D01*
X96485034Y-54340002D01*
X96504858Y-54566599D01*
X96504860Y-54566610D01*
X96563730Y-54786317D01*
X96563735Y-54786331D01*
X96659863Y-54992478D01*
X96710974Y-55065472D01*
X97390000Y-54386446D01*
X97390000Y-54392661D01*
X97417259Y-54494394D01*
X97469920Y-54585606D01*
X97544394Y-54660080D01*
X97635606Y-54712741D01*
X97737339Y-54740000D01*
X97743553Y-54740000D01*
X97064526Y-55419025D01*
X97137513Y-55470132D01*
X97137521Y-55470136D01*
X97343668Y-55566264D01*
X97343682Y-55566269D01*
X97563389Y-55625139D01*
X97563400Y-55625141D01*
X97789998Y-55644966D01*
X97790002Y-55644966D01*
X98016599Y-55625141D01*
X98016610Y-55625139D01*
X98236317Y-55566269D01*
X98236331Y-55566264D01*
X98442478Y-55470136D01*
X98515471Y-55419024D01*
X97836447Y-54740000D01*
X97842661Y-54740000D01*
X97944394Y-54712741D01*
X98035606Y-54660080D01*
X98110080Y-54585606D01*
X98162741Y-54494394D01*
X98190000Y-54392661D01*
X98190000Y-54386447D01*
X98869024Y-55065471D01*
X98920136Y-54992478D01*
X99016264Y-54786331D01*
X99016269Y-54786317D01*
X99075139Y-54566610D01*
X99075141Y-54566599D01*
X99094966Y-54340002D01*
X99094966Y-54339997D01*
X99075141Y-54113400D01*
X99075139Y-54113389D01*
X99016269Y-53893682D01*
X99016264Y-53893668D01*
X98920136Y-53687521D01*
X98920132Y-53687513D01*
X98869025Y-53614526D01*
X98190000Y-54293551D01*
X98190000Y-54287339D01*
X98162741Y-54185606D01*
X98110080Y-54094394D01*
X98035606Y-54019920D01*
X97944394Y-53967259D01*
X97842661Y-53940000D01*
X97836448Y-53940000D01*
X98515472Y-53260974D01*
X98442478Y-53209863D01*
X98236331Y-53113735D01*
X98236317Y-53113730D01*
X98016610Y-53054860D01*
X98016599Y-53054858D01*
X97790002Y-53035034D01*
X97789998Y-53035034D01*
X97563400Y-53054858D01*
X97563389Y-53054860D01*
X97343682Y-53113730D01*
X97343673Y-53113734D01*
X97137516Y-53209866D01*
X97137512Y-53209868D01*
X97064526Y-53260973D01*
X97064526Y-53260974D01*
X97743553Y-53940000D01*
X97737339Y-53940000D01*
X97635606Y-53967259D01*
X97544394Y-54019920D01*
X97469920Y-54094394D01*
X97417259Y-54185606D01*
X97390000Y-54287339D01*
X97390000Y-54293552D01*
X96710974Y-53614526D01*
X96710973Y-53614526D01*
X96659868Y-53687512D01*
X96659866Y-53687516D01*
X96563734Y-53893673D01*
X96563730Y-53893682D01*
X96504860Y-54113389D01*
X96504858Y-54113400D01*
X96485034Y-54339997D01*
X81780500Y-54339997D01*
X81780500Y-52069998D01*
X83084891Y-52069998D01*
X83084891Y-52070001D01*
X83105300Y-52355362D01*
X83166109Y-52634895D01*
X83266091Y-52902958D01*
X83403191Y-53154038D01*
X83403196Y-53154046D01*
X83509882Y-53296561D01*
X83509883Y-53296562D01*
X84404767Y-52401677D01*
X84416497Y-52429995D01*
X84499670Y-52554472D01*
X84605528Y-52660330D01*
X84730005Y-52743503D01*
X84758320Y-52755231D01*
X83863436Y-53650115D01*
X84005960Y-53756807D01*
X84005961Y-53756808D01*
X84257042Y-53893908D01*
X84257041Y-53893908D01*
X84525104Y-53993890D01*
X84804637Y-54054699D01*
X85089999Y-54075109D01*
X85090001Y-54075109D01*
X85375362Y-54054699D01*
X85654895Y-53993890D01*
X85922958Y-53893908D01*
X86174047Y-53756803D01*
X86316561Y-53650116D01*
X86316562Y-53650115D01*
X85421679Y-52755231D01*
X85449995Y-52743503D01*
X85574472Y-52660330D01*
X85680330Y-52554472D01*
X85763503Y-52429995D01*
X85775231Y-52401678D01*
X86670115Y-53296562D01*
X86670116Y-53296561D01*
X86776803Y-53154047D01*
X86913908Y-52902958D01*
X87013890Y-52634895D01*
X87074699Y-52355362D01*
X87095109Y-52070001D01*
X87095109Y-52069998D01*
X87074699Y-51784637D01*
X87013890Y-51505104D01*
X86913908Y-51237041D01*
X86776808Y-50985961D01*
X86776807Y-50985960D01*
X86670115Y-50843436D01*
X85775231Y-51738320D01*
X85763503Y-51710005D01*
X85680330Y-51585528D01*
X85574472Y-51479670D01*
X85449995Y-51396497D01*
X85421678Y-51384767D01*
X86281314Y-50525131D01*
X88369500Y-50525131D01*
X88369500Y-53614856D01*
X88369502Y-53614882D01*
X88372413Y-53639987D01*
X88372415Y-53639991D01*
X88417793Y-53742764D01*
X88417794Y-53742765D01*
X88497235Y-53822206D01*
X88600009Y-53867585D01*
X88625135Y-53870500D01*
X91714864Y-53870499D01*
X91714879Y-53870497D01*
X91714882Y-53870497D01*
X91739987Y-53867586D01*
X91739988Y-53867585D01*
X91739991Y-53867585D01*
X91842765Y-53822206D01*
X91922206Y-53742765D01*
X91967585Y-53639991D01*
X91970500Y-53614865D01*
X91970499Y-50525136D01*
X91967879Y-50502540D01*
X91967586Y-50500012D01*
X91967585Y-50500010D01*
X91967585Y-50500009D01*
X91922206Y-50397235D01*
X91842765Y-50317794D01*
X91842763Y-50317793D01*
X91739992Y-50272415D01*
X91714865Y-50269500D01*
X88625143Y-50269500D01*
X88625117Y-50269502D01*
X88600012Y-50272413D01*
X88600008Y-50272415D01*
X88497235Y-50317793D01*
X88417794Y-50397234D01*
X88372415Y-50500006D01*
X88372415Y-50500008D01*
X88369500Y-50525131D01*
X86281314Y-50525131D01*
X86316562Y-50489883D01*
X86316561Y-50489882D01*
X86174046Y-50383196D01*
X86174038Y-50383191D01*
X85922957Y-50246091D01*
X85922958Y-50246091D01*
X85654895Y-50146109D01*
X85375362Y-50085300D01*
X85090001Y-50064891D01*
X85089999Y-50064891D01*
X84804637Y-50085300D01*
X84525104Y-50146109D01*
X84257041Y-50246091D01*
X84005961Y-50383191D01*
X84005953Y-50383196D01*
X83863437Y-50489882D01*
X83863436Y-50489883D01*
X84758321Y-51384767D01*
X84730005Y-51396497D01*
X84605528Y-51479670D01*
X84499670Y-51585528D01*
X84416497Y-51710005D01*
X84404768Y-51738321D01*
X83509883Y-50843436D01*
X83509882Y-50843437D01*
X83403196Y-50985953D01*
X83403191Y-50985961D01*
X83266091Y-51237041D01*
X83166109Y-51505104D01*
X83105300Y-51784637D01*
X83084891Y-52069998D01*
X81780500Y-52069998D01*
X81780500Y-49995131D01*
X96689500Y-49995131D01*
X96689500Y-51684856D01*
X96689502Y-51684882D01*
X96692413Y-51709987D01*
X96692415Y-51709991D01*
X96737793Y-51812764D01*
X96737794Y-51812765D01*
X96817235Y-51892206D01*
X96920009Y-51937585D01*
X96945135Y-51940500D01*
X98634864Y-51940499D01*
X98634879Y-51940497D01*
X98634882Y-51940497D01*
X98659987Y-51937586D01*
X98659988Y-51937585D01*
X98659991Y-51937585D01*
X98762765Y-51892206D01*
X98842206Y-51812765D01*
X98887585Y-51709991D01*
X98890500Y-51684865D01*
X98890499Y-50031898D01*
X105649500Y-50031898D01*
X105649500Y-51568102D01*
X105651593Y-51585528D01*
X105660122Y-51656561D01*
X105660122Y-51656563D01*
X105660123Y-51656564D01*
X105671280Y-51684856D01*
X105715639Y-51797343D01*
X105807077Y-51917922D01*
X105927656Y-52009360D01*
X105927657Y-52009360D01*
X105927658Y-52009361D01*
X106068436Y-52064877D01*
X106156898Y-52075500D01*
X106156903Y-52075500D01*
X107443097Y-52075500D01*
X107443102Y-52075500D01*
X107531564Y-52064877D01*
X107672342Y-52009361D01*
X107792922Y-51917922D01*
X107884361Y-51797342D01*
X107939877Y-51656564D01*
X107950500Y-51568102D01*
X107950500Y-51277669D01*
X107970185Y-51210630D01*
X108022989Y-51164875D01*
X108092147Y-51154931D01*
X108155703Y-51183956D01*
X108192431Y-51239351D01*
X108233787Y-51366636D01*
X108233788Y-51366639D01*
X108289664Y-51476300D01*
X108316003Y-51527993D01*
X108316006Y-51527997D01*
X108422441Y-51674494D01*
X108422445Y-51674499D01*
X108550500Y-51802554D01*
X108550505Y-51802558D01*
X108673895Y-51892205D01*
X108697006Y-51908996D01*
X108758836Y-51940500D01*
X108858360Y-51991211D01*
X108858363Y-51991212D01*
X108944476Y-52019191D01*
X109030591Y-52047171D01*
X109113429Y-52060291D01*
X109209449Y-52075500D01*
X109209454Y-52075500D01*
X109390551Y-52075500D01*
X109477259Y-52061765D01*
X109569409Y-52047171D01*
X109741639Y-51991211D01*
X109902994Y-51908996D01*
X110049501Y-51802553D01*
X110177553Y-51674501D01*
X110283996Y-51527994D01*
X110366211Y-51366639D01*
X110422171Y-51194409D01*
X110427527Y-51160594D01*
X110457456Y-51097459D01*
X110516768Y-51060528D01*
X110586630Y-51061526D01*
X110644863Y-51100136D01*
X110672473Y-51160594D01*
X110677829Y-51194410D01*
X110733787Y-51366636D01*
X110733788Y-51366639D01*
X110789664Y-51476300D01*
X110816003Y-51527993D01*
X110816006Y-51527997D01*
X110922441Y-51674494D01*
X110922445Y-51674499D01*
X111050500Y-51802554D01*
X111050505Y-51802558D01*
X111173895Y-51892205D01*
X111197006Y-51908996D01*
X111258836Y-51940500D01*
X111358360Y-51991211D01*
X111358363Y-51991212D01*
X111444476Y-52019191D01*
X111530591Y-52047171D01*
X111613429Y-52060291D01*
X111709449Y-52075500D01*
X111709454Y-52075500D01*
X111890551Y-52075500D01*
X111977259Y-52061765D01*
X112069409Y-52047171D01*
X112241639Y-51991211D01*
X112402994Y-51908996D01*
X112549501Y-51802553D01*
X112677553Y-51674501D01*
X112783996Y-51527994D01*
X112827563Y-51442488D01*
X112875537Y-51391692D01*
X112943358Y-51374897D01*
X113009493Y-51397434D01*
X113048533Y-51442488D01*
X113145379Y-51632557D01*
X113270272Y-51804459D01*
X113270276Y-51804464D01*
X113420535Y-51954723D01*
X113420540Y-51954727D01*
X113592442Y-52079620D01*
X113781782Y-52176095D01*
X113983871Y-52241757D01*
X114050000Y-52252231D01*
X114050000Y-51204145D01*
X114116657Y-51242630D01*
X114237465Y-51275000D01*
X114362535Y-51275000D01*
X114483343Y-51242630D01*
X114550000Y-51204145D01*
X114550000Y-52252230D01*
X114616126Y-52241757D01*
X114616129Y-52241757D01*
X114818217Y-52176095D01*
X115007557Y-52079620D01*
X115179459Y-51954727D01*
X115179464Y-51954723D01*
X115329723Y-51804464D01*
X115329727Y-51804459D01*
X115454620Y-51632558D01*
X115551466Y-51442488D01*
X115599440Y-51391692D01*
X115667261Y-51374897D01*
X115733396Y-51397434D01*
X115772435Y-51442488D01*
X115816002Y-51527992D01*
X115816003Y-51527993D01*
X115922441Y-51674494D01*
X115922445Y-51674499D01*
X116050500Y-51802554D01*
X116050505Y-51802558D01*
X116173895Y-51892205D01*
X116197006Y-51908996D01*
X116258836Y-51940500D01*
X116358360Y-51991211D01*
X116358363Y-51991212D01*
X116444476Y-52019191D01*
X116530591Y-52047171D01*
X116613429Y-52060291D01*
X116709449Y-52075500D01*
X116709454Y-52075500D01*
X116890551Y-52075500D01*
X116977259Y-52061765D01*
X117069409Y-52047171D01*
X117241639Y-51991211D01*
X117402994Y-51908996D01*
X117549501Y-51802553D01*
X117677553Y-51674501D01*
X117783996Y-51527994D01*
X117866211Y-51366639D01*
X117922171Y-51194409D01*
X117943376Y-51060528D01*
X117950500Y-51015551D01*
X117950500Y-50584448D01*
X117928495Y-50445522D01*
X117922171Y-50405591D01*
X117894191Y-50319476D01*
X117866212Y-50233363D01*
X117866211Y-50233360D01*
X117827563Y-50157511D01*
X117783996Y-50072006D01*
X117728147Y-49995136D01*
X117677558Y-49925505D01*
X117677554Y-49925500D01*
X117549499Y-49797445D01*
X117549494Y-49797441D01*
X117402997Y-49691006D01*
X117402996Y-49691005D01*
X117402994Y-49691004D01*
X117351300Y-49664664D01*
X117241639Y-49608788D01*
X117241636Y-49608787D01*
X117069410Y-49552829D01*
X116890551Y-49524500D01*
X116890546Y-49524500D01*
X116709454Y-49524500D01*
X116709449Y-49524500D01*
X116530589Y-49552829D01*
X116358363Y-49608787D01*
X116358360Y-49608788D01*
X116197002Y-49691006D01*
X116050505Y-49797441D01*
X116050500Y-49797445D01*
X115922445Y-49925500D01*
X115922441Y-49925505D01*
X115816004Y-50072004D01*
X115772435Y-50157512D01*
X115724460Y-50208307D01*
X115656639Y-50225102D01*
X115590504Y-50202564D01*
X115551466Y-50157511D01*
X115454620Y-49967442D01*
X115329727Y-49795540D01*
X115329723Y-49795535D01*
X115179464Y-49645276D01*
X115179459Y-49645272D01*
X115007557Y-49520379D01*
X114818215Y-49423903D01*
X114616124Y-49358241D01*
X114550000Y-49347768D01*
X114550000Y-50395854D01*
X114483343Y-50357370D01*
X114362535Y-50325000D01*
X114237465Y-50325000D01*
X114116657Y-50357370D01*
X114050000Y-50395854D01*
X114050000Y-49347768D01*
X114049999Y-49347768D01*
X113983875Y-49358241D01*
X113781784Y-49423903D01*
X113592442Y-49520379D01*
X113420540Y-49645272D01*
X113420535Y-49645276D01*
X113270276Y-49795535D01*
X113270272Y-49795540D01*
X113145379Y-49967442D01*
X113048533Y-50157511D01*
X113000558Y-50208307D01*
X112932737Y-50225102D01*
X112866602Y-50202564D01*
X112827563Y-50157511D01*
X112783996Y-50072006D01*
X112728147Y-49995136D01*
X112677558Y-49925505D01*
X112677554Y-49925500D01*
X112549499Y-49797445D01*
X112549494Y-49797441D01*
X112402997Y-49691006D01*
X112402996Y-49691005D01*
X112402994Y-49691004D01*
X112351300Y-49664664D01*
X112241639Y-49608788D01*
X112241636Y-49608787D01*
X112069410Y-49552829D01*
X111890551Y-49524500D01*
X111890546Y-49524500D01*
X111709454Y-49524500D01*
X111709449Y-49524500D01*
X111530589Y-49552829D01*
X111358363Y-49608787D01*
X111358360Y-49608788D01*
X111197002Y-49691006D01*
X111050505Y-49797441D01*
X111050500Y-49797445D01*
X110922445Y-49925500D01*
X110922441Y-49925505D01*
X110816006Y-50072002D01*
X110733788Y-50233360D01*
X110733787Y-50233363D01*
X110677829Y-50405589D01*
X110672473Y-50439406D01*
X110642543Y-50502540D01*
X110583232Y-50539471D01*
X110513369Y-50538473D01*
X110455137Y-50499863D01*
X110427527Y-50439406D01*
X110424438Y-50419905D01*
X110422171Y-50405591D01*
X110394191Y-50319476D01*
X110366212Y-50233363D01*
X110366211Y-50233360D01*
X110327563Y-50157511D01*
X110283996Y-50072006D01*
X110228147Y-49995136D01*
X110177558Y-49925505D01*
X110177554Y-49925500D01*
X110049499Y-49797445D01*
X110049494Y-49797441D01*
X109902997Y-49691006D01*
X109902996Y-49691005D01*
X109902994Y-49691004D01*
X109851300Y-49664664D01*
X109741639Y-49608788D01*
X109741636Y-49608787D01*
X109569410Y-49552829D01*
X109390551Y-49524500D01*
X109390546Y-49524500D01*
X109209454Y-49524500D01*
X109209449Y-49524500D01*
X109030589Y-49552829D01*
X108858363Y-49608787D01*
X108858360Y-49608788D01*
X108697002Y-49691006D01*
X108550505Y-49797441D01*
X108550500Y-49797445D01*
X108422445Y-49925500D01*
X108422441Y-49925505D01*
X108316006Y-50072002D01*
X108233788Y-50233360D01*
X108233787Y-50233363D01*
X108192431Y-50360648D01*
X108152994Y-50418323D01*
X108088635Y-50445522D01*
X108019789Y-50433608D01*
X107968313Y-50386364D01*
X107950500Y-50322330D01*
X107950500Y-50031903D01*
X107950500Y-50031898D01*
X107939877Y-49943436D01*
X107884361Y-49802658D01*
X107884360Y-49802657D01*
X107884360Y-49802656D01*
X107792922Y-49682077D01*
X107672343Y-49590639D01*
X107531561Y-49535122D01*
X107485926Y-49529642D01*
X107443102Y-49524500D01*
X106156898Y-49524500D01*
X106117853Y-49529188D01*
X106068438Y-49535122D01*
X105927656Y-49590639D01*
X105807077Y-49682077D01*
X105715639Y-49802656D01*
X105660122Y-49943438D01*
X105654188Y-49992853D01*
X105649500Y-50031898D01*
X98890499Y-50031898D01*
X98890499Y-49995136D01*
X98890497Y-49995117D01*
X98887586Y-49970012D01*
X98887585Y-49970010D01*
X98887585Y-49970009D01*
X98842206Y-49867235D01*
X98762765Y-49787794D01*
X98762763Y-49787793D01*
X98659992Y-49742415D01*
X98634865Y-49739500D01*
X96945143Y-49739500D01*
X96945117Y-49739502D01*
X96920012Y-49742413D01*
X96920008Y-49742415D01*
X96817235Y-49787793D01*
X96737794Y-49867234D01*
X96692415Y-49970006D01*
X96692415Y-49970008D01*
X96689500Y-49995131D01*
X81780500Y-49995131D01*
X81780500Y-46344500D01*
X81800185Y-46277461D01*
X81852989Y-46231706D01*
X81904500Y-46220500D01*
X121295500Y-46220500D01*
X121362539Y-46240185D01*
G37*
%TD.AperFunction*%
%TD*%
M02*
