M48
; DRILL file {KiCad 8.0.6} date 2025-05-18T16:47:20+0200
; FORMAT={-:-/ absolute / metric / decimal}
; #@! TF.CreationDate,2025-05-18T16:47:20+02:00
; #@! TF.GenerationSoftware,Kicad,Pcbnew,8.0.6
; #@! TF.FileFunction,Plated,1,2,PTH
FMAT,2
METRIC
; #@! TA.AperFunction,Plated,PTH,ViaDrill
T1C0.600
; #@! TA.AperFunction,Plated,PTH,ComponentDrill
T2C0.762
; #@! TA.AperFunction,Plated,PTH,ComponentDrill
T3C0.800
; #@! TA.AperFunction,Plated,PTH,ComponentDrill
T4C0.813
; #@! TA.AperFunction,Plated,PTH,ComponentDrill
T5C0.950
; #@! TA.AperFunction,Plated,PTH,ComponentDrill
T6C1.000
; #@! TA.AperFunction,Plated,PTH,ComponentDrill
T7C1.520
%
G90
G05
T1
X96.52Y-63.5
X97.79Y-113.03
X118.11Y-60.735
T2
X65.405Y-120.015
X66.04Y-74.93
X66.04Y-93.98
X67.945Y-120.015
X68.58Y-74.93
X68.58Y-93.98
X70.485Y-120.015
X71.12Y-93.98
X73.025Y-120.015
X75.565Y-120.015
X77.47Y-99.06
X77.47Y-101.6
X78.105Y-120.015
X78.74Y-74.93
X78.74Y-93.98
X80.645Y-120.015
X81.28Y-74.93
X81.28Y-93.98
X83.185Y-120.015
X85.725Y-120.015
X90.17Y-58.42
X90.17Y-71.12
X90.17Y-99.06
X90.17Y-101.6
X92.71Y-58.42
X92.71Y-71.12
X92.71Y-106.68
X92.71Y-109.22
X92.71Y-111.76
X92.71Y-114.3
X92.71Y-116.84
X92.71Y-119.38
X101.6Y-71.12
X101.6Y-73.66
X101.6Y-76.2
X101.6Y-78.74
X101.6Y-81.28
X101.6Y-83.82
X101.6Y-86.36
X101.6Y-88.9
X101.6Y-91.44
X101.6Y-93.98
X101.6Y-96.52
X101.6Y-99.06
X101.6Y-101.6
X101.6Y-104.14
X101.6Y-106.68
X101.6Y-109.22
X101.6Y-111.76
X101.6Y-114.3
X101.6Y-116.84
X104.14Y-55.88
X104.14Y-63.5
X106.68Y-55.88
X106.68Y-63.5
X109.22Y-55.88
X109.22Y-63.5
X109.22Y-96.52
X109.22Y-109.22
X111.76Y-55.88
X111.76Y-63.5
X111.76Y-96.52
X111.76Y-109.22
X114.3Y-55.88
X114.3Y-63.5
X127.0Y-71.12
X127.0Y-73.66
X127.0Y-76.2
X127.0Y-78.74
X127.0Y-81.28
X127.0Y-83.82
X127.0Y-86.36
X127.0Y-88.9
X127.0Y-91.44
X127.0Y-93.98
X127.0Y-96.52
X127.0Y-99.06
X127.0Y-101.6
X127.0Y-104.14
X127.0Y-106.68
X127.0Y-109.22
X127.0Y-111.76
X127.0Y-114.3
X127.0Y-116.84
T3
X68.58Y-68.58
X68.58Y-71.12
X72.39Y-99.1
X72.39Y-101.6
X78.74Y-68.58
X78.74Y-71.12
X85.13Y-76.2
X90.13Y-76.2
X97.79Y-50.84
X97.79Y-54.34
X106.68Y-73.66
X111.68Y-73.66
X116.84Y-109.22
X119.34Y-109.22
T4
X63.5Y-67.31
X63.5Y-72.39
X85.09Y-67.31
X85.09Y-72.39
T5
X106.8Y-50.8
X109.3Y-50.8
X111.8Y-50.8
X114.3Y-50.8
X116.8Y-50.8
X134.62Y-81.44
X134.62Y-83.94
X134.62Y-86.44
X134.62Y-88.94
X134.62Y-91.44
T6
X66.08Y-63.5
X68.58Y-63.5
X78.78Y-63.5
X81.28Y-63.5
X86.37Y-86.34
X90.17Y-86.34
X133.35Y-104.14
X133.35Y-106.68
X133.35Y-109.22
X133.35Y-111.76
X133.35Y-114.3
X135.89Y-104.14
X135.89Y-106.68
X135.89Y-109.22
X135.89Y-111.76
X135.89Y-114.3
T7
X85.09Y-52.07
X90.17Y-52.07
M30
